<svg xmlns="http://www.w3.org/2000/svg" viewBox="0 0 130 130" width="130" height="130" preserveAspectRatio="xMidYMid meet" style="width: 100%; height: 100%; transform: translate3d(0px, 0px, 0px); content-visibility: visible;"><defs><clipPath id="__lottie_element_2"><rect width="130" height="130" x="0" y="0"></rect></clipPath></defs><g clip-path="url(#__lottie_element_2)"><g transform="matrix(0.9999130368232727,0,0,0.9999130368232727,0.00565338134765625,0.00565338134765625)" opacity="1" style="display: block;"><g opacity="1" transform="matrix(1,0,0,1,27.46200180053711,2.4290008544921875)"><g opacity="1" transform="matrix(1,0,0,1,37.54800033569336,59.76900100708008)"><path fill="rgb(108,78,123)" fill-opacity="1" d=" M-37.29899978637695,-42.983001708984375 C-37.29899978637695,-42.983001708984375 0.8259999752044678,-59.51900100708008 0.8259999752044678,-59.51900100708008 C0.8259999752044678,-59.51900100708008 37.29899978637695,-41.8380012512207 37.29899978637695,-41.8380012512207 C37.29899978637695,-41.8380012512207 20.98200035095215,50.952999114990234 20.98200035095215,50.952999114990234 C20.98200035095215,50.952999114990234 0.36800000071525574,59.51900100708008 0.36800000071525574,59.51900100708008 C0.36800000071525574,59.51900100708008 -22.760000228881836,49.94599914550781 -22.760000228881836,49.94599914550781 C-22.760000228881836,49.94599914550781 -37.29899978637695,-42.983001708984375 -37.29899978637695,-42.983001708984375z"></path></g><g opacity="1" transform="matrix(1.0008673667907715,0.002265798393636942,-0.002265798393636942,1.0008673667907715,16.733999252319336,26.591999053955078)"><path fill="rgb(220,222,224)" fill-opacity="1" d=" M-0.7799999713897705,-0.45500001311302185 C-0.7799999713897705,-0.45500001311302185 -0.5849999785423279,-2.3389999866485596 -0.5849999785423279,-2.3389999866485596 C-0.5849999785423279,-2.3389999866485596 0.3240000009536743,-0.7799999713897705 0.3240000009536743,-0.7799999713897705 C0.3240000009536743,-0.7799999713897705 2.4690001010894775,-1.4299999475479126 2.4690001010894775,-1.4299999475479126 C2.4690001010894775,-1.4299999475479126 0.9089999794960022,0.06599999964237213 0.9089999794960022,0.06599999964237213 C0.9089999794960022,0.06599999964237213 1.9490000009536743,1.559000015258789 1.9490000009536743,1.559000015258789 C1.9490000009536743,1.559000015258789 0.25999999046325684,0.7149999737739563 0.25999999046325684,0.7149999737739563 C0.25999999046325684,0.7149999737739563 -0.45500001311302185,2.3389999866485596 -0.45500001311302185,2.3389999866485596 C-0.45500001311302185,2.3389999866485596 -0.5849999785423279,0.7789999842643738 -0.5849999785423279,0.7789999842643738 C-0.5849999785423279,0.7789999842643738 -2.4690001010894775,0.45399999618530273 -2.4690001010894775,0.45399999618530273 C-2.4690001010894775,0.45399999618530273 -0.7799999713897705,-0.45500001311302185 -0.7799999713897705,-0.45500001311302185z"></path></g><g opacity="1" transform="matrix(0.9982680082321167,-0.0022599135991185904,0.0022599135991185904,0.9982680082321167,25.275999069213867,18.66699981689453)"><path fill="rgb(220,222,224)" fill-opacity="1" d=" M-0.5199999809265137,-0.4230000078678131 C-0.5199999809265137,-0.4230000078678131 -0.25999999046325684,-1.9170000553131104 -0.25999999046325684,-1.9170000553131104 C-0.25999999046325684,-1.9170000553131104 0.45399999618530273,-0.3569999933242798 0.45399999618530273,-0.3569999933242798 C0.45399999618530273,-0.3569999933242798 1.8179999589920044,-0.4230000078678131 1.8179999589920044,-0.4230000078678131 C1.8179999589920044,-0.4230000078678131 0.9100000262260437,0.4230000078678131 0.9100000262260437,0.4230000078678131 C0.9100000262260437,0.4230000078678131 1.2339999675750732,1.9170000553131104 1.2339999675750732,1.9170000553131104 C1.2339999675750732,1.9170000553131104 0.06400000303983688,0.6819999814033508 0.06400000303983688,0.6819999814033508 C0.06400000303983688,0.6819999814033508 -1.1050000190734863,1.784999966621399 -1.1050000190734863,1.784999966621399 C-1.1050000190734863,1.784999966621399 -0.7149999737739563,0.5529999732971191 -0.7149999737739563,0.5529999732971191 C-0.7149999737739563,0.5529999732971191 -1.8179999589920044,-0.4230000078678131 -1.8179999589920044,-0.4230000078678131 C-1.8179999589920044,-0.4230000078678131 -0.5199999809265137,-0.4230000078678131 -0.5199999809265137,-0.4230000078678131z"></path></g><g opacity="1" transform="matrix(1.0004304647445679,0.0030197494197636843,-0.0030197494197636843,1.0004304647445679,54.152000427246094,23.83099937438965)"><path fill="rgb(220,222,224)" fill-opacity="1" d=" M-1.2660000324249268,-0.7799999713897705 C-1.2660000324249268,-0.7799999713897705 -1.3650000095367432,-3.4110000133514404 -1.3650000095367432,-3.4110000133514404 C-1.3650000095367432,-3.4110000133514404 0.4880000054836273,-1.4620000123977661 0.4880000054836273,-1.4620000123977661 C0.4880000054836273,-1.4620000123977661 2.436000108718872,-2.3389999866485596 2.436000108718872,-2.3389999866485596 C2.436000108718872,-2.3389999866485596 1.4620000123977661,-0.3889999985694885 1.4620000123977661,-0.3889999985694885 C1.4620000123977661,-0.3889999985694885 3.6050000190734863,1.4620000123977661 3.6050000190734863,1.4620000123977661 C3.6050000190734863,1.4620000123977661 0.4880000054836273,0.9750000238418579 0.4880000054836273,0.9750000238418579 C0.4880000054836273,0.9750000238418579 -0.2919999957084656,3.4110000133514404 -0.2919999957084656,3.4110000133514404 C-0.2919999957084656,3.4110000133514404 -0.9750000238418579,0.7799999713897705 -0.9750000238418579,0.7799999713897705 C-0.9750000238418579,0.7799999713897705 -3.6050000190734863,0.4880000054836273 -3.6050000190734863,0.4880000054836273 C-3.6050000190734863,0.4880000054836273 -1.2660000324249268,-0.7799999713897705 -1.2660000324249268,-0.7799999713897705z"></path></g></g><g opacity="1" transform="matrix(1,0,0,1,22.584999084472656,0.25)"><g opacity="1" transform="matrix(1,0,0,1,24.60300064086914,14.04699993133545)"><path fill="rgb(158,128,172)" fill-opacity="1" d=" M19.476999282836914,-10.119999885559082 C19.476999282836914,-10.119999885559082 -19.476999282836914,4.916999816894531 -19.476999282836914,4.916999816894531 C-19.476999282836914,4.916999816894531 -17.165000915527344,10.119999885559082 -17.165000915527344,10.119999885559082 C-17.165000915527344,10.119999885559082 17.80900001525879,-4.13700008392334 17.80900001525879,-4.13700008392334 C17.80900001525879,-4.13700008392334 19.476999282836914,-10.119999885559082 19.476999282836914,-10.119999885559082z"></path></g><g opacity="1" transform="matrix(1,0,0,1,61.069000244140625,14.937999725341797)"><path fill="rgb(147,112,162)" fill-opacity="1" d=" M-18.6560001373291,-9.229000091552734 C-18.6560001373291,-9.229000091552734 18.6560001373291,5.171999931335449 18.6560001373291,5.171999931335449 C18.6560001373291,5.171999931335449 16.3439998626709,9.229000091552734 16.3439998626709,9.229000091552734 C16.3439998626709,9.229000091552734 -18.6560001373291,-5.0279998779296875 -18.6560001373291,-5.0279998779296875 C-18.6560001373291,-5.0279998779296875 -18.6560001373291,-9.229000091552734 -18.6560001373291,-9.229000091552734z"></path></g><g opacity="1" transform="matrix(1,0,0,1,32.321998596191406,119.36699676513672)"><path fill="rgb(142,105,158)" fill-opacity="1" d=" M-13.763999938964844,-2.188999891281128 C-13.763999938964844,-2.188999891281128 10.097999572753906,9.881999969482422 10.097999572753906,9.881999969482422 C10.097999572753906,9.881999969482422 13.763999938964844,3.4159998893737793 13.763999938964844,3.4159998893737793 C13.763999938964844,3.4159998893737793 2.1519999504089355,-1.2259999513626099 2.1519999504089355,-1.2259999513626099 C2.1519999504089355,-1.2259999513626099 -13.107000350952148,-9.881999969482422 -13.107000350952148,-9.881999969482422 C-13.107000350952148,-9.881999969482422 -13.763999938964844,-2.188999891281128 -13.763999938964844,-2.188999891281128z"></path></g><g opacity="1" transform="matrix(1,0,0,1,9.956999778747559,67.0459976196289)"><path fill="rgb(158,128,172)" fill-opacity="1" d=" M-8.043999671936035,-50.13199996948242 C-8.043999671936035,-50.13199996948242 -9.708000183105469,-43.597999572753906 -9.708000183105469,-43.597999572753906 C-9.708000183105469,-43.597999572753906 8.600000381469727,50.13199996948242 8.600000381469727,50.13199996948242 C8.600000381469727,50.13199996948242 9.708000183105469,44.847999572753906 9.708000183105469,44.847999572753906 C9.708000183105469,44.847999572753906 9.708000183105469,33.104000091552734 9.708000183105469,33.104000091552734 C9.708000183105469,33.104000091552734 -4.210000038146973,-45.770999908447266 -4.210000038146973,-45.770999908447266 C-4.210000038146973,-45.770999908447266 -8.043999671936035,-50.13199996948242 -8.043999671936035,-50.13199996948242z"></path></g><g opacity="1" transform="matrix(1,0,0,1,12.381999969482422,64.40399932861328)"><path fill="rgb(182,159,192)" fill-opacity="1" d=" M-10.468000411987305,-47.4900016784668 C-10.468000411987305,-47.4900016784668 7.2829999923706055,47.4900016784668 7.2829999923706055,47.4900016784668 C7.2829999923706055,47.4900016784668 10.029000282287598,46.97700119018555 10.029000282287598,46.97700119018555 C10.029000282287598,46.97700119018555 10.468000411987305,45.08100128173828 10.468000411987305,45.08100128173828 C10.468000411987305,45.08100128173828 -3.6010000705718994,-43.12900161743164 -3.6010000705718994,-43.12900161743164 C-3.6010000705718994,-43.12900161743164 -4.8520002365112305,-45.935001373291016 -4.8520002365112305,-45.935001373291016 C-4.8520002365112305,-45.935001373291016 -10.468000411987305,-47.4900016784668 -10.468000411987305,-47.4900016784668z"></path></g><g opacity="1" transform="matrix(1,0,0,1,31.993000030517578,117.17900085449219)"><path fill="rgb(195,175,202)" fill-opacity="1" d=" M-9.142999649047852,-7.692999839782715 C-9.142999649047852,-7.692999839782715 10.418999671936035,0.6399999856948853 10.418999671936035,0.6399999856948853 C10.418999671936035,0.6399999856948853 12.32800006866455,3.740999937057495 12.32800006866455,3.740999937057495 C12.32800006866455,3.740999937057495 10.418999671936035,7.693999767303467 10.418999671936035,7.693999767303467 C10.418999671936035,7.693999767303467 -12.32800006866455,-5.284999847412109 -12.32800006866455,-5.284999847412109 C-12.32800006866455,-5.284999847412109 -9.142999649047852,-7.692999839782715 -9.142999649047852,-7.692999839782715z"></path></g><g opacity="1" transform="matrix(1,0,0,1,22.719999313354492,10.76200008392334)"><path fill="rgb(195,175,202)" fill-opacity="1" d=" M-20.80699920654297,6.1519999504089355 C-20.80699920654297,6.1519999504089355 -13.939000129699707,10.51200008392334 -13.939000129699707,10.51200008392334 C-13.939000129699707,10.51200008392334 19.691999435424805,-5.052999973297119 19.691999435424805,-5.052999973297119 C19.691999435424805,-5.052999973297119 20.805999755859375,-7.310999870300293 20.805999755859375,-7.310999870300293 C20.805999755859375,-7.310999870300293 19.691999435424805,-10.51200008392334 19.691999435424805,-10.51200008392334 C19.691999435424805,-10.51200008392334 -20.80699920654297,6.1519999504089355 -20.80699920654297,6.1519999504089355z"></path></g><g opacity="1" transform="matrix(1,0,0,1,54.349998474121094,119.36699676513672)"><path fill="rgb(134,97,153)" fill-opacity="1" d=" M-3.9839999675750732,-1.2259999513626099 C-3.9839999675750732,-1.2259999513626099 -11.92300033569336,5.504000186920166 -11.92300033569336,5.504000186920166 C-11.92300033569336,5.504000186920166 -11.930000305175781,9.881999969482422 -11.930000305175781,9.881999969482422 C-11.930000305175781,9.881999969482422 11.930000305175781,-2.188999891281128 11.930000305175781,-2.188999891281128 C11.930000305175781,-2.188999891281128 11.27299976348877,-9.881999969482422 11.27299976348877,-9.881999969482422 C11.27299976348877,-9.881999969482422 -3.9839999675750732,-1.2259999513626099 -3.9839999675750732,-1.2259999513626099z"></path></g><g opacity="1" transform="matrix(1,0,0,1,74.88099670410156,67.0459976196289)"><path fill="rgb(158,128,172)" fill-opacity="1" d=" M8.043999671936035,-50.13199996948242 C8.043999671936035,-50.13199996948242 9.708000183105469,-43.597999572753906 9.708000183105469,-43.597999572753906 C9.708000183105469,-43.597999572753906 -8.60099983215332,50.13199996948242 -8.60099983215332,50.13199996948242 C-8.60099983215332,50.13199996948242 -9.708000183105469,44.847999572753906 -9.708000183105469,44.847999572753906 C-9.708000183105469,44.847999572753906 -9.708000183105469,33.104000091552734 -9.708000183105469,33.104000091552734 C-9.708000183105469,33.104000091552734 4.210000038146973,-45.770999908447266 4.210000038146973,-45.770999908447266 C4.210000038146973,-45.770999908447266 8.043999671936035,-50.13199996948242 8.043999671936035,-50.13199996948242z"></path></g><g opacity="1" transform="matrix(1,0,0,1,72.45600128173828,64.40399932861328)"><path fill="rgb(195,175,202)" fill-opacity="1" d=" M10.468999862670898,-47.4900016784668 C10.468999862670898,-47.4900016784668 -7.283999919891357,47.4900016784668 -7.283999919891357,47.4900016784668 C-7.283999919891357,47.4900016784668 -10.029000282287598,46.97700119018555 -10.029000282287598,46.97700119018555 C-10.029000282287598,46.97700119018555 -10.468999862670898,45.08100128173828 -10.468999862670898,45.08100128173828 C-10.468999862670898,45.08100128173828 3.6019999980926514,-43.12900161743164 3.6019999980926514,-43.12900161743164 C3.6019999980926514,-43.12900161743164 4.8520002365112305,-45.935001373291016 4.8520002365112305,-45.935001373291016 C4.8520002365112305,-45.935001373291016 10.468999862670898,-47.4900016784668 10.468999862670898,-47.4900016784668z"></path></g><g opacity="1" transform="matrix(1,0,0,1,53.79999923706055,117.17900085449219)"><path fill="rgb(182,159,192)" fill-opacity="1" d=" M8.189000129699707,-7.692999839782715 C8.189000129699707,-7.692999839782715 -11.37399959564209,0.6399999856948853 -11.37399959564209,0.6399999856948853 C-11.37399959564209,0.6399999856948853 -11.37399959564209,7.693999767303467 -11.37399959564209,7.693999767303467 C-11.37399959564209,7.693999767303467 11.37399959564209,-5.284999847412109 11.37399959564209,-5.284999847412109 C11.37399959564209,-5.284999847412109 8.189000129699707,-7.692999839782715 8.189000129699707,-7.692999839782715z"></path></g><g opacity="1" transform="matrix(1,0,0,1,62.66899871826172,10.76200008392334)"><path fill="rgb(182,159,192)" fill-opacity="1" d=" M-20.256000518798828,-5.052999973297119 C-20.256000518798828,-5.052999973297119 13.388999938964844,10.51200008392334 13.388999938964844,10.51200008392334 C13.388999938964844,10.51200008392334 20.256000518798828,6.1519999504089355 20.256000518798828,6.1519999504089355 C20.256000518798828,6.1519999504089355 -20.256000518798828,-10.51200008392334 -20.256000518798828,-10.51200008392334 C-20.256000518798828,-10.51200008392334 -20.256000518798828,-5.052999973297119 -20.256000518798828,-5.052999973297119z"></path></g></g></g><g transform="matrix(0.9995649456977844,0,0,0.9995649456977844,16.942916870117188,33.62242126464844)" opacity="1" style="display: block;"><g opacity="1" transform="matrix(1,0,0,1,0,0)"><g opacity="1" transform="matrix(1,0,-0.00015184168296400458,1,0.007080078125,0)"><g opacity="1" transform="matrix(1,0,0,1,18.674999237060547,35.46699905395508)"><path fill="rgb(134,97,152)" fill-opacity="1" d=" M17.406999588012695,17.67799949645996 C17.406999588012695,17.67799949645996 -7.885000228881836,21.3799991607666 -7.885000228881836,21.3799991607666 C-7.885000228881836,21.3799991607666 -18.423999786376953,-18.736000061035156 -18.423999786376953,-18.736000061035156 C-18.423999786376953,-18.736000061035156 -14.62399959564209,-19.62700080871582 -14.62399959564209,-19.62700080871582 C-14.62399959564209,-19.62700080871582 18.423999786376953,-21.381000518798828 18.423999786376953,-21.381000518798828 C18.423999786376953,-21.381000518798828 17.406999588012695,17.67799949645996 17.406999588012695,17.67799949645996z"></path></g><g opacity="1" transform="matrix(1,0,0,1,10.77400016784668,28.090999603271484)"><path fill="rgb(230,222,233)" fill-opacity="1" d=" M-4.48199987411499,-24.417999267578125 C-4.48199987411499,-24.417999267578125 -5.61299991607666,-18.277999877929688 -5.61299991607666,-18.277999877929688 C-5.61299991607666,-18.277999877929688 -5.650000095367432,-16.642000198364258 -5.650000095367432,-16.642000198364258 C-5.650000095367432,-16.642000198364258 -5.955999851226807,-16.420000076293945 -5.955999851226807,-16.420000076293945 C-5.955999851226807,-16.420000076293945 -6.7230000495910645,-12.25 -6.7230000495910645,-12.25 C-6.7230000495910645,-12.25 2.9230000972747803,24.417999267578125 2.9230000972747803,24.417999267578125 C2.9230000972747803,24.417999267578125 6.7230000495910645,18.040000915527344 6.7230000495910645,18.040000915527344 C6.7230000495910645,18.040000915527344 2.630000114440918,-6.261000156402588 2.630000114440918,-6.261000156402588 C2.630000114440918,-6.261000156402588 -4.48199987411499,-24.417999267578125 -4.48199987411499,-24.417999267578125z"></path></g><g opacity="1" transform="matrix(1,0,0,1,30.88599967956543,46.70100021362305)"><path fill="rgb(195,175,202)" fill-opacity="1" d=" M-15.142999649047852,-0.5709999799728394 C-15.142999649047852,-0.5709999799728394 -2.3410000801086426,-5.808000087738037 -2.3410000801086426,-5.808000087738037 C-2.3410000801086426,-5.808000087738037 17.18899917602539,0.6710000038146973 17.18899917602539,0.6710000038146973 C17.18899917602539,0.6710000038146973 -17.18899917602539,5.808000087738037 -17.18899917602539,5.808000087738037 C-17.18899917602539,5.808000087738037 -15.142999649047852,-0.5709999799728394 -15.142999649047852,-0.5709999799728394z"></path></g><g opacity="1" transform="matrix(1,0,0,1,27.183000564575195,23.190000534057617)"><path fill="rgb(241,236,244)" fill-opacity="1" d=" M6.126999855041504,-16.493000030517578 C6.126999855041504,-16.493000030517578 -5.301000118255615,-22.940000534057617 -5.301000118255615,-22.940000534057617 C-5.301000118255615,-22.940000534057617 -20.892000198364258,-19.517000198364258 -20.892000198364258,-19.517000198364258 C-20.892000198364258,-19.517000198364258 -11.4399995803833,22.940000534057617 -11.4399995803833,22.940000534057617 C-11.4399995803833,22.940000534057617 1.3619999885559082,20.246999740600586 1.3619999885559082,20.246999740600586 C1.3619999885559082,20.246999740600586 20.892000198364258,22.273000717163086 20.892000198364258,22.273000717163086 C20.892000198364258,22.273000717163086 21.104000091552734,-9.706999778747559 21.104000091552734,-9.706999778747559 C21.104000091552734,-9.706999778747559 6.126999855041504,-16.493000030517578 6.126999855041504,-16.493000030517578z"></path></g><g opacity="1" transform="matrix(1,0,0,1,28.257999420166016,6.697000026702881)"><path fill="rgb(195,175,202)" fill-opacity="1" d=" M-6.375999927520752,-6.447000026702881 C-6.375999927520752,-6.447000026702881 1.225000023841858,6.447000026702881 1.225000023841858,6.447000026702881 C1.225000023841858,6.447000026702881 20.05900001525879,6.755000114440918 20.05900001525879,6.755000114440918 C20.05900001525879,6.755000114440918 6.375999927520752,-3.0250000953674316 6.375999927520752,-3.0250000953674316 C6.375999927520752,-3.0250000953674316 -6.375999927520752,-6.447000026702881 -6.375999927520752,-6.447000026702881z"></path></g><g opacity="1" transform="matrix(1,0,0,1,18.07699966430664,46.06700134277344)"><path fill="rgb(171,143,183)" fill-opacity="1" d=" M-3.1429998874664307,2.5869998931884766 C-3.1429998874664307,2.5869998931884766 4.974999904632568,2.0759999752044678 4.974999904632568,2.0759999752044678 C4.974999904632568,2.0759999752044678 -3.443000078201294,3.5230000019073486 -3.443000078201294,3.5230000019073486 C-3.443000078201294,3.5230000019073486 -4.974999904632568,-3.5230000019073486 -4.974999904632568,-3.5230000019073486 C-4.974999904632568,-3.5230000019073486 -3.1429998874664307,2.5869998931884766 -3.1429998874664307,2.5869998931884766z"></path></g><g opacity="1" transform="matrix(1,0,0,1,6.251999855041504,15.324999809265137)"><path fill="rgb(171,143,183)" fill-opacity="1" d=" M-1.0920000076293945,-5.51200008392334 C-1.0920000076293945,-5.51200008392334 1.434000015258789,5.51200008392334 1.434000015258789,5.51200008392334 C1.434000015258789,5.51200008392334 -1.434000015258789,-3.6540000438690186 -1.434000015258789,-3.6540000438690186 C-1.434000015258789,-3.6540000438690186 -1.0920000076293945,-5.51200008392334 -1.0920000076293945,-5.51200008392334z"></path></g><g opacity="1" transform="matrix(1,0,0,1,27.433000564575195,27.825000762939453)"><path fill="rgb(171,143,183)" fill-opacity="1" d=" M9.442999839782715,-2.63700008392334 C9.442999839782715,-2.63700008392334 -9.666000366210938,1.6519999504089355 -9.666000366210938,1.6519999504089355 C-9.666000366210938,1.6519999504089355 -9.413999557495117,2.63700008392334 -9.413999557495117,2.63700008392334 C-9.413999557495117,2.63700008392334 9.666000366210938,-1.6449999809265137 9.666000366210938,-1.6449999809265137 C9.666000366210938,-1.6449999809265137 9.442999839782715,-2.63700008392334 9.442999839782715,-2.63700008392334z"></path></g><g opacity="1" transform="matrix(1,0,0,1,25.882999420166016,21.114999771118164)"><path fill="rgb(171,143,183)" fill-opacity="1" d=" M-9.815999984741211,1.684999942779541 C-9.815999984741211,1.684999942779541 -9.5649995803833,2.6710000038146973 -9.5649995803833,2.6710000038146973 C-9.5649995803833,2.6710000038146973 9.815999984741211,-1.6790000200271606 9.815999984741211,-1.6790000200271606 C9.815999984741211,-1.6790000200271606 9.593000411987305,-2.6710000038146973 9.593000411987305,-2.6710000038146973 C9.593000411987305,-2.6710000038146973 -9.815999984741211,1.684999942779541 -9.815999984741211,1.684999942779541z"></path></g><g opacity="1" transform="matrix(1,0,0,1,29.163000106811523,34.93299865722656)"><path fill="rgb(171,143,183)" fill-opacity="1" d=" M-9.59000015258789,1.6339999437332153 C-9.59000015258789,1.6339999437332153 -9.33899974822998,2.621000051498413 -9.33899974822998,2.621000051498413 C-9.33899974822998,2.621000051498413 9.59000015258789,-1.628000020980835 9.59000015258789,-1.628000020980835 C9.59000015258789,-1.628000020980835 9.368000030517578,-2.621000051498413 9.368000030517578,-2.621000051498413 C9.368000030517578,-2.621000051498413 -9.59000015258789,1.6339999437332153 -9.59000015258789,1.6339999437332153z"></path></g><g opacity="1" transform="matrix(1,0,0,1,26.006999969482422,9.020000457763672)"><path fill="rgb(171,143,183)" fill-opacity="1" d=" M-0.3109999895095825,-2.3010001182556152 C-0.3109999895095825,-2.3010001182556152 -13.309000015258789,0.550000011920929 -13.309000015258789,0.550000011920929 C-13.309000015258789,0.550000011920929 -13.059000015258789,1.5369999408721924 -13.059000015258789,1.5369999408721924 C-13.059000015258789,1.5369999408721924 0.2680000066757202,-1.315000057220459 0.2680000066757202,-1.315000057220459 C0.2680000066757202,-1.315000057220459 13.038000106811523,2.3010001182556152 13.038000106811523,2.3010001182556152 C13.038000106811523,2.3010001182556152 13.309000015258789,1.3200000524520874 13.309000015258789,1.3200000524520874 C13.309000015258789,1.3200000524520874 -0.3109999895095825,-2.3010001182556152 -0.3109999895095825,-2.3010001182556152z"></path></g><g opacity="1" transform="matrix(1,0,0,1,22.18199920654297,15.253000259399414)"><path fill="rgb(171,143,183)" fill-opacity="1" d=" M-7.750999927520752,1.125 C-7.750999927520752,1.125 -7.5,2.1089999675750732 -7.5,2.1089999675750732 C-7.5,2.1089999675750732 7.750999927520752,-1.1979999542236328 7.750999927520752,-1.1979999542236328 C7.750999927520752,-1.1979999542236328 7.300000190734863,-2.1089999675750732 7.300000190734863,-2.1089999675750732 C7.300000190734863,-2.1089999675750732 -7.750999927520752,1.125 -7.750999927520752,1.125z"></path></g></g><g opacity="1" transform="matrix(1,0,0.00015184168296400458,1,-0.00713348388671875,0)"><g opacity="1" transform="matrix(1,0,0,1,77.4749984741211,35.46699905395508)"><path fill="rgb(134,97,152)" fill-opacity="1" d=" M-17.4060001373291,17.67799949645996 C-17.4060001373291,17.67799949645996 7.885000228881836,21.3799991607666 7.885000228881836,21.3799991607666 C7.885000228881836,21.3799991607666 18.423999786376953,-18.736000061035156 18.423999786376953,-18.736000061035156 C18.423999786376953,-18.736000061035156 14.62399959564209,-19.62700080871582 14.62399959564209,-19.62700080871582 C14.62399959564209,-19.62700080871582 -18.424999237060547,-21.381000518798828 -18.424999237060547,-21.381000518798828 C-18.424999237060547,-21.381000518798828 -17.4060001373291,17.67799949645996 -17.4060001373291,17.67799949645996z"></path></g><g opacity="1" transform="matrix(1,0,0,1,85.3759994506836,28.090999603271484)"><path fill="rgb(195,175,202)" fill-opacity="1" d=" M4.482999801635742,-24.417999267578125 C4.482999801635742,-24.417999267578125 5.613999843597412,-18.277999877929688 5.613999843597412,-18.277999877929688 C5.613999843597412,-18.277999877929688 5.534999847412109,-16.68899917602539 5.534999847412109,-16.68899917602539 C5.534999847412109,-16.68899917602539 5.955999851226807,-16.420000076293945 5.955999851226807,-16.420000076293945 C5.955999851226807,-16.420000076293945 6.723999977111816,-12.25 6.723999977111816,-12.25 C6.723999977111816,-12.25 -2.9230000972747803,24.417999267578125 -2.9230000972747803,24.417999267578125 C-2.9230000972747803,24.417999267578125 -6.7230000495910645,18.040000915527344 -6.7230000495910645,18.040000915527344 C-6.7230000495910645,18.040000915527344 -2.63100004196167,-6.261000156402588 -2.63100004196167,-6.261000156402588 C-2.63100004196167,-6.261000156402588 4.482999801635742,-24.417999267578125 4.482999801635742,-24.417999267578125z"></path></g><g opacity="1" transform="matrix(1,0,0,1,65.26399993896484,46.70100021362305)"><path fill="rgb(171,143,183)" fill-opacity="1" d=" M15.142999649047852,-0.5709999799728394 C15.142999649047852,-0.5709999799728394 2.3399999141693115,-5.808000087738037 2.3399999141693115,-5.808000087738037 C2.3399999141693115,-5.808000087738037 -17.18899917602539,0.6710000038146973 -17.18899917602539,0.6710000038146973 C-17.18899917602539,0.6710000038146973 17.18899917602539,5.808000087738037 17.18899917602539,5.808000087738037 C17.18899917602539,5.808000087738037 15.142999649047852,-0.5709999799728394 15.142999649047852,-0.5709999799728394z"></path></g><g opacity="1" transform="matrix(1,0,0,1,68.96700286865234,23.190000534057617)"><path fill="rgb(230,222,233)" fill-opacity="1" d=" M-6.126999855041504,-16.493000030517578 C-6.126999855041504,-16.493000030517578 5.301000118255615,-22.940000534057617 5.301000118255615,-22.940000534057617 C5.301000118255615,-22.940000534057617 20.892000198364258,-19.517000198364258 20.892000198364258,-19.517000198364258 C20.892000198364258,-19.517000198364258 11.439000129699707,22.940000534057617 11.439000129699707,22.940000534057617 C11.439000129699707,22.940000534057617 -1.3619999885559082,20.246999740600586 -1.3619999885559082,20.246999740600586 C-1.3619999885559082,20.246999740600586 -20.892000198364258,22.273000717163086 -20.892000198364258,22.273000717163086 C-20.892000198364258,22.273000717163086 -20.714000701904297,-9.637999534606934 -20.714000701904297,-9.637999534606934 C-20.714000701904297,-9.637999534606934 -6.126999855041504,-16.493000030517578 -6.126999855041504,-16.493000030517578z"></path></g><g opacity="1" transform="matrix(1,0,0,1,67.89199829101562,6.697000026702881)"><path fill="rgb(241,236,244)" fill-opacity="1" d=" M6.375999927520752,-6.447000026702881 C6.375999927520752,-6.447000026702881 -1.225000023841858,6.447000026702881 -1.225000023841858,6.447000026702881 C-1.225000023841858,6.447000026702881 -19.50200080871582,6.783999919891357 -19.50200080871582,6.783999919891357 C-19.50200080871582,6.783999919891357 -6.375999927520752,-3.0250000953674316 -6.375999927520752,-3.0250000953674316 C-6.375999927520752,-3.0250000953674316 6.375999927520752,-6.447000026702881 6.375999927520752,-6.447000026702881z"></path></g><g opacity="1" transform="matrix(1,0,0,1,78.0739974975586,46.06700134277344)"><path fill="rgb(158,128,172)" fill-opacity="1" d=" M3.1429998874664307,2.5869998931884766 C3.1429998874664307,2.5869998931884766 -4.974999904632568,2.0759999752044678 -4.974999904632568,2.0759999752044678 C-4.974999904632568,2.0759999752044678 3.443000078201294,3.5230000019073486 3.443000078201294,3.5230000019073486 C3.443000078201294,3.5230000019073486 4.974999904632568,-3.5230000019073486 4.974999904632568,-3.5230000019073486 C4.974999904632568,-3.5230000019073486 3.1429998874664307,2.5869998931884766 3.1429998874664307,2.5869998931884766z"></path></g><g opacity="1" transform="matrix(1,0,0,1,89.89900207519531,15.324999809265137)"><path fill="rgb(158,128,172)" fill-opacity="1" d=" M1.090999960899353,-5.51200008392334 C1.090999960899353,-5.51200008392334 -1.4329999685287476,5.51200008392334 -1.4329999685287476,5.51200008392334 C-1.4329999685287476,5.51200008392334 1.4329999685287476,-3.6540000438690186 1.4329999685287476,-3.6540000438690186 C1.4329999685287476,-3.6540000438690186 1.090999960899353,-5.51200008392334 1.090999960899353,-5.51200008392334z"></path></g><g opacity="1" transform="matrix(1,0,0,1,68.71700286865234,27.825000762939453)"><path fill="rgb(171,143,183)" fill-opacity="1" d=" M-9.442999839782715,-2.63700008392334 C-9.442999839782715,-2.63700008392334 9.666000366210938,1.6519999504089355 9.666000366210938,1.6519999504089355 C9.666000366210938,1.6519999504089355 9.413999557495117,2.63700008392334 9.413999557495117,2.63700008392334 C9.413999557495117,2.63700008392334 -9.666000366210938,-1.6449999809265137 -9.666000366210938,-1.6449999809265137 C-9.666000366210938,-1.6449999809265137 -9.442999839782715,-2.63700008392334 -9.442999839782715,-2.63700008392334z"></path></g><g opacity="1" transform="matrix(1,0,0,1,70.26699829101562,21.114999771118164)"><path fill="rgb(171,143,183)" fill-opacity="1" d=" M9.817000389099121,1.684999942779541 C9.817000389099121,1.684999942779541 9.564000129699707,2.6710000038146973 9.564000129699707,2.6710000038146973 C9.564000129699707,2.6710000038146973 -9.815999984741211,-1.6790000200271606 -9.815999984741211,-1.6790000200271606 C-9.815999984741211,-1.6790000200271606 -9.592000007629395,-2.6710000038146973 -9.592000007629395,-2.6710000038146973 C-9.592000007629395,-2.6710000038146973 9.817000389099121,1.684999942779541 9.817000389099121,1.684999942779541z"></path></g><g opacity="1" transform="matrix(1,0,0,1,66.98699951171875,34.93299865722656)"><path fill="rgb(171,143,183)" fill-opacity="1" d=" M9.59000015258789,1.6339999437332153 C9.59000015258789,1.6339999437332153 9.33899974822998,2.621000051498413 9.33899974822998,2.621000051498413 C9.33899974822998,2.621000051498413 -9.59000015258789,-1.628000020980835 -9.59000015258789,-1.628000020980835 C-9.59000015258789,-1.628000020980835 -9.366999626159668,-2.621000051498413 -9.366999626159668,-2.621000051498413 C-9.366999626159668,-2.621000051498413 9.59000015258789,1.6339999437332153 9.59000015258789,1.6339999437332153z"></path></g><g opacity="1" transform="matrix(1,0,0,1,70.14299774169922,9.020000457763672)"><path fill="rgb(171,143,183)" fill-opacity="1" d=" M0.31200000643730164,-2.3010001182556152 C0.31200000643730164,-2.3010001182556152 13.3100004196167,0.550000011920929 13.3100004196167,0.550000011920929 C13.3100004196167,0.550000011920929 13.059000015258789,1.5369999408721924 13.059000015258789,1.5369999408721924 C13.059000015258789,1.5369999408721924 -0.2680000066757202,-1.315000057220459 -0.2680000066757202,-1.315000057220459 C-0.2680000066757202,-1.315000057220459 -13.038000106811523,2.3010001182556152 -13.038000106811523,2.3010001182556152 C-13.038000106811523,2.3010001182556152 -13.309000015258789,1.3200000524520874 -13.309000015258789,1.3200000524520874 C-13.309000015258789,1.3200000524520874 0.31200000643730164,-2.3010001182556152 0.31200000643730164,-2.3010001182556152z"></path></g><g opacity="1" transform="matrix(1,0,0,1,73.96800231933594,15.253000259399414)"><path fill="rgb(171,143,183)" fill-opacity="1" d=" M7.750999927520752,1.125 C7.750999927520752,1.125 7.5,2.1089999675750732 7.5,2.1089999675750732 C7.5,2.1089999675750732 -7.750999927520752,-1.1979999542236328 -7.750999927520752,-1.1979999542236328 C-7.750999927520752,-1.1979999542236328 -7.301000118255615,-2.1089999675750732 -7.301000118255615,-2.1089999675750732 C-7.301000118255615,-2.1089999675750732 7.750999927520752,1.125 7.750999927520752,1.125z"></path></g></g></g></g><g transform="matrix(0.9991300106048584,0,0,0.9991300106048584,5.564787864685059,64.29597473144531)" opacity="1" style="display: block;"><g opacity="1" transform="matrix(1,0,0,1,0,0)"><g opacity="1" transform="matrix(1,0,0,1,28.974000930786133,36.959999084472656)"><path fill="rgb(116,82,131)" fill-opacity="1" d=" M-2.4739999771118164,1.8220000267028809 C-2.4739999771118164,1.8220000267028809 0.6899999976158142,1.3450000286102295 0.6899999976158142,1.3450000286102295 C0.6899999976158142,1.3450000286102295 2.4739999771118164,-1.5670000314712524 2.4739999771118164,-1.5670000314712524 C2.4739999771118164,-1.5670000314712524 -1.0490000247955322,-1.8220000267028809 -1.0490000247955322,-1.8220000267028809 C-1.0490000247955322,-1.8220000267028809 -2.4739999771118164,1.8220000267028809 -2.4739999771118164,1.8220000267028809z"></path></g><g opacity="1" transform="matrix(1,-0.00015184166841208935,0.00015184166841208935,1,0.008798599243164062,0.0023345947265625)"><g opacity="1" transform="matrix(1,0,0,1,17.900999069213867,13.189000129699707)"><path fill="rgb(147,112,162)" fill-opacity="1" d=" M-6.572000026702881,-5.822000026702881 C-6.572000026702881,-5.822000026702881 -2.4820001125335693,9.729000091552734 -2.4820001125335693,9.729000091552734 C-2.4820001125335693,9.729000091552734 6.572000026702881,4.985000133514404 6.572000026702881,4.985000133514404 C6.572000026702881,4.985000133514404 5.446000099182129,-4.824999809265137 5.446000099182129,-4.824999809265137 C5.446000099182129,-4.824999809265137 0.24899999797344208,-9.729000091552734 0.24899999797344208,-9.729000091552734 C0.24899999797344208,-9.729000091552734 -6.572000026702881,-5.822000026702881 -6.572000026702881,-5.822000026702881z"></path></g><g opacity="1" transform="matrix(1,0,0,1,20.402000427246094,12.982999801635742)"><path fill="rgb(230,222,233)" fill-opacity="1" d=" M-4.072000026702881,-9.256999969482422 C-4.072000026702881,-9.256999969482422 1.0609999895095825,9.52400016784668 1.0609999895095825,9.52400016784668 C1.0609999895095825,9.52400016784668 4.072000026702881,5.190000057220459 4.072000026702881,5.190000057220459 C4.072000026702881,5.190000057220459 2.944999933242798,-4.61899995803833 2.944999933242798,-4.61899995803833 C2.944999933242798,-4.61899995803833 -2.250999927520752,-9.52400016784668 -2.250999927520752,-9.52400016784668 C-2.250999927520752,-9.52400016784668 -4.072000026702881,-9.256999969482422 -4.072000026702881,-9.256999969482422z"></path></g></g><g opacity="0.5" transform="matrix(1,0,0,1,14.432000160217285,13.244000434875488)"><path fill="rgb(250,249,250)" fill-opacity="1" d=" M-10.039999961853027,3.5269999504089355 C-10.039999961853027,3.5269999504089355 -8.892999649047852,-6.359000205993652 -8.892999649047852,-6.359000205993652 C-8.892999649047852,-6.359000205993652 -0.8059999942779541,-10.38599967956543 -0.8059999942779541,-10.38599967956543 C-0.8059999942779541,-10.38599967956543 5.2170000076293945,-8.444999694824219 5.2170000076293945,-8.444999694824219 C5.2170000076293945,-8.444999694824219 9.326000213623047,-3.7109999656677246 9.326000213623047,-3.7109999656677246 C9.326000213623047,-3.7109999656677246 10.041000366210938,4.928999900817871 10.041000366210938,4.928999900817871 C10.041000366210938,4.928999900817871 3.9660000801086426,10.385000228881836 3.9660000801086426,10.385000228881836 C3.9660000801086426,10.385000228881836 -7.974999904632568,7.703000068664551 -7.974999904632568,7.703000068664551 C-7.974999904632568,7.703000068664551 -10.039999961853027,3.5269999504089355 -10.039999961853027,3.5269999504089355z"></path></g><g opacity="1" transform="matrix(1,0,0,1,13.873000144958496,12.027000427246094)"><path fill="rgb(177,133,156)" fill-opacity="1" d=" M-6.144999980926514,-0.11800000071525574 C-6.144999980926514,-0.11800000071525574 -2.5439999103546143,-4.660999774932861 -2.5439999103546143,-4.660999774932861 C-2.5439999103546143,-4.660999774932861 0.23000000417232513,-6.7230000495910645 0.23000000417232513,-6.7230000495910645 C0.23000000417232513,-6.7230000495910645 3.4110000133514404,-4.410999774932861 3.4110000133514404,-4.410999774932861 C3.4110000133514404,-4.410999774932861 8.701000213623047,0.48399999737739563 8.701000213623047,0.48399999737739563 C8.701000213623047,0.48399999737739563 10.600000381469727,-2.9170000553131104 10.600000381469727,-2.9170000553131104 C10.600000381469727,-2.9170000553131104 4.2769999504089355,-8.567999839782715 4.2769999504089355,-8.567999839782715 C4.2769999504089355,-8.567999839782715 -5.435999870300293,-8.567999839782715 -5.435999870300293,-8.567999839782715 C-5.435999870300293,-8.567999839782715 -10.600000381469727,-0.6129999756813049 -10.600000381469727,-0.6129999756813049 C-10.600000381469727,-0.6129999756813049 -8.845999717712402,7.789999961853027 -8.845999717712402,7.789999961853027 C-8.845999717712402,7.789999961853027 -6.2769999504089355,8.567999839782715 -6.2769999504089355,8.567999839782715 C-6.2769999504089355,8.567999839782715 -6.144999980926514,-0.11800000071525574 -6.144999980926514,-0.11800000071525574z"></path></g><g opacity="1" transform="matrix(1,0,0,1,13.62600040435791,5.236999988555908)"><path fill="rgb(148,99,123)" fill-opacity="1" d=" M3.049999952316284,0.06499999761581421 C3.049999952316284,0.06499999761581421 3.6579999923706055,2.378000020980835 3.6579999923706055,2.378000020980835 C3.6579999923706055,2.378000020980835 -2.296999931335449,2.130000114440918 -2.296999931335449,2.130000114440918 C-2.296999931335449,2.130000114440918 -3.6579999923706055,0.07199999690055847 -3.6579999923706055,0.07199999690055847 C-3.6579999923706055,0.07199999690055847 -2.005000114440918,-2.378000020980835 -2.005000114440918,-2.378000020980835 C-2.005000114440918,-2.378000020980835 3.049999952316284,0.06499999761581421 3.049999952316284,0.06499999761581421z"></path></g><g opacity="1" transform="matrix(1,0,0,1,14.914999961853027,24.333999633789062)"><path fill="rgb(177,133,156)" fill-opacity="1" d=" M-13.043999671936035,-3.632999897003174 C-13.043999671936035,-3.632999897003174 -10.133000373840332,1.4240000247955322 -10.133000373840332,1.4240000247955322 C-10.133000373840332,1.4240000247955322 -3.5480000972747803,5.749000072479248 -3.5480000972747803,5.749000072479248 C-3.5480000972747803,5.749000072479248 1.628000020980835,3.9730000495910645 1.628000020980835,3.9730000495910645 C1.628000020980835,3.9730000495910645 7.230000019073486,5.054999828338623 7.230000019073486,5.054999828338623 C7.230000019073486,5.054999828338623 12.413000106811523,-0.7689999938011169 12.413000106811523,-0.7689999938011169 C12.413000106811523,-0.7689999938011169 13.043999671936035,-5.749000072479248 13.043999671936035,-5.749000072479248 C13.043999671936035,-5.749000072479248 2.065999984741211,0.5960000157356262 2.065999984741211,0.5960000157356262 C2.065999984741211,0.5960000157356262 -6.703999996185303,-1.6950000524520874 -6.703999996185303,-1.6950000524520874 C-6.703999996185303,-1.6950000524520874 -13.043999671936035,-3.632999897003174 -13.043999671936035,-3.632999897003174z"></path></g><g opacity="1" transform="matrix(1,0,0,1,16.54199981689453,27.20800018310547)"><path fill="rgb(148,99,123)" fill-opacity="1" d=" M-5.61899995803833,0.11699999868869781 C-5.61899995803833,0.11699999868869781 -5.175000190734863,2.874000072479248 -5.175000190734863,2.874000072479248 C-5.175000190734863,2.874000072479248 5.603000164031982,2.180000066757202 5.603000164031982,2.180000066757202 C5.603000164031982,2.180000066757202 5.61899995803833,-1.0290000438690186 5.61899995803833,-1.0290000438690186 C5.61899995803833,-1.0290000438690186 0.7419999837875366,-2.874000072479248 0.7419999837875366,-2.874000072479248 C0.7419999837875366,-2.874000072479248 -5.61899995803833,0.11699999868869781 -5.61899995803833,0.11699999868869781z"></path></g><g opacity="0.7000000000000001" transform="matrix(0.998270571231842,0,0,0.998270571231842,12.54699993133545,11.961999893188477)"><path fill="rgb(230,222,233)" fill-opacity="1" d=" M-1.8830000162124634,1.340000033378601 C-1.8830000162124634,1.340000033378601 -1.9639999866485596,-0.8610000014305115 -1.9639999866485596,-0.8610000014305115 C-1.9639999866485596,-0.8610000014305115 -0.5789999961853027,-2.1670000553131104 -0.5789999961853027,-2.1670000553131104 C-0.5789999961853027,-2.1670000553131104 1.6640000343322754,-1.4670000076293945 1.6640000343322754,-1.4670000076293945 C1.6640000343322754,-1.4670000076293945 1.965000033378601,0.7590000033378601 1.965000033378601,0.7590000033378601 C1.965000033378601,0.7590000033378601 0.5609999895095825,2.1670000553131104 0.5609999895095825,2.1670000553131104 C0.5609999895095825,2.1670000553131104 -1.8830000162124634,1.340000033378601 -1.8830000162124634,1.340000033378601z"></path></g><g opacity="1" transform="matrix(1,0,0,1,23.179000854492188,29.304000854492188)"><path fill="rgb(206,189,212)" fill-opacity="1" d=" M-1.0230000019073486,-2.2269999980926514 C-1.0230000019073486,-2.2269999980926514 -1.7430000305175781,-0.6909999847412109 -1.7430000305175781,-0.6909999847412109 C-1.7430000305175781,-0.6909999847412109 0.2919999957084656,2.2269999980926514 0.2919999957084656,2.2269999980926514 C0.2919999957084656,2.2269999980926514 1.7430000305175781,1.2769999504089355 1.7430000305175781,1.2769999504089355 C1.7430000305175781,1.2769999504089355 -1.0230000019073486,-2.2269999980926514 -1.0230000019073486,-2.2269999980926514z"></path></g><g opacity="1" transform="matrix(1,0,0,1,23.9689998626709,28.856000900268555)"><path fill="rgb(171,143,183)" fill-opacity="1" d=" M-1.812000036239624,-1.7790000438690186 C-1.812000036239624,-1.7790000438690186 -0.45899999141693115,-1.9190000295639038 -0.45899999141693115,-1.9190000295639038 C-0.45899999141693115,-1.9190000295639038 1.812000036239624,1.1050000190734863 1.812000036239624,1.1050000190734863 C1.812000036239624,1.1050000190734863 0.5040000081062317,1.9190000295639038 0.5040000081062317,1.9190000295639038 C0.5040000081062317,1.9190000295639038 -1.812000036239624,-1.7790000438690186 -1.812000036239624,-1.7790000438690186z"></path></g><g opacity="1" transform="matrix(1,0,0,1,25.288000106811523,34.21699905395508)"><path fill="rgb(158,128,172)" fill-opacity="1" d=" M-1.5180000066757202,-4.565000057220459 C-1.5180000066757202,-4.565000057220459 -3.1429998874664307,-1.9500000476837158 -3.1429998874664307,-1.9500000476837158 C-3.1429998874664307,-1.9500000476837158 1.2120000123977661,4.565000057220459 1.2120000123977661,4.565000057220459 C1.2120000123977661,4.565000057220459 3.1429998874664307,2.2260000705718994 3.1429998874664307,2.2260000705718994 C3.1429998874664307,2.2260000705718994 1.9559999704360962,-1.312999963760376 1.9559999704360962,-1.312999963760376 C1.9559999704360962,-1.312999963760376 -1.5180000066757202,-4.565000057220459 -1.5180000066757202,-4.565000057220459z"></path></g><g opacity="1" transform="matrix(1,0,0,1,27.608999252319336,32.777000427246094)"><path fill="rgb(134,97,153)" fill-opacity="1" d=" M-3.8389999866485596,-3.125 C-3.8389999866485596,-3.125 -0.9430000185966492,-3.6659998893737793 -0.9430000185966492,-3.6659998893737793 C-0.9430000185966492,-3.6659998893737793 3.8399999141693115,2.615999937057495 3.8399999141693115,2.615999937057495 C3.8399999141693115,2.615999937057495 0.8220000267028809,3.6659998893737793 0.8220000267028809,3.6659998893737793 C0.8220000267028809,3.6659998893737793 -3.8389999866485596,-3.125 -3.8389999866485596,-3.125z"></path></g><g opacity="1" transform="matrix(1,0,0,1,6.392000198364258,15.4350004196167)"><path fill="rgb(148,99,123)" fill-opacity="1" d=" M1.3370000123977661,-3.5250000953674316 C1.3370000123977661,-3.5250000953674316 2.371000051498413,5.51200008392334 2.371000051498413,5.51200008392334 C2.371000051498413,5.51200008392334 -2,3.4860000610351562 -2,3.4860000610351562 C-2,3.4860000610351562 -2.371000051498413,-5.51200008392334 -2.371000051498413,-5.51200008392334 C-2.371000051498413,-5.51200008392334 -0.8519999980926514,-4.702000141143799 -0.8519999980926514,-4.702000141143799 C-0.8519999980926514,-4.702000141143799 1.3370000123977661,-3.5250000953674316 1.3370000123977661,-3.5250000953674316z"></path></g><g opacity="1" transform="matrix(1,0,0,1,14.104000091552734,13.788000106811523)"><path fill="rgb(209,160,184)" fill-opacity="1" d=" M13.079999923706055,-6.547999858856201 C13.079999923706055,-6.547999858856201 5.318999767303467,-13.305000305175781 5.318999767303467,-13.305000305175781 C5.318999767303467,-13.305000305175781 -6.52400016784668,-13.538000106811523 -6.52400016784668,-13.538000106811523 C-6.52400016784668,-13.538000106811523 -13.854000091552734,-4.577000141143799 -13.854000091552734,-4.577000141143799 C-13.854000091552734,-4.577000141143799 -12.232000350952148,6.913000106811523 -12.232000350952148,6.913000106811523 C-12.232000350952148,6.913000106811523 -3.180999994277954,13.538000106811523 -3.180999994277954,13.538000106811523 C-3.180999994277954,13.538000106811523 8.057999610900879,12.390999794006348 8.057999610900879,12.390999794006348 C8.057999610900879,12.390999794006348 13.854000091552734,4.797999858856201 13.854000091552734,4.797999858856201 C13.854000091552734,4.797999858856201 13.079999923706055,-6.547999858856201 13.079999923706055,-6.547999858856201z M5.079999923706055,7.159999847412109 C5.079999923706055,7.159999847412109 -1.9900000095367432,7.926000118255615 -1.9900000095367432,7.926000118255615 C-1.9900000095367432,7.926000118255615 -7.5929999351501465,3.9230000972747803 -7.5929999351501465,3.9230000972747803 C-7.5929999351501465,3.9230000972747803 -8.5649995803833,-3.055000066757202 -8.5649995803833,-3.055000066757202 C-8.5649995803833,-3.055000066757202 -4.136000156402588,-8.479999542236328 -4.136000156402588,-8.479999542236328 C-4.136000156402588,-8.479999542236328 2.572000026702881,-8.486000061035156 2.572000026702881,-8.486000061035156 C2.572000026702881,-8.486000061035156 7.494999885559082,-4.697000026702881 7.494999885559082,-4.697000026702881 C7.494999885559082,-4.697000026702881 8.677000045776367,2.6019999980926514 8.677000045776367,2.6019999980926514 C8.677000045776367,2.6019999980926514 5.079999923706055,7.159999847412109 5.079999923706055,7.159999847412109z"></path></g></g></g><g transform="matrix(1.0008699893951416,0,0,1.0008699893951416,99.83753967285156,62.915184020996094)" opacity="1" style="display: block;"><g opacity="1" transform="matrix(1,0,0,1,0,0)"><g opacity="1" transform="matrix(1,0,0,1,3.496000051498413,38.292999267578125)"><path fill="rgb(116,82,131)" fill-opacity="1" d=" M-2.6559998989105225,-2.4100000858306885 C-2.6559998989105225,-2.4100000858306885 -3.246000051498413,0.6039999723434448 -3.246000051498413,0.6039999723434448 C-3.246000051498413,0.6039999723434448 1.4500000476837158,2.4100000858306885 1.4500000476837158,2.4100000858306885 C1.4500000476837158,2.4100000858306885 3.246000051498413,-1.9129999876022339 3.246000051498413,-1.9129999876022339 C3.246000051498413,-1.9129999876022339 -2.6559998989105225,-2.4100000858306885 -2.6559998989105225,-2.4100000858306885z"></path></g><g opacity="1" transform="matrix(1,0,0,1,13.984000205993652,20.645000457763672)"><path fill="rgb(177,133,156)" fill-opacity="1" d=" M9.812999725341797,-9.673999786376953 C9.812999725341797,-9.673999786376953 8.043000221252441,-2.2899999618530273 8.043000221252441,-2.2899999618530273 C8.043000221252441,-2.2899999618530273 2.7850000858306885,4.363999843597412 2.7850000858306885,4.363999843597412 C2.7850000858306885,4.363999843597412 1.253000020980835,2.7300000190734863 1.253000020980835,2.7300000190734863 C1.253000020980835,2.7300000190734863 -1.0440000295639038,3.9560000896453857 -1.0440000295639038,3.9560000896453857 C-1.0440000295639038,3.9560000896453857 -5.179999828338623,9.673999786376953 -5.179999828338623,9.673999786376953 C-5.179999828338623,9.673999786376953 -8.39799976348877,8.055000305175781 -8.39799976348877,8.055000305175781 C-8.39799976348877,8.055000305175781 -9.812999725341797,5.0920000076293945 -9.812999725341797,5.0920000076293945 C-9.812999725341797,5.0920000076293945 -3.6989998817443848,-2.2899999618530273 -3.6989998817443848,-2.2899999618530273 C-3.6989998817443848,-2.2899999618530273 2.2739999294281006,-4.980000019073486 2.2739999294281006,-4.980000019073486 C2.2739999294281006,-4.980000019073486 9.812999725341797,-9.673999786376953 9.812999725341797,-9.673999786376953z"></path></g><g opacity="1" transform="matrix(1,0,0,1,11.847999572753906,7.22599983215332)"><path fill="rgb(177,133,156)" fill-opacity="1" d=" M-7.168000221252441,-5.0229997634887695 C-7.168000221252441,-5.0229997634887695 -7.168000221252441,0.4749999940395355 -7.168000221252441,0.4749999940395355 C-7.168000221252441,0.4749999940395355 -5.39900016784668,5.0229997634887695 -5.39900016784668,5.0229997634887695 C-5.39900016784668,5.0229997634887695 0.4790000021457672,3.26200008392334 0.4790000021457672,3.26200008392334 C0.4790000021457672,3.26200008392334 6.0960001945495605,4.929999828338623 6.0960001945495605,4.929999828338623 C6.0960001945495605,4.929999828338623 7.168000221252441,1.5980000495910645 7.168000221252441,1.5980000495910645 C7.168000221252441,1.5980000495910645 3.3389999866485596,-3.1500000953674316 3.3389999866485596,-3.1500000953674316 C3.3389999866485596,-3.1500000953674316 -7.168000221252441,-5.0229997634887695 -7.168000221252441,-5.0229997634887695z"></path></g><g opacity="1" transform="matrix(1,0,0,1,15.67199993133545,10.388999938964844)"><path fill="rgb(148,99,123)" fill-opacity="1" d=" M-2.424999952316284,-3.6419999599456787 C-2.424999952316284,-3.6419999599456787 -3.3440001010894775,0.0989999994635582 -3.3440001010894775,0.0989999994635582 C-3.3440001010894775,0.0989999994635582 1.0460000038146973,3.6419999599456787 1.0460000038146973,3.6419999599456787 C1.0460000038146973,3.6419999599456787 3.3440001010894775,-1.1480000019073486 3.3440001010894775,-1.1480000019073486 C3.3440001010894775,-1.1480000019073486 -2.424999952316284,-3.6419999599456787 -2.424999952316284,-3.6419999599456787z"></path></g><g opacity="1" transform="matrix(1,0,0,1,5.585999965667725,7.2270002365112305)"><path fill="rgb(148,99,123)" fill-opacity="1" d=" M1.5889999866485596,1.5959999561309814 C1.5889999866485596,1.5959999561309814 0.8619999885559082,5.0229997634887695 0.8619999885559082,5.0229997634887695 C0.8619999885559082,5.0229997634887695 -2.0369999408721924,0.6729999780654907 -2.0369999408721924,0.6729999780654907 C-2.0369999408721924,0.6729999780654907 -2.2990000247955322,-5.0229997634887695 -2.2990000247955322,-5.0229997634887695 C-2.2990000247955322,-5.0229997634887695 2.2990000247955322,-2.180000066757202 2.2990000247955322,-2.180000066757202 C2.2990000247955322,-2.180000066757202 1.5889999866485596,1.5959999561309814 1.5889999866485596,1.5959999561309814z"></path></g><g opacity="1" transform="matrix(1,0,0,1,14.845999717712402,21.91900062561035)"><path fill="rgb(148,99,123)" fill-opacity="1" d=" M2.688999891281128,-1.440999984741211 C2.688999891281128,-1.440999984741211 1.9229999780654907,3.0889999866485596 1.9229999780654907,3.0889999866485596 C1.9229999780654907,3.0889999866485596 -1.906000018119812,2.680000066757202 -1.906000018119812,2.680000066757202 C-1.906000018119812,2.680000066757202 -2.688999891281128,-1.440999984741211 -2.688999891281128,-1.440999984741211 C-2.688999891281128,-1.440999984741211 0.0010000000474974513,-3.0889999866485596 0.0010000000474974513,-3.0889999866485596 C0.0010000000474974513,-3.0889999866485596 2.688999891281128,-1.440999984741211 2.688999891281128,-1.440999984741211z"></path></g><g opacity="1" transform="matrix(1,0,0,1,6.486999988555908,27.663000106811523)"><path fill="rgb(148,99,123)" fill-opacity="1" d=" M1.6540000438690186,-0.968999981880188 C1.6540000438690186,-0.968999981880188 2.315999984741211,2.6549999713897705 2.315999984741211,2.6549999713897705 C2.315999984741211,2.6549999713897705 -1.4259999990463257,1.7630000114440918 -1.4259999990463257,1.7630000114440918 C-1.4259999990463257,1.7630000114440918 -2.315999984741211,-1.9259999990463257 -2.315999984741211,-1.9259999990463257 C-2.315999984741211,-1.9259999990463257 0.25600001215934753,-2.6549999713897705 0.25600001215934753,-2.6549999713897705 C0.25600001215934753,-2.6549999713897705 1.6540000438690186,-0.968999981880188 1.6540000438690186,-0.968999981880188z"></path></g><g opacity="1" transform="matrix(1,0,0,1,13.541999816894531,13.472000122070312)"><path fill="rgb(209,160,184)" fill-opacity="1" d=" M-10.255000114440918,-11.267999649047852 C-10.255000114440918,-11.267999649047852 2.9719998836517334,-13.222000122070312 2.9719998836517334,-13.222000122070312 C2.9719998836517334,-13.222000122070312 10.255000114440918,-2.500999927520752 10.255000114440918,-2.500999927520752 C10.255000114440918,-2.500999927520752 3.992000102996826,7.006999969482422 3.992000102996826,7.006999969482422 C3.992000102996826,7.006999969482422 -1.3849999904632568,7.006999969482422 -1.3849999904632568,7.006999969482422 C-1.3849999904632568,7.006999969482422 -5.401000022888184,13.222000122070312 -5.401000022888184,13.222000122070312 C-5.401000022888184,13.222000122070312 -9.371000289916992,12.265000343322754 -9.371000289916992,12.265000343322754 C-9.371000289916992,12.265000343322754 -5.901000022888184,2.63100004196167 -5.901000022888184,2.63100004196167 C-5.901000022888184,2.63100004196167 0.6959999799728394,1.2580000162124634 0.6959999799728394,1.2580000162124634 C0.6959999799728394,1.2580000162124634 3.447999954223633,-4.230000019073486 3.447999954223633,-4.230000019073486 C3.447999954223633,-4.230000019073486 -0.29600000381469727,-6.724999904632568 -0.29600000381469727,-6.724999904632568 C-0.29600000381469727,-6.724999904632568 -6.367000102996826,-4.64900016784668 -6.367000102996826,-4.64900016784668 C-6.367000102996826,-4.64900016784668 -10.255000114440918,-11.267999649047852 -10.255000114440918,-11.267999649047852z"></path></g><g opacity="1" transform="matrix(1,0,0,1,6.645999908447266,36.76100158691406)"><path fill="rgb(134,97,153)" fill-opacity="1" d=" M1.2389999628067017,-3.940999984741211 C1.2389999628067017,-3.940999984741211 1.6990000009536743,0.24500000476837158 1.6990000009536743,0.24500000476837158 C1.6990000009536743,0.24500000476837158 -1.6990000009536743,3.940999984741211 -1.6990000009536743,3.940999984741211 C-1.6990000009536743,3.940999984741211 -1.3589999675750732,0.6019999980926514 -1.3589999675750732,0.6019999980926514 C-1.3589999675750732,0.6019999980926514 -1.059999942779541,-1.2860000133514404 -1.059999942779541,-1.2860000133514404 C-1.059999942779541,-1.2860000133514404 1.2389999628067017,-3.940999984741211 1.2389999628067017,-3.940999984741211z"></path></g><g opacity="1" transform="matrix(1,0,0,1,4.361999988555908,34.198001861572266)"><path fill="rgb(158,128,172)" fill-opacity="1" d=" M-1.6729999780654907,-3.1649999618530273 C-1.6729999780654907,-3.1649999618530273 3.5230000019073486,-1.378000020980835 3.5230000019073486,-1.378000020980835 C3.5230000019073486,-1.378000020980835 0.9259999990463257,3.1649999618530273 0.9259999990463257,3.1649999618530273 C0.9259999990463257,3.1649999618530273 -3.5230000019073486,1.6859999895095825 -3.5230000019073486,1.6859999895095825 C-3.5230000019073486,1.6859999895095825 -1.6729999780654907,-3.1649999618530273 -1.6729999780654907,-3.1649999618530273z"></path></g></g></g><g transform="matrix(1.0004347562789917,0.0007595385541208088,-0.0007595385541208088,1.0004347562789917,44.15492248535156,12.281402587890625)" opacity="1" style="display: block;"><g opacity="1" transform="matrix(1,0,0,1,20.871999740600586,94.03199768066406)"><path fill="rgb(194,175,202)" fill-opacity="1" d=" M16.060749053955078,-14.867183685302734 C16.060749053955078,-14.867183685302734 17.343780517578125,-8.33021354675293 17.343780517578125,-8.33021354675293 C17.343780517578125,-8.33021354675293 13.31861686706543,-2.293668746948242 13.31861686706543,-2.293668746948242 C13.31861686706543,-2.293668746948242 9.763917922973633,-8.093485832214355 9.763917922973633,-8.093485832214355 C9.763917922973633,-8.093485832214355 10.464948654174805,-13.222485542297363 10.464948654174805,-13.222485542297363 C10.464948654174805,-13.222485542297363 16.060749053955078,-14.867183685302734 16.060749053955078,-14.867183685302734z M-16.050457000732422,-14.871506690979004 C-16.050457000732422,-14.871506690979004 -17.333477020263672,-8.327507019042969 -17.333477020263672,-8.327507019042969 C-17.333477020263672,-8.327507019042969 -13.304535865783691,-2.2942135334014893 -13.304535865783691,-2.2942135334014893 C-13.304535865783691,-2.2942135334014893 -9.7509183883667,-8.101051330566406 -9.7509183883667,-8.101051330566406 C-9.7509183883667,-8.101051330566406 -10.449867248535156,-13.225183486938477 -10.449867248535156,-13.225183486938477 C-10.449867248535156,-13.225183486938477 -16.050457000732422,-14.871506690979004 -16.050457000732422,-14.871506690979004z M3.4214560985565186,-5.7704854011535645 C3.4214560985565186,-5.7704854011535645 0.7990000247955322,-5.763999938964844 0.7990000247955322,-5.763999938964844 C0.7990000247955322,-5.763999938964844 0,-1.7380000352859497 0,-1.7380000352859497 C0,-1.7380000352859497 -0.7990000247955322,-5.763999938964844 -0.7990000247955322,-5.763999938964844 C-0.7990000247955322,-5.763999938964844 -3.4214560985565186,-5.768868446350098 -3.4214560985565186,-5.768868446350098 C-3.4214560985565186,-5.768868446350098 -4.7213969230651855,-1.0399999618530273 -4.7213969230651855,-1.0399999618530273 C-4.7213969230651855,-1.0399999618530273 0.0037874721456319094,5.780213356018066 0.0037874721456319094,5.780213356018066 C0.0037874721456319094,5.780213356018066 4.7241034507751465,-1.048111081123352 4.7241034507751465,-1.048111081123352 C4.7241034507751465,-1.048111081123352 3.4214560985565186,-5.7704854011535645 3.4214560985565186,-5.7704854011535645z"></path></g><g opacity="1" transform="matrix(1,0,0,1,20.871999740600586,93.07499694824219)"><path fill="rgb(158,128,172)" fill-opacity="1" d=" M12.249463081359863,-8.850080490112305 C12.249463081359863,-8.850080490112305 12.850242614746094,-4.858911514282227 12.850242614746094,-4.858911514282227 C12.850242614746094,-4.858911514282227 15.74156665802002,-8.225425720214844 15.74156665802002,-8.225425720214844 C15.74156665802002,-8.225425720214844 13.395999908447266,-12.548999786376953 13.395999908447266,-12.548999786376953 C13.395999908447266,-12.548999786376953 12.249463081359863,-8.850080490112305 12.249463081359863,-8.850080490112305z M-12.238080024719238,-8.85440444946289 C-12.238080024719238,-8.85440444946289 -12.838778495788574,-4.855132579803467 -12.838778495788574,-4.855132579803467 C-12.838778495788574,-4.855132579803467 -15.730183601379395,-8.227587699890137 -15.730183601379395,-8.227587699890137 C-15.730183601379395,-8.227587699890137 -13.390565872192383,-12.552779197692871 -13.390565872192383,-12.552779197692871 C-13.390565872192383,-12.552779197692871 -12.238080024719238,-8.85440444946289 -12.238080024719238,-8.85440444946289z M1.4657496213912964,-2.5138392448425293 C1.4657496213912964,-2.5138392448425293 0.7990000247955322,-3.2070000171661377 0.7990000247955322,-3.2070000171661377 C0.7990000247955322,-3.2070000171661377 -0.0010000000474974513,-0.781000018119812 -0.0010000000474974513,-0.781000018119812 C-0.0010000000474974513,-0.781000018119812 -0.7990000247955322,-3.2070000171661377 -0.7990000247955322,-3.2070000171661377 C-0.7990000247955322,-3.2070000171661377 -1.463051676750183,-2.5051920413970947 -1.463051676750183,-2.5051920413970947 C-1.463051676750183,-2.5051920413970947 -2.500213384628296,0.07372713088989258 -2.500213384628296,0.07372713088989258 C-2.500213384628296,0.07372713088989258 0.0017065724823623896,3.2075448036193848 0.0017065724823623896,3.2075448036193848 C0.0017065724823623896,3.2075448036193848 2.5012943744659424,0.06724173575639725 2.5012943744659424,0.06724173575639725 C2.5012943744659424,0.06724173575639725 1.4657496213912964,-2.5138392448425293 1.4657496213912964,-2.5138392448425293z"></path></g><g opacity="1" transform="matrix(1,0,0,1,12.64900016784668,71.7770004272461)"><path fill="rgb(115,78,97)" fill-opacity="1" d=" M-4.046999931335449,12.449999809265137 C-4.046999931335449,12.449999809265137 8.222999572753906,4.610000133514404 8.222999572753906,4.610000133514404 C8.222999572753906,4.610000133514404 -7.2179999351501465,-12.449999809265137 -7.2179999351501465,-12.449999809265137 C-7.2179999351501465,-12.449999809265137 -8.222999572753906,-0.8970000147819519 -8.222999572753906,-0.8970000147819519 C-8.222999572753906,-0.8970000147819519 -4.046999931335449,12.449999809265137 -4.046999931335449,12.449999809265137z"></path></g><g opacity="1" transform="matrix(1,0,0,1,4.426000118255615,73.80000305175781)"><path fill="rgb(177,133,156)" fill-opacity="1" d=" M4.176000118255615,-9.142000198364258 C4.176000118255615,-9.142000198364258 0,-10.425999641418457 0,-10.425999641418457 C0,-10.425999641418457 -3.0840001106262207,-9.072999954223633 -3.0840001106262207,-9.072999954223633 C-3.0840001106262207,-9.072999954223633 -4.176000118255615,4.610000133514404 -4.176000118255615,4.610000133514404 C-4.176000118255615,4.610000133514404 4.176000118255615,10.425999641418457 4.176000118255615,10.425999641418457 C4.176000118255615,10.425999641418457 3.421999931335449,4.5 3.421999931335449,4.5 C3.421999931335449,4.5 4.176000118255615,-9.142000198364258 4.176000118255615,-9.142000198364258z"></path></g><g opacity="1" transform="matrix(1,0,0,1,4.386000156402588,63.374000549316406)"><path fill="rgb(209,160,184)" fill-opacity="1" d=" M-3.0439999103546143,1.3539999723434448 C-3.0439999103546143,1.3539999723434448 2.0759999752044678,4.046999931335449 2.0759999752044678,4.046999931335449 C2.0759999752044678,4.046999931335449 3.0439999103546143,0 3.0439999103546143,0 C3.0439999103546143,0 1.0449999570846558,-4.046999931335449 1.0449999570846558,-4.046999931335449 C1.0449999570846558,-4.046999931335449 -3.0439999103546143,1.3539999723434448 -3.0439999103546143,1.3539999723434448z"></path></g><g opacity="1" transform="matrix(1,0,0,1,29.094999313354492,71.7770004272461)"><path fill="rgb(115,78,97)" fill-opacity="1" d=" M4.046999931335449,12.449999809265137 C4.046999931335449,12.449999809265137 -8.222999572753906,4.610000133514404 -8.222999572753906,4.610000133514404 C-8.222999572753906,4.610000133514404 7.2179999351501465,-12.449999809265137 7.2179999351501465,-12.449999809265137 C7.2179999351501465,-12.449999809265137 8.222999572753906,-0.8970000147819519 8.222999572753906,-0.8970000147819519 C8.222999572753906,-0.8970000147819519 4.046999931335449,12.449999809265137 4.046999931335449,12.449999809265137z"></path></g><g opacity="1" transform="matrix(1,0,0,1,37.31800079345703,73.80000305175781)"><path fill="rgb(148,99,123)" fill-opacity="1" d=" M-4.176000118255615,-9.142000198364258 C-4.176000118255615,-9.142000198364258 0,-10.425999641418457 0,-10.425999641418457 C0,-10.425999641418457 3.0840001106262207,-9.072999954223633 3.0840001106262207,-9.072999954223633 C3.0840001106262207,-9.072999954223633 4.176000118255615,4.610000133514404 4.176000118255615,4.610000133514404 C4.176000118255615,4.610000133514404 -4.176000118255615,10.425999641418457 -4.176000118255615,10.425999641418457 C-4.176000118255615,10.425999641418457 -3.4210000038146973,4.5 -3.4210000038146973,4.5 C-3.4210000038146973,4.5 -4.176000118255615,-9.142000198364258 -4.176000118255615,-9.142000198364258z"></path></g><g opacity="1" transform="matrix(1,0,0,1,37.356998443603516,63.374000549316406)"><path fill="rgb(177,133,156)" fill-opacity="1" d=" M3.0450000762939453,1.3539999723434448 C3.0450000762939453,1.3539999723434448 -2.0759999752044678,4.046999931335449 -2.0759999752044678,4.046999931335449 C-2.0759999752044678,4.046999931335449 -3.0450000762939453,0 -3.0450000762939453,0 C-3.0450000762939453,0 -1.0449999570846558,-4.046999931335449 -1.0449999570846558,-4.046999931335449 C-1.0449999570846558,-4.046999931335449 3.0450000762939453,1.3539999723434448 3.0450000762939453,1.3539999723434448z"></path></g><g opacity="1" transform="matrix(1,0,0,1,13.387999534606934,46.111000061035156)"><path fill="rgb(218,206,223)" fill-opacity="1" d=" M8.322999954223633,-40.375 C8.322999954223633,-40.375 11.109000205993652,-7.228000164031982 11.109000205993652,-7.228000164031982 C11.109000205993652,-7.228000164031982 7.484000205993652,40.375 7.484000205993652,40.375 C7.484000205993652,40.375 -2.046999931335449,26.795000076293945 -2.046999931335449,26.795000076293945 C-2.046999931335449,26.795000076293945 -11.109000205993652,-11.675999641418457 -11.109000205993652,-11.675999641418457 C-11.109000205993652,-11.675999641418457 -5.958000183105469,-21.14699935913086 -5.958000183105469,-21.14699935913086 C-5.958000183105469,-21.14699935913086 8.322999954223633,-40.375 8.322999954223633,-40.375z"></path></g><g opacity="1" transform="matrix(1,0,0,1,30.167999267578125,47.4370002746582)"><path fill="rgb(182,159,192)" fill-opacity="1" d=" M-7.498000144958496,-39.04999923706055 C-7.498000144958496,-39.04999923706055 -9.295999526977539,-18.965999603271484 -9.295999526977539,-18.965999603271484 C-9.295999526977539,-18.965999603271484 -9.295999526977539,39.04999923706055 -9.295999526977539,39.04999923706055 C-9.295999526977539,39.04999923706055 0.16899999976158142,28.485000610351562 0.16899999976158142,28.485000610351562 C0.16899999976158142,28.485000610351562 9.295999526977539,-13.001999855041504 9.295999526977539,-13.001999855041504 C9.295999526977539,-13.001999855041504 4.144999980926514,-22.472999572753906 4.144999980926514,-22.472999572753906 C4.144999980926514,-22.472999572753906 -7.498000144958496,-39.04999923706055 -7.498000144958496,-39.04999923706055z"></path></g><g opacity="1" transform="matrix(1,0,0,1,16.81999969482422,12.097000122070312)"><path fill="rgb(147,112,162)" fill-opacity="1" d=" M4.052000045776367,-11.847999572753906 C4.052000045776367,-11.847999572753906 -6.085000038146973,6.789999961853027 -6.085000038146973,6.789999961853027 C-6.085000038146973,6.789999961853027 4.330999851226807,11.847999572753906 4.330999851226807,11.847999572753906 C4.330999851226807,11.847999572753906 6.085000038146973,1.4539999961853027 6.085000038146973,1.4539999961853027 C6.085000038146973,1.4539999961853027 4.052000045776367,-11.847999572753906 4.052000045776367,-11.847999572753906z"></path></g><g opacity="1" transform="matrix(1,0,0,1,25.940000534057617,11.378999710083008)"><path fill="rgb(129,93,145)" fill-opacity="1" d=" M-5.067999839782715,-11.128999710083008 C-5.067999839782715,-11.128999710083008 5.067999839782715,7.508999824523926 5.067999839782715,7.508999824523926 C5.067999839782715,7.508999824523926 0.8399999737739563,11.128999710083008 0.8399999737739563,11.128999710083008 C0.8399999737739563,11.128999710083008 -5.067999839782715,11.128999710083008 -5.067999839782715,11.128999710083008 C-5.067999839782715,11.128999710083008 -5.067999839782715,-11.128999710083008 -5.067999839782715,-11.128999710083008z"></path></g><g opacity="1" transform="matrix(1,0,0,1,15.135000228881836,23.679000854492188)"><path fill="rgb(209,160,184)" fill-opacity="1" d=" M-7.703999996185303,1.284000039100647 C-7.703999996185303,1.284000039100647 5.736000061035156,4.791999816894531 5.736000061035156,4.791999816894531 C5.736000061035156,4.791999816894531 7.703999996185303,1.1100000143051147 7.703999996185303,1.1100000143051147 C7.703999996185303,1.1100000143051147 5.736000061035156,-1.1720000505447388 5.736000061035156,-1.1720000505447388 C5.736000061035156,-1.1720000505447388 -4.400000095367432,-4.791999816894531 -4.400000095367432,-4.791999816894531 C-4.400000095367432,-4.791999816894531 -7.703999996185303,1.284000039100647 -7.703999996185303,1.284000039100647z"></path></g><g opacity="1" transform="matrix(1,0,0,1,27.591999053955078,23.679000854492188)"><path fill="rgb(148,99,123)" fill-opacity="1" d=" M6.7210001945495605,1.284000039100647 C6.7210001945495605,1.284000039100647 -6.7210001945495605,4.791999816894531 -6.7210001945495605,4.791999816894531 C-6.7210001945495605,4.791999816894531 -6.7210001945495605,-1.1720000505447388 -6.7210001945495605,-1.1720000505447388 C-6.7210001945495605,-1.1720000505447388 3.4149999618530273,-4.791999816894531 3.4149999618530273,-4.791999816894531 C3.4149999618530273,-4.791999816894531 6.7210001945495605,1.284000039100647 6.7210001945495605,1.284000039100647z"></path></g><g opacity="1" transform="matrix(1,0,0,1,17.5049991607666,24.48900032043457)"><path fill="rgb(250,249,250)" fill-opacity="1" d=" M-1.2419999837875366,-0.21899999678134918 C-1.2419999837875366,-0.21899999678134918 0.3160000145435333,-1.340000033378601 0.3160000145435333,-1.340000033378601 C0.3160000145435333,-1.340000033378601 1.2419999837875366,0.4959999918937683 1.2419999837875366,0.4959999918937683 C1.2419999837875366,0.4959999918937683 -0.4620000123977661,1.340000033378601 -0.4620000123977661,1.340000033378601 C-0.4620000123977661,1.340000033378601 -1.2419999837875366,-0.21899999678134918 -1.2419999837875366,-0.21899999678134918z"></path></g><g opacity="1" transform="matrix(1,0,0,1,12.5600004196167,23.03499984741211)"><path fill="rgb(250,249,250)" fill-opacity="1" d=" M0.30799999833106995,-1.2339999675750732 C0.30799999833106995,-1.2339999675750732 1.218000054359436,0.4869999885559082 1.218000054359436,0.4869999885559082 C1.218000054359436,0.4869999885559082 -0.3089999854564667,1.2339999675750732 -0.3089999854564667,1.2339999675750732 C-0.3089999854564667,1.2339999675750732 -1.218000054359436,-0.22699999809265137 -1.218000054359436,-0.22699999809265137 C-1.218000054359436,-0.22699999809265137 0.30799999833106995,-1.2339999675750732 0.30799999833106995,-1.2339999675750732z"></path></g><g opacity="1" transform="matrix(1,0,0,1,24.773000717163086,24.10700035095215)"><path fill="rgb(218,206,223)" fill-opacity="1" d=" M-1.152999997138977,0.421999990940094 C-1.152999997138977,0.421999990940094 -0.17900000512599945,-1.3320000171661377 -0.17900000512599945,-1.3320000171661377 C-0.17900000512599945,-1.3320000171661377 1.152999997138977,-0.16200000047683716 1.152999997138977,-0.16200000047683716 C1.152999997138977,-0.16200000047683716 0.503000020980835,1.3320000171661377 0.503000020980835,1.3320000171661377 C0.503000020980835,1.3320000171661377 -1.152999997138977,0.421999990940094 -1.152999997138977,0.421999990940094z"></path></g><g opacity="1" transform="matrix(1,0,0,1,29.385000228881836,22.905000686645508)"><path fill="rgb(218,206,223)" fill-opacity="1" d=" M-1.152999997138977,0.3240000009536743 C-1.152999997138977,0.3240000009536743 -0.4059999883174896,-1.3650000095367432 -0.4059999883174896,-1.3650000095367432 C-0.4059999883174896,-1.3650000095367432 1.152999997138977,-0.4880000054836273 1.152999997138977,-0.4880000054836273 C1.152999997138977,-0.4880000054836273 0.5350000262260437,1.3650000095367432 0.5350000262260437,1.3650000095367432 C0.5350000262260437,1.3650000095367432 -1.152999997138977,0.3240000009536743 -1.152999997138977,0.3240000009536743z"></path></g><g opacity="1" transform="matrix(1,0,0,1,15.494000434875488,44.402000427246094)"><path fill="rgb(250,249,250)" fill-opacity="1" d=" M5.379000186920166,-11.440999984741211 C5.379000186920166,-11.440999984741211 -6.890999794006348,1.0240000486373901 -6.890999794006348,1.0240000486373901 C-6.890999794006348,1.0240000486373901 5.379000186920166,11.440999984741211 5.379000186920166,11.440999984741211 C5.379000186920166,11.440999984741211 6.890999794006348,-0.5789999961853027 6.890999794006348,-0.5789999961853027 C6.890999794006348,-0.5789999961853027 5.379000186920166,-11.440999984741211 5.379000186920166,-11.440999984741211z"></path></g><g opacity="1" transform="matrix(1,0,0,1,27.006999969482422,44.402000427246094)"><path fill="rgb(218,206,223)" fill-opacity="1" d=" M-6.135000228881836,-11.440999984741211 C-6.135000228881836,-11.440999984741211 6.135000228881836,1.0240000486373901 6.135000228881836,1.0240000486373901 C6.135000228881836,1.0240000486373901 -6.135000228881836,11.440999984741211 -6.135000228881836,11.440999984741211 C-6.135000228881836,11.440999984741211 -6.135000228881836,-11.440999984741211 -6.135000228881836,-11.440999984741211z"></path></g><g opacity="1" transform="matrix(1,0,0,1,11.576000213623047,50.59400177001953)"><path fill="rgb(195,175,202)" fill-opacity="1" d=" M-9.295999526977539,-16.15999984741211 C-9.295999526977539,-16.15999984741211 9.295999526977539,16.15999984741211 9.295999526977539,16.15999984741211 C9.295999526977539,16.15999984741211 2.2019999027252197,16.15999984741211 2.2019999027252197,16.15999984741211 C2.2019999027252197,16.15999984741211 -6.144999980926514,8.732000350952148 -6.144999980926514,8.732000350952148 C-6.144999980926514,8.732000350952148 -9.295999526977539,-16.15999984741211 -9.295999526977539,-16.15999984741211z"></path></g><g opacity="1" transform="matrix(1,0,0,1,30.167999267578125,50.59400177001953)"><path fill="rgb(158,128,172)" fill-opacity="1" d=" M9.295999526977539,-16.15999984741211 C9.295999526977539,-16.15999984741211 -9.295999526977539,16.15999984741211 -9.295999526977539,16.15999984741211 C-9.295999526977539,16.15999984741211 -0.7839999794960022,16.15999984741211 -0.7839999794960022,16.15999984741211 C-0.7839999794960022,16.15999984741211 6.144999980926514,8.732000350952148 6.144999980926514,8.732000350952148 C6.144999980926514,8.732000350952148 9.295999526977539,-16.15999984741211 9.295999526977539,-16.15999984741211z"></path></g><g opacity="1" transform="matrix(1,0,0,1,14.524999618530273,72.90599822998047)"><path fill="rgb(147,112,162)" fill-opacity="1" d=" M-9.093999862670898,-13.579999923706055 C-9.093999862670898,-13.579999923706055 6.3470001220703125,-6.1519999504089355 6.3470001220703125,-6.1519999504089355 C6.3470001220703125,-6.1519999504089355 9.093999862670898,1.5950000286102295 9.093999862670898,1.5950000286102295 C9.093999862670898,1.5950000286102295 6.3470001220703125,13.579999923706055 6.3470001220703125,13.579999923706055 C6.3470001220703125,13.579999923706055 -6.691999912261963,5.394999980926514 -6.691999912261963,5.394999980926514 C-6.691999912261963,5.394999980926514 -9.093999862670898,-13.579999923706055 -9.093999862670898,-13.579999923706055z"></path></g><g opacity="1" transform="matrix(1,0,0,1,28.593000411987305,72.90599822998047)"><path fill="rgb(129,93,145)" fill-opacity="1" d=" M-7.7210001945495605,-6.1519999504089355 C-7.7210001945495605,-6.1519999504089355 7.7210001945495605,-13.579999923706055 7.7210001945495605,-13.579999923706055 C7.7210001945495605,-13.579999923706055 5.317999839782715,5.394999980926514 5.317999839782715,5.394999980926514 C5.317999839782715,5.394999980926514 -7.7210001945495605,13.579999923706055 -7.7210001945495605,13.579999923706055 C-7.7210001945495605,13.579999923706055 -7.7210001945495605,-6.1519999504089355 -7.7210001945495605,-6.1519999504089355z"></path></g><g opacity="1" transform="matrix(1,0,0,1,20.871999740600586,44.402000427246094)"><path fill="rgb(108,78,123)" fill-opacity="1" d=" M0,-6.3520002365112305 C0,-6.3520002365112305 -5.9079999923706055,1.0230000019073486 -5.9079999923706055,1.0230000019073486 C-5.9079999923706055,1.0230000019073486 0,6.3520002365112305 0,6.3520002365112305 C0,6.3520002365112305 5.9079999923706055,1.0230000019073486 5.9079999923706055,1.0230000019073486 C5.9079999923706055,1.0230000019073486 2.9100000858306885,-2.7190001010894775 2.9100000858306885,-2.7190001010894775 C2.9100000858306885,-2.7190001010894775 2.4059998989105225,-2.7639999389648438 2.4059998989105225,-2.7639999389648438 C2.4059998989105225,-2.7639999389648438 2.1449999809265137,-3.6740000247955322 2.1449999809265137,-3.6740000247955322 C2.1449999809265137,-3.6740000247955322 0,-6.3520002365112305 0,-6.3520002365112305z"></path></g><g opacity="1" transform="matrix(1,0,0,1,12.170000076293945,45.415000915527344)"><path fill="rgb(158,128,172)" fill-opacity="1" d=" M-0.7630000114440918,0.03200000151991844 C-0.7630000114440918,0.03200000151991844 0.04899999871850014,-0.8119999766349792 0.04899999871850014,-0.8119999766349792 C0.04899999871850014,-0.8119999766349792 0.7630000114440918,0.03200000151991844 0.7630000114440918,0.03200000151991844 C0.7630000114440918,0.03200000151991844 -0.01600000075995922,0.8119999766349792 -0.01600000075995922,0.8119999766349792 C-0.01600000075995922,0.8119999766349792 -0.7630000114440918,0.03200000151991844 -0.7630000114440918,0.03200000151991844z"></path></g><g opacity="1" transform="matrix(1,0,0,1,14.87399959564209,48.08399963378906)"><path fill="rgb(158,128,172)" fill-opacity="1" d=" M-0.7300000190734863,-0.06499999761581421 C-0.7300000190734863,-0.06499999761581421 0.1459999978542328,-0.8119999766349792 0.1459999978542328,-0.8119999766349792 C0.1459999978542328,-0.8119999766349792 0.7300000190734863,-0.06499999761581421 0.7300000190734863,-0.06499999761581421 C0.7300000190734863,-0.06499999761581421 0.01600000075995922,0.8119999766349792 0.01600000075995922,0.8119999766349792 C0.01600000075995922,0.8119999766349792 -0.7300000190734863,-0.06499999761581421 -0.7300000190734863,-0.06499999761581421z"></path></g><g opacity="1" transform="matrix(1,0,0,1,17.961999893188477,50.63800048828125)"><path fill="rgb(158,128,172)" fill-opacity="1" d=" M-0.7639999985694885,0.01600000075995922 C-0.7639999985694885,0.01600000075995922 0.04800000041723251,-0.8939999938011169 0.04800000041723251,-0.8939999938011169 C0.04800000041723251,-0.8939999938011169 0.7639999985694885,0.01600000075995922 0.7639999985694885,0.01600000075995922 C0.7639999985694885,0.01600000075995922 -0.04899999871850014,0.8939999938011169 -0.04899999871850014,0.8939999938011169 C-0.04899999871850014,0.8939999938011169 -0.7639999985694885,0.01600000075995922 -0.7639999985694885,0.01600000075995922z"></path></g><g opacity="1" transform="matrix(1,0,0,1,14.916999816894531,42.20899963378906)"><path fill="rgb(158,128,172)" fill-opacity="1" d=" M-0.7789999842643738,0.1459999978542328 C-0.7789999842643738,0.1459999978542328 0.032999999821186066,-0.8289999961853027 0.032999999821186066,-0.8289999961853027 C0.032999999821186066,-0.8289999961853027 0.7789999842643738,0.01600000075995922 0.7789999842643738,0.01600000075995922 C0.7789999842643738,0.01600000075995922 -0.0010000000474974513,0.8289999961853027 -0.0010000000474974513,0.8289999961853027 C-0.0010000000474974513,0.8289999961853027 -0.7789999842643738,0.1459999978542328 -0.7789999842643738,0.1459999978542328z"></path></g><g opacity="1" transform="matrix(1,0,0,1,17.750999450683594,38.95899963378906)"><path fill="rgb(158,128,172)" fill-opacity="1" d=" M-0.7139999866485596,0.01600000075995922 C-0.7139999866485596,0.01600000075995922 -0.0010000000474974513,0.7630000114440918 -0.0010000000474974513,0.7630000114440918 C-0.0010000000474974513,0.7630000114440918 0.7139999866485596,0.11400000005960464 0.7139999866485596,0.11400000005960464 C0.7139999866485596,0.11400000005960464 -0.0010000000474974513,-0.7630000114440918 -0.0010000000474974513,-0.7630000114440918 C-0.0010000000474974513,-0.7630000114440918 -0.7139999866485596,0.01600000075995922 -0.7139999866485596,0.01600000075995922z"></path></g><g opacity="1" transform="matrix(1,0,0,1,29.573999404907227,45.415000915527344)"><path fill="rgb(158,128,172)" fill-opacity="1" d=" M0.7630000114440918,0.03200000151991844 C0.7630000114440918,0.03200000151991844 -0.04899999871850014,-0.8119999766349792 -0.04899999871850014,-0.8119999766349792 C-0.04899999871850014,-0.8119999766349792 -0.7630000114440918,0.03200000151991844 -0.7630000114440918,0.03200000151991844 C-0.7630000114440918,0.03200000151991844 0.01600000075995922,0.8119999766349792 0.01600000075995922,0.8119999766349792 C0.01600000075995922,0.8119999766349792 0.7630000114440918,0.03200000151991844 0.7630000114440918,0.03200000151991844z"></path></g><g opacity="1" transform="matrix(1,0,0,1,26.8700008392334,48.08399963378906)"><path fill="rgb(158,128,172)" fill-opacity="1" d=" M0.7310000061988831,-0.06499999761581421 C0.7310000061988831,-0.06499999761581421 -0.1459999978542328,-0.8119999766349792 -0.1459999978542328,-0.8119999766349792 C-0.1459999978542328,-0.8119999766349792 -0.7310000061988831,-0.06499999761581421 -0.7310000061988831,-0.06499999761581421 C-0.7310000061988831,-0.06499999761581421 -0.01600000075995922,0.8119999766349792 -0.01600000075995922,0.8119999766349792 C-0.01600000075995922,0.8119999766349792 0.7310000061988831,-0.06499999761581421 0.7310000061988831,-0.06499999761581421z"></path></g><g opacity="1" transform="matrix(1,0,0,1,23.781999588012695,50.63800048828125)"><path fill="rgb(158,128,172)" fill-opacity="1" d=" M0.7639999985694885,0.01600000075995922 C0.7639999985694885,0.01600000075995922 -0.04899999871850014,-0.8939999938011169 -0.04899999871850014,-0.8939999938011169 C-0.04899999871850014,-0.8939999938011169 -0.7639999985694885,0.01600000075995922 -0.7639999985694885,0.01600000075995922 C-0.7639999985694885,0.01600000075995922 0.04800000041723251,0.8939999938011169 0.04800000041723251,0.8939999938011169 C0.04800000041723251,0.8939999938011169 0.7639999985694885,0.01600000075995922 0.7639999985694885,0.01600000075995922z"></path></g><g opacity="1" transform="matrix(1,0,0,1,26.826000213623047,42.20899963378906)"><path fill="rgb(158,128,172)" fill-opacity="1" d=" M0.7799999713897705,0.1459999978542328 C0.7799999713897705,0.1459999978542328 -0.032999999821186066,-0.8289999961853027 -0.032999999821186066,-0.8289999961853027 C-0.032999999821186066,-0.8289999961853027 -0.7799999713897705,0.01600000075995922 -0.7799999713897705,0.01600000075995922 C-0.7799999713897705,0.01600000075995922 0.0010000000474974513,0.8289999961853027 0.0010000000474974513,0.8289999961853027 C0.0010000000474974513,0.8289999961853027 0.7799999713897705,0.1459999978542328 0.7799999713897705,0.1459999978542328z"></path></g><g opacity="1" transform="matrix(1,0,0,1,23.992000579833984,38.95899963378906)"><path fill="rgb(158,128,172)" fill-opacity="1" d=" M0.7149999737739563,0.01600000075995922 C0.7149999737739563,0.01600000075995922 0,0.7630000114440918 0,0.7630000114440918 C0,0.7630000114440918 -0.7149999737739563,0.11400000005960464 -0.7149999737739563,0.11400000005960464 C-0.7149999737739563,0.11400000005960464 0,-0.7630000114440918 0,-0.7630000114440918 C0,-0.7630000114440918 0.7149999737739563,0.01600000075995922 0.7149999737739563,0.01600000075995922z"></path></g><g opacity="1" transform="matrix(1,0,0,1,20.878999710083008,36.255001068115234)"><path fill="rgb(158,128,172)" fill-opacity="1" d=" M-0.00800000037997961,-0.8769999742507935 C-0.00800000037997961,-0.8769999742507935 -0.8309999704360962,-0.061000000685453415 -0.8309999704360962,-0.061000000685453415 C-0.8309999704360962,-0.061000000685453415 -0.00800000037997961,0.8769999742507935 -0.00800000037997961,0.8769999742507935 C-0.00800000037997961,0.8769999742507935 0.8309999704360962,0 0.8309999704360962,0 C0.8309999704360962,0 -0.00800000037997961,-0.8769999742507935 -0.00800000037997961,-0.8769999742507935z"></path></g><g opacity="1" transform="matrix(1,0,0,1,20.878999710083008,53.191001892089844)"><path fill="rgb(158,128,172)" fill-opacity="1" d=" M-0.00800000037997961,-0.8769999742507935 C-0.00800000037997961,-0.8769999742507935 -0.8309999704360962,-0.061000000685453415 -0.8309999704360962,-0.061000000685453415 C-0.8309999704360962,-0.061000000685453415 -0.00800000037997961,0.8769999742507935 -0.00800000037997961,0.8769999742507935 C-0.00800000037997961,0.8769999742507935 0.8309999704360962,0 0.8309999704360962,0 C0.8309999704360962,0 -0.00800000037997961,-0.8769999742507935 -0.00800000037997961,-0.8769999742507935z"></path></g><g opacity="1" transform="matrix(1,0,0,1,0,0)"><g opacity="1" transform="matrix(1,0,0,1,20.427000045776367,43.72999954223633)"><path fill="rgb(142,105,158)" fill-opacity="1" d=" M0.048664677888154984,-2.356799840927124 C0.048664677888154984,-2.356799840927124 -2.2456374168395996,3.4285058975219727 -2.2456374168395996,3.4285058975219727 C-2.2456374168395996,3.4285058975219727 2.240544080734253,-3.439427375793457 2.240544080734253,-3.439427375793457 C2.240544080734253,-3.439427375793457 0.048664677888154984,-2.356799840927124 0.048664677888154984,-2.356799840927124z"></path></g><g opacity="1" transform="matrix(1,0,0,1,21.253999710083008,44.77299880981445)"><path fill="rgb(142,105,158)" fill-opacity="1" d=" M1.7621408700942993,-4.048459053039551 C1.7621408700942993,-4.048459053039551 -2.5384774208068848,4.037044525146484 -2.5384774208068848,4.037044525146484 C-2.5384774208068848,4.037044525146484 0.0014125677989795804,2.5019259452819824 0.0014125677989795804,2.5019259452819824 C0.0014125677989795804,2.5019259452819824 2.531965970993042,-3.0856072902679443 2.531965970993042,-3.0856072902679443 C2.531965970993042,-3.0856072902679443 1.7621408700942993,-4.048459053039551 1.7621408700942993,-4.048459053039551z"></path></g></g><g opacity="1" transform="matrix(1,0,0,1,18.577999114990234,80.7509994506836)"><path fill="rgb(177,133,156)" fill-opacity="1" d=" M2.5880000591278076,-12.020999908447266 C2.5880000591278076,-12.020999908447266 -1.9889999628067017,-8.003000259399414 -1.9889999628067017,-8.003000259399414 C-1.9889999628067017,-8.003000259399414 -4.440000057220459,7.330999851226807 -4.440000057220459,7.330999851226807 C-4.440000057220459,7.330999851226807 2.2939999103546143,12.020999908447266 2.2939999103546143,12.020999908447266 C2.2939999103546143,12.020999908447266 4.440000057220459,0.42399999499320984 4.440000057220459,0.42399999499320984 C4.440000057220459,0.42399999499320984 2.5880000591278076,-12.020999908447266 2.5880000591278076,-12.020999908447266z"></path></g><g opacity="1" transform="matrix(1,0,0,1,24.23900032043457,79.76300048828125)"><path fill="rgb(148,99,123)" fill-opacity="1" d=" M-3.367000102996826,-13.008999824523926 C-3.367000102996826,-13.008999824523926 -2.246999979019165,-8.883000373840332 -2.246999979019165,-8.883000373840332 C-2.246999979019165,-8.883000373840332 0.9160000085830688,-7.014999866485596 0.9160000085830688,-7.014999866485596 C0.9160000085830688,-7.014999866485596 3.367000102996826,8.317999839782715 3.367000102996826,8.317999839782715 C3.367000102996826,8.317999839782715 -3.367000102996826,13.008999824523926 -3.367000102996826,13.008999824523926 C-3.367000102996826,13.008999824523926 -3.367000102996826,-13.008999824523926 -3.367000102996826,-13.008999824523926z"></path></g><g opacity="1" transform="matrix(1,0,0,1,19.290000915527344,70.87999725341797)"><path fill="rgb(209,160,184)" fill-opacity="1" d=" M-2.7009999752044678,1.8680000305175781 C-2.7009999752044678,1.8680000305175781 1.5889999866485596,4.125999927520752 1.5889999866485596,4.125999927520752 C1.5889999866485596,4.125999927520752 2.7009999752044678,0.8970000147819519 2.7009999752044678,0.8970000147819519 C2.7009999752044678,0.8970000147819519 1.5820000171661377,-4.125999927520752 1.5820000171661377,-4.125999927520752 C1.5820000171661377,-4.125999927520752 -2.7009999752044678,1.8680000305175781 -2.7009999752044678,1.8680000305175781z"></path></g><g opacity="1" transform="matrix(1,0,0,1,23.013999938964844,70.87899780273438)"><path fill="rgb(177,133,156)" fill-opacity="1" d=" M-2.1410000324249268,-4.125999927520752 C-2.1410000324249268,-4.125999927520752 2.1410000324249268,1.8680000305175781 2.1410000324249268,1.8680000305175781 C2.1410000324249268,1.8680000305175781 -2.134999990463257,4.125999927520752 -2.134999990463257,4.125999927520752 C-2.134999990463257,4.125999927520752 -2.1410000324249268,-4.125999927520752 -2.1410000324249268,-4.125999927520752z"></path></g></g></g></svg>