<svg xmlns="http://www.w3.org/2000/svg" viewBox="0 0 130 130" width="130" height="130" preserveAspectRatio="xMidYMid meet" style="width: 100%; height: 100%; transform: translate3d(0px, 0px, 0px); content-visibility: visible;"><defs><clipPath id="__lottie_element_14"><rect width="130" height="130" x="0" y="0"></rect></clipPath></defs><g clip-path="url(#__lottie_element_14)"><g transform="matrix(1,0,0,1,0,0)" opacity="1" style="display: block;"><g opacity="1" transform="matrix(1,0,0,1,28.805999755859375,11.26700210571289)"><g opacity="1" transform="matrix(1,0,0,1,36.72600173950195,51.54899978637695)"><path fill="rgb(243,238,245)" fill-opacity="1" d=" M-35.83300018310547,-43.106998443603516 C-35.83300018310547,-43.106998443603516 -28.476999282836914,-51.29899978637695 -28.476999282836914,-51.29899978637695 C-28.476999282836914,-51.29899978637695 14.880000114440918,-48.547000885009766 14.880000114440918,-48.547000885009766 C14.880000114440918,-48.547000885009766 26.673999786376953,-40.619998931884766 26.673999786376953,-40.619998931884766 C26.673999786376953,-40.619998931884766 35.83300018310547,-14.79699993133545 35.83300018310547,-14.79699993133545 C35.83300018310547,-14.79699993133545 34.5890007019043,27.030000686645508 34.5890007019043,27.030000686645508 C34.5890007019043,27.030000686645508 34.30500030517578,50.65700149536133 34.30500030517578,50.65700149536133 C34.30500030517578,50.65700149536133 -28.476999282836914,51.29899978637695 -28.476999282836914,51.29899978637695 C-28.476999282836914,51.29899978637695 -35.72600173950195,44.834999084472656 -35.72600173950195,44.834999084472656 C-35.72600173950195,44.834999084472656 -35.83300018310547,-43.106998443603516 -35.83300018310547,-43.106998443603516z"></path></g><g opacity="1" transform="matrix(1,0,0,1,32.61800003051758,50.67300033569336)"><path fill="rgb(250,249,250)" fill-opacity="1" d=" M25.60300064086914,-42.23099899291992 C25.60300064086914,-42.23099899291992 -32.36800003051758,19.024999618530273 -32.36800003051758,19.024999618530273 C-32.36800003051758,19.024999618530273 -12.32699966430664,42.23099899291992 -12.32699966430664,42.23099899291992 C-12.32699966430664,42.23099899291992 3.6419999599456787,38.027000427246094 3.6419999599456787,38.027000427246094 C3.6419999599456787,38.027000427246094 32.36800003051758,-36.94599914550781 32.36800003051758,-36.94599914550781 C32.36800003051758,-36.94599914550781 30.783000946044922,-39.74399948120117 30.783000946044922,-39.74399948120117 C30.783000946044922,-39.74399948120117 25.60300064086914,-42.23099899291992 25.60300064086914,-42.23099899291992z"></path></g></g><g opacity="1" transform="matrix(1,0,0,1,28.805999755859375,64.79400634765625)"><g opacity="1" transform="matrix(1,0,0.00015121602336876094,1,-0.005573272705078125,0)"><g opacity="1" transform="matrix(1,0,0,1,15.625,28.259000778198242)"><path fill="rgb(207,190,213)" fill-opacity="1" d=" M1.350000023841858,-4.728000164031982 C1.350000023841858,-4.728000164031982 2.5439999103546143,4.138000011444092 2.5439999103546143,4.138000011444092 C2.5439999103546143,4.138000011444092 -2.200000047683716,4.728000164031982 -2.200000047683716,4.728000164031982 C-2.200000047683716,4.728000164031982 -2.5439999103546143,-3.2070000171661377 -2.5439999103546143,-3.2070000171661377 C-2.5439999103546143,-3.2070000171661377 1.350000023841858,-4.728000164031982 1.350000023841858,-4.728000164031982z"></path></g><g opacity="1" transform="matrix(1,0,0,1,25.77899932861328,24.76099967956543)"><path fill="rgb(207,190,213)" fill-opacity="1" d=" M-0.2879999876022339,-4.861000061035156 C-0.2879999876022339,-4.861000061035156 0.8270000219345093,-4.460000038146973 0.8270000219345093,-4.460000038146973 C0.8270000219345093,-4.460000038146973 3.125,4.21999979019165 3.125,4.21999979019165 C3.125,4.21999979019165 -0.2879999876022339,4.861000061035156 -0.2879999876022339,4.861000061035156 C-0.2879999876022339,4.861000061035156 -3.125,3.634000062942505 -3.125,3.634000062942505 C-3.125,3.634000062942505 -0.2879999876022339,-4.861000061035156 -0.2879999876022339,-4.861000061035156z"></path></g><g opacity="1" transform="matrix(1,0,0,1,23.739999771118164,14.321999549865723)"><path fill="rgb(135,96,154)" fill-opacity="1" d=" M2.7209999561309814,-5.577000141143799 C2.7209999561309814,-5.577000141143799 3.2139999866485596,1.8389999866485596 3.2139999866485596,1.8389999866485596 C3.2139999866485596,1.8389999866485596 1.7510000467300415,5.577000141143799 1.7510000467300415,5.577000141143799 C1.7510000467300415,5.577000141143799 -3.2139999866485596,5.577000141143799 -3.2139999866485596,5.577000141143799 C-3.2139999866485596,5.577000141143799 -2.940999984741211,0.08500000089406967 -2.940999984741211,0.08500000089406967 C-2.940999984741211,0.08500000089406967 0.5680000185966492,-4.76800012588501 0.5680000185966492,-4.76800012588501 C0.5680000185966492,-4.76800012588501 2.7209999561309814,-5.577000141143799 2.7209999561309814,-5.577000141143799z"></path></g><g opacity="1" transform="matrix(1,0,0,1,16.974000930786133,13.847999572753906)"><path fill="rgb(135,96,154)" fill-opacity="1" d=" M-3.318000078201294,-0.1679999977350235 C-3.318000078201294,-0.1679999977350235 -2.697000026702881,3.880000114440918 -2.697000026702881,3.880000114440918 C-2.697000026702881,3.880000114440918 -1.8869999647140503,7.6539998054504395 -1.8869999647140503,7.6539998054504395 C-1.8869999647140503,7.6539998054504395 3.318000078201294,4.735000133514404 3.318000078201294,4.735000133514404 C3.318000078201294,4.735000133514404 1.4259999990463257,-7.289000034332275 1.4259999990463257,-7.289000034332275 C1.4259999990463257,-7.289000034332275 -1.4390000104904175,-7.6539998054504395 -1.4390000104904175,-7.6539998054504395 C-1.4390000104904175,-7.6539998054504395 -3.318000078201294,-0.1679999977350235 -3.318000078201294,-0.1679999977350235z"></path></g><g opacity="1" transform="matrix(1,0,0,1,15.479000091552734,9.930000305175781)"><path fill="rgb(159,128,173)" fill-opacity="1" d=" M0.03200000151991844,-4.552000045776367 C0.03200000151991844,-4.552000045776367 -1.8220000267028809,3.75 -1.8220000267028809,3.75 C-1.8220000267028809,3.75 1.8220000267028809,4.552000045776367 1.8220000267028809,4.552000045776367 C1.8220000267028809,4.552000045776367 0.6850000023841858,-2.687000036239624 0.6850000023841858,-2.687000036239624 C0.6850000023841858,-2.687000036239624 0.6850000023841858,-4.10099983215332 0.6850000023841858,-4.10099983215332 C0.6850000023841858,-4.10099983215332 0.03200000151991844,-4.552000045776367 0.03200000151991844,-4.552000045776367z"></path></g><g opacity="1" transform="matrix(1,0,0,1,20.378000259399414,27.070999145507812)"><path fill="rgb(147,112,163)" fill-opacity="1" d=" M6.10099983215332,-2.4820001125335693 C6.10099983215332,-2.4820001125335693 3.8269999027252197,3.5250000953674316 3.8269999027252197,3.5250000953674316 C3.8269999027252197,3.5250000953674316 -3.427000045776367,3.7809998989105225 -3.427000045776367,3.7809998989105225 C-3.427000045776367,3.7809998989105225 -6.10099983215332,-2.0490000247955322 -6.10099983215332,-2.0490000247955322 C-6.10099983215332,-2.0490000247955322 0.42100000381469727,-3.7809998989105225 0.42100000381469727,-3.7809998989105225 C0.42100000381469727,-3.7809998989105225 6.10099983215332,-2.4820001125335693 6.10099983215332,-2.4820001125335693z"></path></g><g opacity="1" transform="matrix(1,0,0,1,20.384000778198242,20.302000045776367)"><path fill="rgb(231,223,234)" fill-opacity="1" d=" M-0.8769999742507935,-1.718999981880188 C-0.8769999742507935,-1.718999981880188 -5.105999946594238,-0.4169999957084656 -5.105999946594238,-0.4169999957084656 C-5.105999946594238,-0.4169999957084656 0.14300000667572021,1.718999981880188 0.14300000667572021,1.718999981880188 C0.14300000667572021,1.718999981880188 5.105999946594238,-0.4020000100135803 5.105999946594238,-0.4020000100135803 C5.105999946594238,-0.4020000100135803 1.2059999704360962,-1.718999981880188 1.2059999704360962,-1.718999981880188 C1.2059999704360962,-1.718999981880188 -0.8769999742507935,-1.718999981880188 -0.8769999742507935,-1.718999981880188z"></path></g><g opacity="1" transform="matrix(1,0,0,1,20.683000564575195,17.395000457763672)"><path fill="rgb(207,190,213)" fill-opacity="1" d=" M-0.8949999809265137,-1.9670000076293945 C-0.8949999809265137,-1.9670000076293945 -1.5,0.3330000042915344 -1.5,0.3330000042915344 C-1.5,0.3330000042915344 -1.1759999990463257,1.187999963760376 -1.1759999990463257,1.187999963760376 C-1.1759999990463257,1.187999963760376 -0.15600000321865082,1.9670000076293945 -0.15600000321865082,1.9670000076293945 C-0.15600000321865082,1.9670000076293945 0.9070000052452087,1.187999963760376 0.9070000052452087,1.187999963760376 C0.9070000052452087,1.187999963760376 1.5,-1.1349999904632568 1.5,-1.1349999904632568 C1.5,-1.1349999904632568 -0.8949999809265137,-1.9670000076293945 -0.8949999809265137,-1.9670000076293945z"></path></g><g opacity="1" transform="matrix(1,0,0,1,20.291000366210938,16.69300079345703)"><path fill="rgb(183,159,194)" fill-opacity="1" d=" M1.8919999599456787,-0.4339999854564667 C1.8919999599456787,-0.4339999854564667 -1.1080000400543213,1.034999966621399 -1.1080000400543213,1.034999966621399 C-1.1080000400543213,1.034999966621399 -1.8919999599456787,-1.034999966621399 -1.8919999599456787,-1.034999966621399 C-1.8919999599456787,-1.034999966621399 1.8919999599456787,-0.4339999854564667 1.8919999599456787,-0.4339999854564667z"></path></g><g opacity="1" transform="matrix(1,0,0,1,20.527000427246094,11.864999771118164)"><path fill="rgb(231,223,234)" fill-opacity="1" d=" M-4.36299991607666,-4.622000217437744 C-4.36299991607666,-4.622000217437744 -2.9100000858306885,4.622000217437744 -2.9100000858306885,4.622000217437744 C-2.9100000858306885,4.622000217437744 3.634999990463257,4.296999931335449 3.634999990463257,4.296999931335449 C3.634999990463257,4.296999931335449 4.36299991607666,-1.6130000352859497 4.36299991607666,-1.6130000352859497 C4.36299991607666,-1.6130000352859497 -4.36299991607666,-4.622000217437744 -4.36299991607666,-4.622000217437744z"></path></g><g opacity="1" transform="matrix(1,0,0,1,20.798999786376953,12.03499984741211)"><path fill="rgb(183,159,194)" fill-opacity="1" d=" M-2.63100004196167,-1.465999960899353 C-2.63100004196167,-1.465999960899353 2.63100004196167,-1.621000051498413 2.63100004196167,-1.621000051498413 C2.63100004196167,-1.621000051498413 0.48100000619888306,-0.902999997138977 0.48100000619888306,-0.902999997138977 C0.48100000619888306,-0.902999997138977 0.10899999737739563,1.621000051498413 0.10899999737739563,1.621000051498413 C0.10899999737739563,1.621000051498413 -0.5070000290870667,-0.902999997138977 -0.5070000290870667,-0.902999997138977 C-0.5070000290870667,-0.902999997138977 -2.63100004196167,-1.465999960899353 -2.63100004196167,-1.465999960899353z"></path></g><g opacity="1" transform="matrix(1,0,0,1,19.082000732421875,5.553999900817871)"><path fill="rgb(183,159,194)" fill-opacity="1" d=" M3.572000026702881,-1.6890000104904175 C3.572000026702881,-1.6890000104904175 -3.572000026702881,-0.17599999904632568 -3.572000026702881,-0.17599999904632568 C-3.572000026702881,-0.17599999904632568 -2.9179999828338623,1.6890000104904175 -2.9179999828338623,1.6890000104904175 C-2.9179999828338623,1.6890000104904175 1.2100000381469727,1.003999948501587 1.2100000381469727,1.003999948501587 C1.2100000381469727,1.003999948501587 3.572000026702881,-1.6890000104904175 3.572000026702881,-1.6890000104904175z"></path></g><g opacity="1" transform="matrix(1,0,0,1,21.312000274658203,7.864999771118164)"><path fill="rgb(159,128,173)" fill-opacity="1" d=" M-5.1479997634887695,-0.621999979019165 C-5.1479997634887695,-0.621999979019165 3.378999948501587,4 3.378999948501587,4 C3.378999948501587,4 5.1479997634887695,0.8790000081062317 5.1479997634887695,0.8790000081062317 C5.1479997634887695,0.8790000081062317 1.3420000076293945,-4 1.3420000076293945,-4 C1.3420000076293945,-4 -5.1479997634887695,-0.621999979019165 -5.1479997634887695,-0.621999979019165z"></path></g><g opacity="1" transform="matrix(1,0,0,1,20.378000259399414,22.452999114990234)"><path fill="rgb(183,159,194)" fill-opacity="1" d=" M5.11299991607666,-2.552999973297119 C5.11299991607666,-2.552999973297119 6.099999904632568,2.13700008392334 6.099999904632568,2.13700008392334 C6.099999904632568,2.13700008392334 -2.7320001125335693,2.5239999294281006 -2.7320001125335693,2.5239999294281006 C-2.7320001125335693,2.5239999294281006 -6.099999904632568,2.569000005722046 -6.099999904632568,2.569000005722046 C-6.099999904632568,2.569000005722046 -5.099999904632568,-2.569000005722046 -5.099999904632568,-2.569000005722046 C-5.099999904632568,-2.569000005722046 0.14800000190734863,-1.0119999647140503 0.14800000190734863,-1.0119999647140503 C0.14800000190734863,-1.0119999647140503 5.11299991607666,-2.552999973297119 5.11299991607666,-2.552999973297119z"></path></g></g><g opacity="1" transform="matrix(1,0,-0.00007560801168438047,1,0.00316619873046875,0)"><g opacity="1" transform="matrix(1,0,0,1,66.04199981689453,17.114999771118164)"><path fill="rgb(159,128,173)" fill-opacity="1" d=" M-0.19099999964237213,-6.39300012588501 C-0.19099999964237213,-6.39300012588501 -3.01200008392334,2.740000009536743 -3.01200008392334,2.740000009536743 C-3.01200008392334,2.740000009536743 -1.6139999628067017,5.61299991607666 -1.6139999628067017,5.61299991607666 C-1.6139999628067017,5.61299991607666 2.6440000534057617,7.00600004196167 2.6440000534057617,7.00600004196167 C2.6440000534057617,7.00600004196167 3.01200008392334,-0.9449999928474426 3.01200008392334,-0.9449999928474426 C3.01200008392334,-0.9449999928474426 2.0309998989105225,-7.00600004196167 2.0309998989105225,-7.00600004196167 C2.0309998989105225,-7.00600004196167 -0.19099999964237213,-6.39300012588501 -0.19099999964237213,-6.39300012588501z"></path></g><g opacity="1" transform="matrix(1,0,0,1,62.52799987792969,26.80900001525879)"><path fill="rgb(231,223,234)" fill-opacity="1" d=" M1.899999976158142,-4.079999923706055 C1.899999976158142,-4.079999923706055 -2.5409998893737793,0.6480000019073486 -2.5409998893737793,0.6480000019073486 C-2.5409998893737793,0.6480000019073486 2.5409998893737793,4.079999923706055 2.5409998893737793,4.079999923706055 C2.5409998893737793,4.079999923706055 1.899999976158142,-4.079999923706055 1.899999976158142,-4.079999923706055z"></path></g><g opacity="1" transform="matrix(1,0,0,1,67.03099822998047,40.64099884033203)"><path fill="rgb(147,112,163)" fill-opacity="1" d=" M-3.246999979019165,-4.432000160217285 C-3.246999979019165,-4.432000160217285 -4.000999927520752,1.246999979019165 -4.000999927520752,1.246999979019165 C-4.000999927520752,1.246999979019165 4.000999927520752,4.432000160217285 4.000999927520752,4.432000160217285 C4.000999927520752,4.432000160217285 3.5329999923706055,-2.9690001010894775 3.5329999923706055,-2.9690001010894775 C3.5329999923706055,-2.9690001010894775 -0.30300000309944153,-4.432000160217285 -0.30300000309944153,-4.432000160217285 C-0.30300000309944153,-4.432000160217285 -3.246999979019165,-4.432000160217285 -3.246999979019165,-4.432000160217285z"></path></g><g opacity="1" transform="matrix(1,0,0,1,66.72799682617188,32.98699951171875)"><path fill="rgb(159,128,173)" fill-opacity="1" d=" M-4.185999870300293,-3.9579999446868896 C-4.185999870300293,-3.9579999446868896 -2.496999979019165,3.9579999446868896 -2.496999979019165,3.9579999446868896 C-2.496999979019165,3.9579999446868896 3.880000114440918,2.7780001163482666 3.880000114440918,2.7780001163482666 C3.880000114440918,2.7780001163482666 4.185999870300293,-0.09300000220537186 4.185999870300293,-0.09300000220537186 C4.185999870300293,-0.09300000220537186 0.6449999809265137,-3.0329999923706055 0.6449999809265137,-3.0329999923706055 C0.6449999809265137,-3.0329999923706055 -4.185999870300293,-3.9579999446868896 -4.185999870300293,-3.9579999446868896z"></path></g><g opacity="1" transform="matrix(1,0,0,1,67.3270034790039,35.9900016784668)"><path fill="rgb(135,96,154)" fill-opacity="1" d=" M2.9539999961853027,-3.38700008392334 C2.9539999961853027,-3.38700008392334 -3.0959999561309814,0.9559999704360962 -3.0959999561309814,0.9559999704360962 C-3.0959999561309814,0.9559999704360962 3.0959999561309814,3.38700008392334 3.0959999561309814,3.38700008392334 C3.0959999561309814,3.38700008392334 2.9539999961853027,-3.38700008392334 2.9539999961853027,-3.38700008392334z"></path></g><g opacity="1" transform="matrix(1,0,0,1,67.9749984741211,24.597999572753906)"><path fill="rgb(231,223,234)" fill-opacity="1" d=" M-0.18299999833106995,-2.0380001068115234 C-0.18299999833106995,-2.0380001068115234 -3.5460000038146973,-1.86899995803833 -3.5460000038146973,-1.86899995803833 C-3.5460000038146973,-1.86899995803833 0.37400001287460327,2.0380001068115234 0.37400001287460327,2.0380001068115234 C0.37400001287460327,2.0380001068115234 3.3410000801086426,0.45399999618530273 3.3410000801086426,0.45399999618530273 C3.3410000801086426,0.45399999618530273 3.5460000038146973,-1.86899995803833 3.5460000038146973,-1.86899995803833 C3.5460000038146973,-1.86899995803833 -0.18299999833106995,-2.0380001068115234 -0.18299999833106995,-2.0380001068115234z"></path></g><g opacity="1" transform="matrix(1,0,0,1,66.92900085449219,27.812000274658203)"><path fill="rgb(183,159,194)" fill-opacity="1" d=" M-2.500999927520752,-5.083000183105469 C-2.500999927520752,-5.083000183105469 -4.38700008392334,1.218000054359436 -4.38700008392334,1.218000054359436 C-4.38700008392334,1.218000054359436 -2.9639999866485596,1.8819999694824219 -2.9639999866485596,1.8819999694824219 C-2.9639999866485596,1.8819999694824219 3.9839999675750732,5.083000183105469 3.9839999675750732,5.083000183105469 C3.9839999675750732,5.083000183105469 4.38700008392334,-2.759999990463257 4.38700008392334,-2.759999990463257 C4.38700008392334,-2.759999990463257 1.4930000305175781,-2.371999979019165 1.4930000305175781,-2.371999979019165 C1.4930000305175781,-2.371999979019165 -2.500999927520752,-5.083000183105469 -2.500999927520752,-5.083000183105469z"></path></g><g opacity="1" transform="matrix(1,0,0,1,69.77999877929688,22.631999969482422)"><path fill="rgb(207,190,213)" fill-opacity="1" d=" M-1.4930000305175781,-1.8020000457763672 C-1.4930000305175781,-1.8020000457763672 -1.9880000352859497,-0.07199999690055847 -1.9880000352859497,-0.07199999690055847 C-1.9880000352859497,-0.07199999690055847 -0.9150000214576721,1.8020000457763672 -0.9150000214576721,1.8020000457763672 C-0.9150000214576721,1.8020000457763672 1.5700000524520874,0.9240000247955322 1.5700000524520874,0.9240000247955322 C1.5700000524520874,0.9240000247955322 1.9889999628067017,-1.625 1.9889999628067017,-1.625 C1.9889999628067017,-1.625 -1.4930000305175781,-1.8020000457763672 -1.4930000305175781,-1.8020000457763672z"></path></g><g opacity="1" transform="matrix(1,0,0,1,67.79199981689453,16.17099952697754)"><path fill="rgb(231,223,234)" fill-opacity="1" d=" M-1.940999984741211,-5.447999954223633 C-1.940999984741211,-5.447999954223633 -3.240999937057495,3.5360000133514404 -3.240999937057495,3.5360000133514404 C-3.240999937057495,3.5360000133514404 3.121999979019165,5.447999954223633 3.121999979019165,5.447999954223633 C3.121999979019165,5.447999954223633 3.240999937057495,0 3.240999937057495,0 C3.240999937057495,0 2.5810000896453857,-4.422999858856201 2.5810000896453857,-4.422999858856201 C2.5810000896453857,-4.422999858856201 -1.940999984741211,-5.447999954223633 -1.940999984741211,-5.447999954223633z"></path></g><g opacity="1" transform="matrix(1,0,0,1,69.20800018310547,15.788999557495117)"><path fill="rgb(183,159,194)" fill-opacity="1" d=" M-2.7079999446868896,-1.9390000104904175 C-2.7079999446868896,-1.9390000104904175 2.7079999446868896,-0.621999979019165 2.7079999446868896,-0.621999979019165 C2.7079999446868896,-0.621999979019165 0.11599999666213989,-0.32199999690055847 0.11599999666213989,-0.32199999690055847 C0.11599999666213989,-0.32199999690055847 -0.7480000257492065,1.9390000104904175 -0.7480000257492065,1.9390000104904175 C-0.7480000257492065,1.9390000104904175 -0.6100000143051147,-0.5059999823570251 -0.6100000143051147,-0.5059999823570251 C-0.6100000143051147,-0.5059999823570251 -2.7079999446868896,-1.9390000104904175 -2.7079999446868896,-1.9390000104904175z"></path></g><g opacity="1" transform="matrix(1,0,0,1,69.27899932861328,21.599000930786133)"><path fill="rgb(183,159,194)" fill-opacity="1" d=" M-1.6349999904632568,-0.9620000123977661 C-1.6349999904632568,-0.9620000123977661 1.6349999904632568,0.019999999552965164 1.6349999904632568,0.019999999552965164 C1.6349999904632568,0.019999999552965164 -1.4880000352859497,0.9620000123977661 -1.4880000352859497,0.9620000123977661 C-1.4880000352859497,0.9620000123977661 -1.6349999904632568,-0.9620000123977661 -1.6349999904632568,-0.9620000123977661z"></path></g><g opacity="1" transform="matrix(1,0,0,1,68.68499755859375,9.604000091552734)"><path fill="rgb(183,159,194)" fill-opacity="1" d=" M1.4359999895095825,-3.0889999866485596 C1.4359999895095825,-3.0889999866485596 -2.8350000381469727,1.11899995803833 -2.8350000381469727,1.11899995803833 C-2.8350000381469727,1.11899995803833 2.8350000381469727,3.0889999866485596 2.8350000381469727,3.0889999866485596 C2.8350000381469727,3.0889999866485596 1.4359999895095825,-3.0889999866485596 1.4359999895095825,-3.0889999866485596z"></path></g><g opacity="1" transform="matrix(1,0,0,1,68.68599700927734,12.015999794006348)"><path fill="rgb(159,128,173)" fill-opacity="1" d=" M-2.8350000381469727,-1.2929999828338623 C-2.8350000381469727,-1.2929999828338623 2.63100004196167,-1.8339999914169312 2.63100004196167,-1.8339999914169312 C2.63100004196167,-1.8339999914169312 2.8350000381469727,1.8339999914169312 2.8350000381469727,1.8339999914169312 C2.8350000381469727,1.8339999914169312 -2.8350000381469727,-1.2929999828338623 -2.8350000381469727,-1.2929999828338623z"></path></g></g><g opacity="1" transform="matrix(1,0,0.00015121602336876094,1,-0.004894256591796875,0)"><g opacity="1" transform="matrix(1,0,0,1,60.37300109863281,29.268999099731445)"><path fill="rgb(135,96,154)" fill-opacity="1" d=" M3.8589999675750732,-0.8740000128746033 C3.8589999675750732,-0.8740000128746033 3.0269999504089355,2.2309999465942383 3.0269999504089355,2.2309999465942383 C3.0269999504089355,2.2309999465942383 -3.8589999675750732,3.9790000915527344 -3.8589999675750732,3.9790000915527344 C-3.8589999675750732,3.9790000915527344 -2.1519999504089355,-3.9790000915527344 -2.1519999504089355,-3.9790000915527344 C-2.1519999504089355,-3.9790000915527344 3.8589999675750732,-0.8740000128746033 3.8589999675750732,-0.8740000128746033z"></path></g><g opacity="1" transform="matrix(1,0,0,1,47.2400016784668,27.808000564575195)"><path fill="rgb(135,96,154)" fill-opacity="1" d=" M-3.3389999866485596,-2.365000009536743 C-3.3389999866485596,-2.365000009536743 -2.130000114440918,2.7869999408721924 -2.130000114440918,2.7869999408721924 C-2.130000114440918,2.7869999408721924 3.3389999866485596,1.9179999828338623 3.3389999866485596,1.9179999828338623 C3.3389999866485596,1.9179999828338623 1.2960000038146973,-2.7869999408721924 1.2960000038146973,-2.7869999408721924 C1.2960000038146973,-2.7869999408721924 -3.3389999866485596,-2.365000009536743 -3.3389999866485596,-2.365000009536743z"></path></g><g opacity="1" transform="matrix(1,0,0,1,61.465999603271484,24.024999618530273)"><path fill="rgb(159,128,173)" fill-opacity="1" d=" M-0.20900000631809235,-4.369999885559082 C-0.20900000631809235,-4.369999885559082 2.7660000324249268,4.369999885559082 2.7660000324249268,4.369999885559082 C2.7660000324249268,4.369999885559082 -2.4860000610351562,3.3910000324249268 -2.4860000610351562,3.3910000324249268 C-2.4860000610351562,3.3910000324249268 -2.7660000324249268,-0.3050000071525574 -2.7660000324249268,-0.3050000071525574 C-2.7660000324249268,-0.3050000071525574 -0.20900000631809235,-4.369999885559082 -0.20900000631809235,-4.369999885559082z"></path></g><g opacity="1" transform="matrix(1,0,0,1,46.395999908447266,21.707000732421875)"><path fill="rgb(159,128,173)" fill-opacity="1" d=" M0.9549999833106995,-4.171999931335449 C0.9549999833106995,-4.171999931335449 -2.494999885559082,3.7360000610351562 -2.494999885559082,3.7360000610351562 C-2.494999885559082,3.7360000610351562 1.4670000076293945,4.171999931335449 1.4670000076293945,4.171999931335449 C1.4670000076293945,4.171999931335449 2.494999885559082,-0.5680000185966492 2.494999885559082,-0.5680000185966492 C2.494999885559082,-0.5680000185966492 0.9549999833106995,-4.171999931335449 0.9549999833106995,-4.171999931335449z"></path></g><g opacity="1" transform="matrix(1,0,0,1,56.15999984741211,7.660999774932861)"><path fill="rgb(183,159,194)" fill-opacity="1" d=" M-6.749000072479248,0.9190000295639038 C-6.749000072479248,0.9190000295639038 -7.624000072479248,-3.11899995803833 -7.624000072479248,-3.11899995803833 C-7.624000072479248,-3.11899995803833 -5.894999980926514,-5.947999954223633 -5.894999980926514,-5.947999954223633 C-5.894999980926514,-5.947999954223633 -2.7699999809265137,-6.140999794006348 -2.7699999809265137,-6.140999794006348 C-2.7699999809265137,-6.140999794006348 -0.13300000131130219,-7.410999774932861 -0.13300000131130219,-7.410999774932861 C-0.13300000131130219,-7.410999774932861 4.551000118255615,-4.940000057220459 4.551000118255615,-4.940000057220459 C4.551000118255615,-4.940000057220459 4.993000030517578,-1.7970000505447388 4.993000030517578,-1.7970000505447388 C4.993000030517578,-1.7970000505447388 7.624000072479248,0.42100000381469727 7.624000072479248,0.42100000381469727 C7.624000072479248,0.42100000381469727 6.294000148773193,2.125 6.294000148773193,2.125 C6.294000148773193,2.125 6.869999885559082,5.043000221252441 6.869999885559082,5.043000221252441 C6.869999885559082,5.043000221252441 5.0229997634887695,5.043000221252441 5.0229997634887695,5.043000221252441 C5.0229997634887695,5.043000221252441 2.746999979019165,7.410999774932861 2.746999979019165,7.410999774932861 C2.746999979019165,7.410999774932861 -6.749000072479248,0.9190000295639038 -6.749000072479248,0.9190000295639038z"></path></g><g opacity="1" transform="matrix(1,0,0,1,60.96900177001953,12.428999900817871)"><path fill="rgb(135,96,154)" fill-opacity="1" d=" M2.061000108718872,0.2750000059604645 C2.061000108718872,0.2750000059604645 -2.061000108718872,2.6429998874664307 -2.061000108718872,2.6429998874664307 C-2.061000108718872,2.6429998874664307 -2.061000108718872,-0.7350000143051147 -2.061000108718872,-0.7350000143051147 C-2.061000108718872,-0.7350000143051147 -0.257999986410141,-2.6429998874664307 -0.257999986410141,-2.6429998874664307 C-0.257999986410141,-2.6429998874664307 2.061000108718872,0.2750000059604645 2.061000108718872,0.2750000059604645z"></path></g><g opacity="1" transform="matrix(1,0,0,1,49.29800033569336,5.146999835968018)"><path fill="rgb(159,128,173)" fill-opacity="1" d=" M0.9240000247955322,-0.6050000190734863 C0.9240000247955322,-0.6050000190734863 0.9670000076293945,-3.434000015258789 0.9670000076293945,-3.434000015258789 C0.9670000076293945,-3.434000015258789 -1.2489999532699585,-0.6050000190734863 -1.2489999532699585,-0.6050000190734863 C-1.2489999532699585,-0.6050000190734863 0.11299999803304672,3.434000015258789 0.11299999803304672,3.434000015258789 C0.11299999803304672,3.434000015258789 1.2489999532699585,1.4859999418258667 1.2489999532699585,1.4859999418258667 C1.2489999532699585,1.4859999418258667 0.9240000247955322,-0.6050000190734863 0.9240000247955322,-0.6050000190734863z"></path></g><g opacity="1" transform="matrix(1,0,0,1,58.70100021362305,5.651000022888184)"><path fill="rgb(159,128,173)" fill-opacity="1" d=" M-5.083000183105469,1.0119999647140503 C-5.083000183105469,1.0119999647140503 2.009999990463257,-2.930000066757202 2.009999990463257,-2.930000066757202 C2.009999990463257,-2.930000066757202 5.083000183105469,2.431999921798706 5.083000183105469,2.431999921798706 C5.083000183105469,2.431999921798706 -0.2370000034570694,2.930000066757202 -0.2370000034570694,2.930000066757202 C-0.2370000034570694,2.930000066757202 -5.083000183105469,1.0119999647140503 -5.083000183105469,1.0119999647140503z"></path></g><g opacity="1" transform="matrix(1,0,0,1,60.14899826049805,9.78600025177002)"><path fill="rgb(147,112,163)" fill-opacity="1" d=" M-1.684999942779541,-2.9179999828338623 C-1.684999942779541,-2.9179999828338623 -3.634000062942505,-0.6430000066757202 -3.634000062942505,-0.6430000066757202 C-3.634000062942505,-0.6430000066757202 -3.191999912261963,1.9079999923706055 -3.191999912261963,1.9079999923706055 C-3.191999912261963,1.9079999923706055 0.5609999895095825,1.3660000562667847 0.5609999895095825,1.3660000562667847 C0.5609999895095825,1.3660000562667847 2.880000114440918,2.9179999828338623 2.880000114440918,2.9179999828338623 C2.880000114440918,2.9179999828338623 3.634000062942505,-1.7039999961853027 3.634000062942505,-1.7039999961853027 C3.634000062942505,-1.7039999961853027 -1.684999942779541,-2.9179999828338623 -1.684999942779541,-2.9179999828338623z"></path></g><g opacity="1" transform="matrix(1,0,0,1,53.44599914550781,11.038000106811523)"><path fill="rgb(231,223,234)" fill-opacity="1" d=" M-3.2249999046325684,-6.497000217437744 C-3.2249999046325684,-6.497000217437744 -5.01800012588501,2.444999933242798 -5.01800012588501,2.444999933242798 C-5.01800012588501,2.444999933242798 -1.8070000410079956,3.2170000076293945 -1.8070000410079956,3.2170000076293945 C-1.8070000410079956,3.2170000076293945 3.069000005722046,6.497000217437744 3.069000005722046,6.497000217437744 C3.069000005722046,6.497000217437744 3.8959999084472656,0.11299999803304672 3.8959999084472656,0.11299999803304672 C3.8959999084472656,0.11299999803304672 5.01800012588501,-4.171000003814697 5.01800012588501,-4.171000003814697 C5.01800012588501,-4.171000003814697 0.1720000058412552,-4.375999927520752 0.1720000058412552,-4.375999927520752 C0.1720000058412552,-4.375999927520752 -3.2249999046325684,-6.497000217437744 -3.2249999046325684,-6.497000217437744z"></path></g><g opacity="1" transform="matrix(1,0,0,1,56.29100036621094,15.111000061035156)"><path fill="rgb(207,190,213)" fill-opacity="1" d=" M1.0509999990463257,-3.9579999446868896 C1.0509999990463257,-3.9579999446868896 -0.5950000286102295,0.2879999876022339 -0.5950000286102295,0.2879999876022339 C-0.5950000286102295,0.2879999876022339 -4.419000148773193,0.7789999842643738 -4.419000148773193,0.7789999842643738 C-4.419000148773193,0.7789999842643738 -4.209000110626221,2.246999979019165 -4.209000110626221,2.246999979019165 C-4.209000110626221,2.246999979019165 -1.9579999446868896,4.9039998054504395 -1.9579999446868896,4.9039998054504395 C-1.9579999446868896,4.9039998054504395 1.1979999542236328,3.0439999103546143 1.1979999542236328,3.0439999103546143 C1.1979999542236328,3.0439999103546143 2.615999937057495,-0.03799999877810478 2.615999937057495,-0.03799999877810478 C2.615999937057495,-0.03799999877810478 2.61299991607666,-1.187999963760376 2.61299991607666,-1.187999963760376 C2.61299991607666,-1.187999963760376 3.2950000762939453,-1.5140000581741333 3.2950000762939453,-1.5140000581741333 C3.2950000762939453,-1.5140000581741333 4.419000148773193,-3.9579999446868896 4.419000148773193,-3.9579999446868896 C4.419000148773193,-3.9579999446868896 3.2070000171661377,-4.9039998054504395 3.2070000171661377,-4.9039998054504395 C3.2070000171661377,-4.9039998054504395 1.0509999990463257,-3.9579999446868896 1.0509999990463257,-3.9579999446868896z"></path></g><g opacity="1" transform="matrix(1,0,0,1,54.29800033569336,15.071999549865723)"><path fill="rgb(183,159,194)" fill-opacity="1" d=" M-2.6589999198913574,-0.8180000185966492 C-2.6589999198913574,-0.8180000185966492 2.6589999198913574,0.5419999957084656 2.6589999198913574,0.5419999957084656 C2.6589999198913574,0.5419999957084656 -2.4260001182556152,0.8180000185966492 -2.4260001182556152,0.8180000185966492 C-2.4260001182556152,0.8180000185966492 -2.6589999198913574,-0.8180000185966492 -2.6589999198913574,-0.8180000185966492z"></path></g><g opacity="1" transform="matrix(1,0,0,1,58.90399932861328,14.098999977111816)"><path fill="rgb(183,159,194)" fill-opacity="1" d=" M0.6830000281333923,-0.5019999742507935 C0.6830000281333923,-0.5019999742507935 -0.6830000281333923,-0.9739999771118164 -0.6830000281333923,-0.9739999771118164 C-0.6830000281333923,-0.9739999771118164 0.004000000189989805,0.9739999771118164 0.004000000189989805,0.9739999771118164 C0.004000000189989805,0.9739999771118164 0.6830000281333923,-0.5019999742507935 0.6830000281333923,-0.5019999742507935z"></path></g><g opacity="1" transform="matrix(1,0,0,1,53.39099884033203,9.887999534606934)"><path fill="rgb(183,159,194)" fill-opacity="1" d=" M-2.634999990463257,-1.805999994277954 C-2.634999990463257,-1.805999994277954 2.634999990463257,-0.5519999861717224 2.634999990463257,-0.5519999861717224 C2.634999990463257,-0.5519999861717224 0.11699999868869781,-0.43700000643730164 0.11699999868869781,-0.43700000643730164 C0.11699999868869781,-0.43700000643730164 -0.8220000267028809,1.805999994277954 -0.8220000267028809,1.805999994277954 C-0.8220000267028809,1.805999994277954 -0.5550000071525574,-0.5870000123977661 -0.5550000071525574,-0.5870000123977661 C-0.5550000071525574,-0.5870000123977661 -2.634999990463257,-1.805999994277954 -2.634999990463257,-1.805999994277954z"></path></g><g opacity="1" transform="matrix(1,0,0,1,53.145999908447266,3.4560000896453857)"><path fill="rgb(195,175,204)" fill-opacity="1" d=" M2.88100004196167,-3.2060000896453857 C2.88100004196167,-3.2060000896453857 0.4729999899864197,3.2060000896453857 0.4729999899864197,3.2060000896453857 C0.4729999899864197,3.2060000896453857 -2.88100004196167,-1.7430000305175781 -2.88100004196167,-1.7430000305175781 C-2.88100004196167,-1.7430000305175781 2.88100004196167,-3.2060000896453857 2.88100004196167,-3.2060000896453857z"></path></g><g opacity="1" transform="matrix(1,0,0,1,54.30400085449219,24.299999237060547)"><path fill="rgb(183,159,194)" fill-opacity="1" d=" M-4.390999794006348,-6.861000061035156 C-4.390999794006348,-6.861000061035156 -6.953999996185303,-6.764999866485596 -6.953999996185303,-6.764999866485596 C-6.953999996185303,-6.764999866485596 -6.440999984741211,1.5779999494552612 -6.440999984741211,1.5779999494552612 C-6.440999984741211,1.5779999494552612 -4.2789998054504395,6.861000061035156 -4.2789998054504395,6.861000061035156 C-4.2789998054504395,6.861000061035156 4.761000156402588,3.131999969482422 4.761000156402588,3.131999969482422 C4.761000156402588,3.131999969482422 6.953999996185303,-4.644999980926514 6.953999996185303,-4.644999980926514 C6.953999996185303,-4.644999980926514 5.53000020980835,-5.211999893188477 5.53000020980835,-5.211999893188477 C5.53000020980835,-5.211999893188477 0.029999999329447746,-5.328000068664551 0.029999999329447746,-5.328000068664551 C0.029999999329447746,-5.328000068664551 -4.390999794006348,-6.861000061035156 -4.390999794006348,-6.861000061035156z"></path></g><g opacity="1" transform="matrix(1,0,0,1,54.87300109863281,19.256000518798828)"><path fill="rgb(159,128,173)" fill-opacity="1" d=" M-2.7899999618530273,-1.8980000019073486 C-2.7899999618530273,-1.8980000019073486 -0.5400000214576721,-0.28299999237060547 -0.5400000214576721,-0.28299999237060547 C-0.5400000214576721,-0.28299999237060547 2.617000102996826,-1.100000023841858 2.617000102996826,-1.100000023841858 C2.617000102996826,-1.100000023841858 4.960999965667725,-0.16699999570846558 4.960999965667725,-0.16699999570846558 C4.960999965667725,-0.16699999570846558 -1.0230000019073486,1.8980000019073486 -1.0230000019073486,1.8980000019073486 C-1.0230000019073486,1.8980000019073486 -4.960999965667725,-1.815999984741211 -4.960999965667725,-1.815999984741211 C-4.960999965667725,-1.815999984741211 -2.7899999618530273,-1.8980000019073486 -2.7899999618530273,-1.8980000019073486z"></path></g><g opacity="1" transform="matrix(1,0,0,1,53.262001037597656,29.621000289916992)"><path fill="rgb(159,128,173)" fill-opacity="1" d=" M-5.39900016784668,-3.742000102996826 C-5.39900016784668,-3.742000102996826 5.802999973297119,-2.187999963760376 5.802999973297119,-2.187999963760376 C5.802999973297119,-2.187999963760376 5.572000026702881,3.742000102996826 5.572000026702881,3.742000102996826 C5.572000026702881,3.742000102996826 -5.802999973297119,2.1679999828338623 -5.802999973297119,2.1679999828338623 C-5.802999973297119,2.1679999828338623 -5.39900016784668,-3.742000102996826 -5.39900016784668,-3.742000102996826z"></path></g><g opacity="1" transform="matrix(1,0,0,1,53.4640007019043,25.614999771118164)"><path fill="rgb(147,112,163)" fill-opacity="1" d=" M0.38600000739097595,-4.460999965667725 C0.38600000739097595,-4.460999965667725 5.60099983215332,1.8170000314712524 5.60099983215332,1.8170000314712524 C5.60099983215332,1.8170000314712524 -0.35499998927116394,4.460999965667725 -0.35499998927116394,4.460999965667725 C-0.35499998927116394,4.460999965667725 -5.60099983215332,0.2639999985694885 -5.60099983215332,0.2639999985694885 C-5.60099983215332,0.2639999985694885 0.38600000739097595,-4.460999965667725 0.38600000739097595,-4.460999965667725z"></path></g></g><g opacity="1" transform="matrix(1,0,-0.00015121602336876094,1,0.0058994293212890625,0)"><g opacity="1" transform="matrix(1,0,0,1,7.328999996185303,37.224998474121094)"><path fill="rgb(135,96,154)" fill-opacity="1" d=" M-6.0960001945495605,-6.239999771118164 C-6.0960001945495605,-6.239999771118164 6.0960001945495605,-0.2619999945163727 6.0960001945495605,-0.2619999945163727 C6.0960001945495605,-0.2619999945163727 0.5270000100135803,5.019999980926514 0.5270000100135803,5.019999980926514 C0.5270000100135803,5.019999980926514 -6.0960001945495605,6.239999771118164 -6.0960001945495605,6.239999771118164 C-6.0960001945495605,6.239999771118164 -6.0960001945495605,-6.239999771118164 -6.0960001945495605,-6.239999771118164z"></path></g><g opacity="1" transform="matrix(1,0,0,1,7.809000015258789,25.719999313354492)"><path fill="rgb(159,128,173)" fill-opacity="1" d=" M-2.749000072479248,-7.992000102996826 C-2.749000072479248,-7.992000102996826 -6.836999893188477,-6.175000190734863 -6.836999893188477,-6.175000190734863 C-6.836999893188477,-6.175000190734863 -5.538000106811523,8.604000091552734 -5.538000106811523,8.604000091552734 C-5.538000106811523,8.604000091552734 2.312000036239624,8.234000205993652 2.312000036239624,8.234000205993652 C2.312000036239624,8.234000205993652 6.836999893188477,2.7980000972747803 6.836999893188477,2.7980000972747803 C6.836999893188477,2.7980000972747803 6.4670000076293945,-7.992000102996826 6.4670000076293945,-7.992000102996826 C6.4670000076293945,-7.992000102996826 2.5160000324249268,-8.604000091552734 2.5160000324249268,-8.604000091552734 C2.5160000324249268,-8.604000091552734 -2.749000072479248,-7.992000102996826 -2.749000072479248,-7.992000102996826z"></path></g><g opacity="1" transform="matrix(1,0,0,1,6.234000205993652,12.425000190734863)"><path fill="rgb(207,190,213)" fill-opacity="1" d=" M4.090000152587891,3.7360000610351562 C4.090000152587891,3.7360000610351562 4.090000152587891,4.690999984741211 4.090000152587891,4.690999984741211 C4.090000152587891,4.690999984741211 2.0160000324249268,6.5960001945495605 2.0160000324249268,6.5960001945495605 C2.0160000324249268,6.5960001945495605 -1.1759999990463257,5.302999973297119 -1.1759999990463257,5.302999973297119 C-1.1759999990463257,5.302999973297119 -4.090000152587891,-1.2920000553131104 -4.090000152587891,-1.2920000553131104 C-4.090000152587891,-1.2920000553131104 -2.0179998874664307,-6.5960001945495605 -2.0179998874664307,-6.5960001945495605 C-2.0179998874664307,-6.5960001945495605 4.090000152587891,3.7360000610351562 4.090000152587891,3.7360000610351562z"></path></g><g opacity="1" transform="matrix(1,0,0,1,8.935999870300293,9.946000099182129)"><path fill="rgb(231,223,234)" fill-opacity="1" d=" M4.144999980926514,-5.2210001945495605 C4.144999980926514,-5.2210001945495605 4.7210001945495605,3.7339999675750732 4.7210001945495605,3.7339999675750732 C4.7210001945495605,3.7339999675750732 -2.1050000190734863,5.2210001945495605 -2.1050000190734863,5.2210001945495605 C-2.1050000190734863,5.2210001945495605 -4.7210001945495605,-4.117000102996826 -4.7210001945495605,-4.117000102996826 C-4.7210001945495605,-4.117000102996826 0.2409999966621399,-4.415999889373779 0.2409999966621399,-4.415999889373779 C0.2409999966621399,-4.415999889373779 4.144999980926514,-5.2210001945495605 4.144999980926514,-5.2210001945495605z"></path></g><g opacity="1" transform="matrix(1,0,0,1,9.772000312805176,9.729999542236328)"><path fill="rgb(183,159,194)" fill-opacity="1" d=" M-2.7190001010894775,-0.8960000276565552 C-2.7190001010894775,-0.8960000276565552 2.7190001010894775,-2.0179998874664307 2.7190001010894775,-2.0179998874664307 C2.7190001010894775,-2.0179998874664307 0.7379999756813049,-0.8960000276565552 0.7379999756813049,-0.8960000276565552 C0.7379999756813049,-0.8960000276565552 0.8270000219345093,2.0179998874664307 0.8270000219345093,2.0179998874664307 C0.8270000219345093,2.0179998874664307 -0.3529999852180481,-0.6629999876022339 -0.3529999852180481,-0.6629999876022339 C-0.3529999852180481,-0.6629999876022339 -2.7190001010894775,-0.8960000276565552 -2.7190001010894775,-0.8960000276565552z"></path></g><g opacity="1" transform="matrix(1,0,0,1,7.934999942779541,15.284000396728516)"><path fill="rgb(183,159,194)" fill-opacity="1" d=" M2.3889999389648438,-0.878000020980835 C2.3889999389648438,-0.878000020980835 2.3889999389648438,0.878000020980835 2.3889999389648438,0.878000020980835 C2.3889999389648438,0.878000020980835 -2.3889999389648438,0.11500000208616257 -2.3889999389648438,0.11500000208616257 C-2.3889999389648438,0.11500000208616257 2.3889999389648438,-0.878000020980835 2.3889999389648438,-0.878000020980835z"></path></g><g opacity="1" transform="matrix(1,0,0,1,3.740999937057495,8.480999946594238)"><path fill="rgb(159,128,173)" fill-opacity="1" d=" M1.9609999656677246,2.6519999504089355 C1.9609999656677246,2.6519999504089355 -1.9609999656677246,0.13699999451637268 -1.9609999656677246,0.13699999451637268 C-1.9609999656677246,0.13699999451637268 -0.5120000243186951,-4.869999885559082 -0.5120000243186951,-4.869999885559082 C-0.5120000243186951,-4.869999885559082 0.4749999940395355,-2.6519999504089355 0.4749999940395355,-2.6519999504089355 C0.4749999940395355,-2.6519999504089355 1.9609999656677246,2.6519999504089355 1.9609999656677246,2.6519999504089355z"></path></g><g opacity="1" transform="matrix(1,0,0,1,3.9749999046325684,13.656999588012695)"><path fill="rgb(183,159,194)" fill-opacity="1" d=" M-0.3499999940395355,0.8259999752044678 C-0.3499999940395355,0.8259999752044678 0.9660000205039978,-0.8259999752044678 0.9660000205039978,-0.8259999752044678 C0.9660000205039978,-0.8259999752044678 -0.9660000205039978,-0.5680000185966492 -0.9660000205039978,-0.5680000185966492 C-0.9660000205039978,-0.5680000185966492 -0.3499999940395355,0.8259999752044678 -0.3499999940395355,0.8259999752044678z"></path></g><g opacity="1" transform="matrix(1,0,0,1,6.418000221252441,4.211999893188477)"><path fill="rgb(159,128,173)" fill-opacity="1" d=" M3.2060000896453857,2.3459999561309814 C3.2060000896453857,2.3459999561309814 -2.203000068664551,1.6180000305175781 -2.203000068664551,1.6180000305175781 C-2.203000068664551,1.6180000305175781 -3.2060000896453857,-0.6669999957084656 -3.2060000896453857,-0.6669999957084656 C-3.2060000896453857,-0.6669999957084656 1.1699999570846558,-2.3459999561309814 1.1699999570846558,-2.3459999561309814 C1.1699999570846558,-2.3459999561309814 2.5179998874664307,-0.609000027179718 2.5179998874664307,-0.609000027179718 C2.5179998874664307,-0.609000027179718 3.2060000896453857,2.3459999561309814 3.2060000896453857,2.3459999561309814z"></path></g><g opacity="1" transform="matrix(1,0,0,1,10.333999633789062,4.211999893188477)"><path fill="rgb(183,159,194)" fill-opacity="1" d=" M-2.746999979019165,-2.3459999561309814 C-2.746999979019165,-2.3459999561309814 0.3540000021457672,-1.9539999961853027 0.3540000021457672,-1.9539999961853027 C0.3540000021457672,-1.9539999961853027 2.746999979019165,0.5120000243186951 2.746999979019165,0.5120000243186951 C2.746999979019165,0.5120000243186951 -0.7099999785423279,2.3459999561309814 -0.7099999785423279,2.3459999561309814 C-0.7099999785423279,2.3459999561309814 -2.746999979019165,-2.3459999561309814 -2.746999979019165,-2.3459999561309814z"></path></g><g opacity="1" transform="matrix(1,0,0,1,15.53600025177002,22.04400062561035)"><path fill="rgb(147,112,163)" fill-opacity="1" d=" M-1.2599999904632568,-4.315999984741211 C-1.2599999904632568,-4.315999984741211 2.1110000610351562,2.931999921798706 2.1110000610351562,2.931999921798706 C2.1110000610351562,2.931999921798706 -2.1110000610351562,4.315999984741211 -2.1110000610351562,4.315999984741211 C-2.1110000610351562,4.315999984741211 -1.2599999904632568,-4.315999984741211 -1.2599999904632568,-4.315999984741211z"></path></g><g opacity="1" transform="matrix(1,0,0,1,2.8980000019073486,24.26300048828125)"><path fill="rgb(135,96,154)" fill-opacity="1" d=" M-2.6480000019073486,1.2209999561309814 C-2.6480000019073486,1.2209999561309814 2.50600004196167,4.7170000076293945 2.50600004196167,4.7170000076293945 C2.50600004196167,4.7170000076293945 2.6480000019073486,0.734000027179718 2.6480000019073486,0.734000027179718 C2.6480000019073486,0.734000027179718 -1.9259999990463257,-4.7170000076293945 -1.9259999990463257,-4.7170000076293945 C-1.9259999990463257,-4.7170000076293945 -2.6480000019073486,1.2209999561309814 -2.6480000019073486,1.2209999561309814z"></path></g><g opacity="1" transform="matrix(1,0,0,1,11.857000350952148,23.799999237060547)"><path fill="rgb(231,223,234)" fill-opacity="1" d=" M-1.7359999418258667,-1.1360000371932983 C-1.7359999418258667,-1.1360000371932983 0.8949999809265137,-0.6729999780654907 0.8949999809265137,-0.6729999780654907 C0.8949999809265137,-0.6729999780654907 1.7359999418258667,0.8730000257492065 1.7359999418258667,0.8730000257492065 C1.7359999418258667,0.8730000257492065 -0.5789999961853027,1.1360000371932983 -0.5789999961853027,1.1360000371932983 C-0.5789999961853027,1.1360000371932983 -1.7359999418258667,-1.1360000371932983 -1.7359999418258667,-1.1360000371932983z"></path></g><g opacity="1" transform="matrix(1,0,0,1,5.080999851226807,23.291000366210938)"><path fill="rgb(207,190,213)" fill-opacity="1" d=" M1.9730000495910645,0.5120000243186951 C1.9730000495910645,0.5120000243186951 -1.9730000495910645,-1.2419999837875366 -1.9730000495910645,-1.2419999837875366 C-1.9730000495910645,-1.2419999837875366 -1.3980000019073486,0.4410000145435333 -1.3980000019073486,0.4410000145435333 C-1.3980000019073486,0.4410000145435333 0.003000000026077032,1.2419999837875366 0.003000000026077032,1.2419999837875366 C0.003000000026077032,1.2419999837875366 1.7359999418258667,0.972000002861023 1.7359999418258667,0.972000002861023 C1.7359999418258667,0.972000002861023 1.9730000495910645,0.5120000243186951 1.9730000495910645,0.5120000243186951z"></path></g><g opacity="1" transform="matrix(1,0,0,1,3.430999994277954,23.291000366210938)"><path fill="rgb(231,223,234)" fill-opacity="1" d=" M-0.3230000138282776,-1.2419999837875366 C-0.3230000138282776,-1.2419999837875366 -1.6519999504089355,-0.3880000114440918 -1.6519999504089355,-0.3880000114440918 C-1.6519999504089355,-0.3880000114440918 -0.492000013589859,1.2419999837875366 -0.492000013589859,1.2419999837875366 C-0.492000013589859,1.2419999837875366 1.6519999504089355,1.2419999837875366 1.6519999504089355,1.2419999837875366 C1.6519999504089355,1.2419999837875366 -0.3230000138282776,-1.2419999837875366 -0.3230000138282776,-1.2419999837875366z"></path></g><g opacity="1" transform="matrix(1,0,0,1,12.75100040435791,26.51799964904785)"><path fill="rgb(135,96,154)" fill-opacity="1" d=" M4.894999980926514,-1.5420000553131104 C4.894999980926514,-1.5420000553131104 -1.218999981880188,-1.9989999532699585 -1.218999981880188,-1.9989999532699585 C-1.218999981880188,-1.9989999532699585 -4.894999980926514,-0.23800000548362732 -4.894999980926514,-0.23800000548362732 C-4.894999980926514,-0.23800000548362732 1.8940000534057617,1.9989999532699585 1.8940000534057617,1.9989999532699585 C1.8940000534057617,1.9989999532699585 4.894999980926514,-1.5420000553131104 4.894999980926514,-1.5420000553131104z"></path></g><g opacity="1" transform="matrix(1,0,0,1,8.307999610900879,25.82200050354004)"><path fill="rgb(121,86,137)" fill-opacity="1" d=" M-3.2249999046325684,-1.2890000343322754 C-3.2249999046325684,-1.2890000343322754 1.8140000104904175,-3.1579999923706055 1.8140000104904175,-3.1579999923706055 C1.8140000104904175,-3.1579999923706055 3.2249999046325684,-1.3040000200271606 3.2249999046325684,-1.3040000200271606 C3.2249999046325684,-1.3040000200271606 -2.9040000438690186,3.1579999923706055 -2.9040000438690186,3.1579999923706055 C-2.9040000438690186,3.1579999923706055 -3.2249999046325684,-1.2890000343322754 -3.2249999046325684,-1.2890000343322754z"></path></g><g opacity="1" transform="matrix(1,0,0,1,8.503999710083008,32.7400016784668)"><path fill="rgb(147,112,163)" fill-opacity="1" d=" M6.140999794006348,-4.2220001220703125 C6.140999794006348,-4.2220001220703125 -6.234000205993652,1.5839999914169312 -6.234000205993652,1.5839999914169312 C-6.234000205993652,1.5839999914169312 1.2660000324249268,4.2220001220703125 1.2660000324249268,4.2220001220703125 C1.2660000324249268,4.2220001220703125 6.234000205993652,-1.4529999494552612 6.234000205993652,-1.4529999494552612 C6.234000205993652,-1.4529999494552612 6.140999794006348,-4.2220001220703125 6.140999794006348,-4.2220001220703125z"></path></g></g></g><g opacity="1" transform="matrix(1,0,0,1,29.78799819946289,91.4990005493164)"><g opacity="1" transform="matrix(1,0,0,1,22.01099967956543,21.184999465942383)"><path fill="rgb(179,135,157)" fill-opacity="1" d=" M-21.239999771118164,-6.002999782562256 C-21.239999771118164,-6.002999782562256 -21.761999130249023,-4.1020002365112305 -21.761999130249023,-4.1020002365112305 C-21.761999130249023,-4.1020002365112305 -21.746999740600586,1.4299999475479126 -21.746999740600586,1.4299999475479126 C-21.746999740600586,1.4299999475479126 -10.621999740600586,4.525000095367432 -10.621999740600586,4.525000095367432 C-10.621999740600586,4.525000095367432 2.5399999618530273,5.64300012588501 2.5399999618530273,5.64300012588501 C2.5399999618530273,5.64300012588501 19.516000747680664,6.002999782562256 19.516000747680664,6.002999782562256 C19.516000747680664,6.002999782562256 21.761999130249023,3.4019999504089355 21.761999130249023,3.4019999504089355 C21.761999130249023,3.4019999504089355 18.624000549316406,1.4299999475479126 18.624000549316406,1.4299999475479126 C18.624000549316406,1.4299999475479126 -4.6539998054504395,-5.0329999923706055 -4.6539998054504395,-5.0329999923706055 C-4.6539998054504395,-5.0329999923706055 -21.239999771118164,-6.002999782562256 -21.239999771118164,-6.002999782562256z"></path></g><g opacity="1" transform="matrix(1,0,0,1,54.85100173950195,21.972999572753906)"><path fill="rgb(149,98,123)" fill-opacity="1" d=" M-14.21500015258789,0.6420000195503235 C-14.21500015258789,0.6420000195503235 0.20800000429153442,-4.558000087738037 0.20800000429153442,-4.558000087738037 C0.20800000429153442,-4.558000087738037 12.960000038146973,-5.214000225067139 12.960000038146973,-5.214000225067139 C12.960000038146973,-5.214000225067139 14.21500015258789,-0.7879999876022339 14.21500015258789,-0.7879999876022339 C14.21500015258789,-0.7879999876022339 11.810999870300293,3.178999900817871 11.810999870300293,3.178999900817871 C11.810999870300293,3.178999900817871 6.531000137329102,5.214000225067139 6.531000137329102,5.214000225067139 C6.531000137329102,5.214000225067139 -13.324000358581543,5.214000225067139 -13.324000358581543,5.214000225067139 C-13.324000358581543,5.214000225067139 -14.21500015258789,0.6420000195503235 -14.21500015258789,0.6420000195503235z"></path></g><g opacity="1" transform="matrix(1,0,0,1,34.29100036621094,17.415000915527344)"><path fill="rgb(209,160,184)" fill-opacity="1" d=" M-26.44700050354004,-5.199999809265137 C-26.44700050354004,-5.199999809265137 -33.52000045776367,-2.2320001125335693 -33.52000045776367,-2.2320001125335693 C-33.52000045776367,-2.2320001125335693 6.343999862670898,5.199999809265137 6.343999862670898,5.199999809265137 C6.343999862670898,5.199999809265137 33.52000045776367,-0.656000018119812 33.52000045776367,-0.656000018119812 C33.52000045776367,-0.656000018119812 29.483999252319336,-3.7309999465942383 29.483999252319336,-3.7309999465942383 C29.483999252319336,-3.7309999465942383 -26.44700050354004,-5.199999809265137 -26.44700050354004,-5.199999809265137z"></path></g><g opacity="1" transform="matrix(1,0,0,1,35.66299819946289,8.201000213623047)"><path fill="rgb(209,160,184)" fill-opacity="1" d=" M-26.756000518798828,-2.4519999027252197 C-26.756000518798828,-2.4519999027252197 -6.098999977111816,-7.951000213623047 -6.098999977111816,-7.951000213623047 C-6.098999977111816,-7.951000213623047 26.756000518798828,-3.4059998989105225 26.756000518798828,-3.4059998989105225 C26.756000518798828,-3.4059998989105225 4.9730000495910645,7.951000213623047 4.9730000495910645,7.951000213623047 C4.9730000495910645,7.951000213623047 -26.756000518798828,-2.4519999027252197 -26.756000518798828,-2.4519999027252197z"></path></g><g opacity="1" transform="matrix(1,0,0,1,25.381000518798828,12.449000358581543)"><path fill="rgb(179,135,157)" fill-opacity="1" d=" M-16.474000930786133,-6.701000213623047 C-16.474000930786133,-6.701000213623047 -17.53700065612793,-0.23399999737739563 -17.53700065612793,-0.23399999737739563 C-17.53700065612793,-0.23399999737739563 14.54800033569336,6.701000213623047 14.54800033569336,6.701000213623047 C14.54800033569336,6.701000213623047 17.53700065612793,3.7019999027252197 17.53700065612793,3.7019999027252197 C17.53700065612793,3.7019999027252197 15.255000114440918,1.2350000143051147 15.255000114440918,1.2350000143051147 C15.255000114440918,1.2350000143051147 -16.474000930786133,-6.701000213623047 -16.474000930786133,-6.701000213623047z"></path></g><g opacity="1" transform="matrix(1,0,0,1,51.85300064086914,11.972999572753906)"><path fill="rgb(149,98,123)" fill-opacity="1" d=" M-11.217000007629395,1.7109999656677246 C-11.217000007629395,1.7109999656677246 -11.923999786376953,7.177999973297119 -11.923999786376953,7.177999973297119 C-11.923999786376953,7.177999973297119 11.923999786376953,1.7109999656677246 11.923999786376953,1.7109999656677246 C11.923999786376953,1.7109999656677246 10.565999984741211,-7.177999973297119 10.565999984741211,-7.177999973297119 C10.565999984741211,-7.177999973297119 -11.217000007629395,1.7109999656677246 -11.217000007629395,1.7109999656677246z"></path></g></g><g opacity="1" transform="matrix(1,0,0,1,20.80699920654297,8.167999267578125)"><g opacity="1" transform="matrix(1,0,0,1,0,0)"><g opacity="1" transform="matrix(1,0,0,1,79.76899719238281,47.85300064086914)"><path fill="rgb(204,207,211)" fill-opacity="1" d=" M8.368000030517578,-30.583999633789062 C8.368000030517578,-30.583999633789062 -8.368000030517578,-33.82500076293945 -8.368000030517578,-33.82500076293945 C-8.368000030517578,-33.82500076293945 -0.453000009059906,33.82500076293945 -0.453000009059906,33.82500076293945 C-0.453000009059906,33.82500076293945 8.368000030517578,-30.583999633789062 8.368000030517578,-30.583999633789062z"></path></g><g opacity="1" transform="matrix(1,0,0,1,8.25,53.097999572753906)"><path fill="rgb(204,207,211)" fill-opacity="1" d=" M-7.999000072479248,-52.847999572753906 C-7.999000072479248,-52.847999572753906 0.996999979019165,52.847999572753906 0.996999979019165,52.847999572753906 C0.996999979019165,52.847999572753906 7.999000072479248,-49.75 7.999000072479248,-49.75 C7.999000072479248,-49.75 -7.999000072479248,-52.847999572753906 -7.999000072479248,-52.847999572753906z"></path></g><g opacity="1" transform="matrix(1,0,0,1,54.5880012512207,112.86900329589844)"><path fill="rgb(204,207,211)" fill-opacity="1" d=" M19.854999542236328,4.385000228881836 C19.854999542236328,4.385000228881836 21.05500030517578,-4.385000228881836 21.05500030517578,-4.385000228881836 C21.05500030517578,-4.385000228881836 -21.05500030517578,-2.7100000381469727 -21.05500030517578,-2.7100000381469727 C-21.05500030517578,-2.7100000381469727 19.854999542236328,4.385000228881836 19.854999542236328,4.385000228881836z"></path></g></g><g opacity="1" transform="matrix(1,0,0,1,0,0)"><g opacity="1" transform="matrix(1,0,0,1,21.21299934387207,108.54299926757812)"><path fill="rgb(204,207,211)" fill-opacity="1" d=" M-12.319999694824219,2.5959999561309814 C-12.319999694824219,2.5959999561309814 12.319999694824219,1.6169999837875366 12.319999694824219,1.6169999837875366 C12.319999694824219,1.6169999837875366 -11.967000007629395,-2.5969998836517334 -11.967000007629395,-2.5969998836517334 C-11.967000007629395,-2.5969998836517334 -12.319999694824219,2.5959999561309814 -12.319999694824219,2.5959999561309814z"></path></g><g opacity="1" transform="matrix(1,0,0,1,43.82500076293945,7.138999938964844)"><path fill="rgb(204,207,211)" fill-opacity="1" d=" M25.964000701904297,-6.888999938964844 C25.964000701904297,-6.888999938964844 -27.576000213623047,-3.7909998893737793 -27.576000213623047,-3.7909998893737793 C-27.576000213623047,-3.7909998893737793 27.576000213623047,6.888999938964844 27.576000213623047,6.888999938964844 C27.576000213623047,6.888999938964844 25.964000701904297,-6.888999938964844 25.964000701904297,-6.888999938964844z"></path></g><g opacity="1" transform="matrix(1,0,0,1,79.03199768066406,95.08100128173828)"><path fill="rgb(204,207,211)" fill-opacity="1" d=" M0.2840000092983246,-13.402999877929688 C0.2840000092983246,-13.402999877929688 -3.388000011444092,13.402999877929688 -3.388000011444092,13.402999877929688 C-3.388000011444092,13.402999877929688 3.388000011444092,13.133000373840332 3.388000011444092,13.133000373840332 C3.388000011444092,13.133000373840332 0.2840000092983246,-13.402999877929688 0.2840000092983246,-13.402999877929688z"></path></g></g></g></g><g transform="matrix(0.9999998807907104,-0.00041807364323176444,0.00041807364323176444,0.9999998807907104,39.231719970703125,30.18895721435547)" opacity="1" style="display: block;"><g opacity="1" transform="matrix(1,0,0,1,12.78499984741211,16.715999603271484)"><path fill="rgb(86,95,112)" fill-opacity="1" d=" M4.054999828338623,-8.251999855041504 C4.054999828338623,-8.251999855041504 -4.054999828338623,4.127999782562256 -4.054999828338623,4.127999782562256 C-4.054999828338623,4.127999782562256 1.6080000400543213,8.251999855041504 1.6080000400543213,8.251999855041504 C1.6080000400543213,8.251999855041504 4.054999828338623,3.183000087738037 4.054999828338623,3.183000087738037 C4.054999828338623,3.183000087738037 6.669000148773193,-2.499000072479248 6.669000148773193,-2.499000072479248 C6.669000148773193,-2.499000072479248 4.054999828338623,-8.251999855041504 4.054999828338623,-8.251999855041504z"></path></g><g opacity="1" transform="matrix(1,0,0,1,0,0)"><g opacity="1" transform="matrix(1,0,0,1,8.517999649047852,19.95599937438965)"><path fill="rgb(120,126,141)" fill-opacity="1" d=" M5.875,5.01200008392334 C5.875,5.01200008392334 -1.6230000257492065,6.51200008392334 -1.6230000257492065,6.51200008392334 C-1.6230000257492065,6.51200008392334 -4.840000152587891,-0.9710000157356262 -4.840000152587891,-0.9710000157356262 C-4.840000152587891,-0.9710000157356262 -5.875,-4.327000141143799 -5.875,-4.327000141143799 C-5.875,-4.327000141143799 -2.1519999504089355,-6.51200008392334 -2.1519999504089355,-6.51200008392334 C-2.1519999504089355,-6.51200008392334 5.875,5.01200008392334 5.875,5.01200008392334z"></path></g><g opacity="1" transform="matrix(0.9999998807907104,0.0004536480410024524,-0.0004536480410024524,0.9999998807907104,0.005185127258300781,-0.0019998550415039062)"><g opacity="1" transform="matrix(1,0,0,1,1.0950000286102295,19.43600082397461)"><path fill="rgb(120,126,141)" fill-opacity="1" d=" M0.7059999704360962,-0.4519999921321869 C0.7059999704360962,-0.4519999921321869 -0.12600000202655792,1.5980000495910645 -0.12600000202655792,1.5980000495910645 C-0.12600000202655792,1.5980000495910645 -0.7059999704360962,1.3600000143051147 -0.7059999704360962,1.3600000143051147 C-0.7059999704360962,1.3600000143051147 0.3070000112056732,-1.5980000495910645 0.3070000112056732,-1.5980000495910645 C0.3070000112056732,-1.5980000495910645 0.7059999704360962,-0.4519999921321869 0.7059999704360962,-0.4519999921321869z"></path></g><g opacity="1" transform="matrix(1,0,0,1,8.401000022888184,10.461999893188477)"><path fill="rgb(179,135,157)" fill-opacity="1" d=" M1.7400000095367432,0.06499999761581421 C1.7400000095367432,0.06499999761581421 -1.7400000095367432,1.5549999475479126 -1.7400000095367432,1.5549999475479126 C-1.7400000095367432,1.5549999475479126 -0.01600000075995922,-1.5549999475479126 -0.01600000075995922,-1.5549999475479126 C-0.01600000075995922,-1.5549999475479126 1.7400000095367432,0.06499999761581421 1.7400000095367432,0.06499999761581421z"></path></g><g opacity="1" transform="matrix(1,0,0,1,8.038999557495117,3.4049999713897705)"><path fill="rgb(86,95,112)" fill-opacity="1" d=" M-2.678999900817871,-0.17800000309944153 C-2.678999900817871,-0.17800000309944153 -0.2840000092983246,-3.1559998989105225 -0.2840000092983246,-3.1559998989105225 C-0.2840000092983246,-3.1559998989105225 2.678999900817871,-1.8849999904632568 2.678999900817871,-1.8849999904632568 C2.678999900817871,-1.8849999904632568 2.0889999866485596,1.8980000019073486 2.0889999866485596,1.8980000019073486 C2.0889999866485596,1.8980000019073486 -1.2610000371932983,3.1559998989105225 -1.2610000371932983,3.1559998989105225 C-1.2610000371932983,3.1559998989105225 -2.678999900817871,-0.17800000309944153 -2.678999900817871,-0.17800000309944153z"></path></g><g opacity="1" transform="matrix(1,0,0,1,6.255000114440918,11.670000076293945)"><path fill="rgb(142,105,159)" fill-opacity="1" d=" M-1.0420000553131104,4.410999774932861 C-1.0420000553131104,4.410999774932861 -4.453999996185303,7.314000129699707 -4.453999996185303,7.314000129699707 C-4.453999996185303,7.314000129699707 -4.853000164031982,5.151000022888184 -4.853000164031982,5.151000022888184 C-4.853000164031982,5.151000022888184 -0.5759999752044678,-7.314000129699707 -0.5759999752044678,-7.314000129699707 C-0.5759999752044678,-7.314000129699707 1.1740000247955322,-6.736000061035156 1.1740000247955322,-6.736000061035156 C1.1740000247955322,-6.736000061035156 3.3459999561309814,-7.314000129699707 3.3459999561309814,-7.314000129699707 C3.3459999561309814,-7.314000129699707 4.853000164031982,-6.736000061035156 4.853000164031982,-6.736000061035156 C4.853000164031982,-6.736000061035156 -1.0420000553131104,4.410999774932861 -1.0420000553131104,4.410999774932861z"></path></g><g opacity="1" transform="matrix(1,0,0,1,4.375,10.621999740600586)"><path fill="rgb(171,144,184)" fill-opacity="1" d=" M0.5730000138282776,-8.36299991607666 C0.5730000138282776,-8.36299991607666 2.124000072479248,-7.609000205993652 2.124000072479248,-7.609000205993652 C2.124000072479248,-7.609000205993652 3.055000066757202,-5.686999797821045 3.055000066757202,-5.686999797821045 C3.055000066757202,-5.686999797821045 -2.572999954223633,8.36299991607666 -2.572999954223633,8.36299991607666 C-2.572999954223633,8.36299991607666 -3.055000066757202,3.496999979019165 -3.055000066757202,3.496999979019165 C-3.055000066757202,3.496999979019165 0.5730000138282776,-8.36299991607666 0.5730000138282776,-8.36299991607666z"></path></g><g opacity="1" transform="matrix(1,0,0,1,3.507999897003174,17.492000579833984)"><path fill="rgb(115,82,131)" fill-opacity="1" d=" M0.17100000381469727,1.4919999837875366 C0.17100000381469727,1.4919999837875366 1.7059999704360962,-1.409999966621399 1.7059999704360962,-1.409999966621399 C1.7059999704360962,-1.409999966621399 -0.5109999775886536,-1.4919999837875366 -0.5109999775886536,-1.4919999837875366 C-0.5109999775886536,-1.4919999837875366 -1.7059999704360962,-0.4300000071525574 -1.7059999704360962,-0.4300000071525574 C-1.7059999704360962,-0.4300000071525574 -1.7059999704360962,1.4919999837875366 -1.7059999704360962,1.4919999837875366 C-1.7059999704360962,1.4919999837875366 0.17100000381469727,1.4919999837875366 0.17100000381469727,1.4919999837875366z"></path></g><g opacity="1" transform="matrix(1,0,0,1,1.6230000257492065,16.551000595092773)"><path fill="rgb(142,105,159)" fill-opacity="1" d=" M0.17800000309944153,2.433000087738037 C0.17800000309944153,2.433000087738037 -1.3730000257492065,1.0640000104904175 -1.3730000257492065,1.0640000104904175 C-1.3730000257492065,1.0640000104904175 -0.30300000309944153,-2.433000087738037 -0.30300000309944153,-2.433000087738037 C-0.30300000309944153,-2.433000087738037 1.3730000257492065,-0.5509999990463257 1.3730000257492065,-0.5509999990463257 C1.3730000257492065,-0.5509999990463257 0.17800000309944153,2.433000087738037 0.17800000309944153,2.433000087738037z"></path></g><g opacity="1" transform="matrix(1,0,0,1,9.269000053405762,3.2279999256134033)"><path fill="rgb(69,77,93)" fill-opacity="1" d=" M1.4500000476837158,-1.7079999446868896 C1.4500000476837158,-1.7079999446868896 -1.840000033378601,1.7079999446868896 -1.840000033378601,1.7079999446868896 C-1.840000033378601,1.7079999446868896 1.840000033378601,1.7079999446868896 1.840000033378601,1.7079999446868896 C1.840000033378601,1.7079999446868896 1.4500000476837158,-1.7079999446868896 1.4500000476837158,-1.7079999446868896z"></path></g><g opacity="1" transform="matrix(1,0,0,1,6.35099983215332,2.5920000076293945)"><path fill="rgb(120,126,141)" fill-opacity="1" d=" M1.4040000438690186,-2.3420000076293945 C1.4040000438690186,-2.3420000076293945 1.0789999961853027,2.3420000076293945 1.0789999961853027,2.3420000076293945 C1.0789999961853027,2.3420000076293945 -1.4040000438690186,-0.3330000042915344 -1.4040000438690186,-0.3330000042915344 C-1.4040000438690186,-0.3330000042915344 1.4040000438690186,-2.3420000076293945 1.4040000438690186,-2.3420000076293945z"></path></g><g opacity="1" transform="matrix(1,0,0,1,3.818000078201294,10.383999824523926)"><path fill="rgb(209,160,184)" fill-opacity="1" d=" M2.9240000247955322,-3.7339999675750732 C2.9240000247955322,-3.7339999675750732 -2.9240000247955322,-3.253000020980835 -2.9240000247955322,-3.253000020980835 C-2.9240000247955322,-3.253000020980835 -2.499000072479248,3.7339999675750732 -2.499000072479248,3.7339999675750732 C-2.499000072479248,3.7339999675750732 1.6260000467300415,3.059000015258789 1.6260000467300415,3.059000015258789 C1.6260000467300415,3.059000015258789 2.9240000247955322,-3.7339999675750732 2.9240000247955322,-3.7339999675750732z"></path></g><g opacity="1" transform="matrix(1,0,0,1,8.517000198364258,9.293999671936035)"><path fill="rgb(209,160,184)" fill-opacity="1" d=" M-1.4429999589920044,-0.9950000047683716 C-1.4429999589920044,-0.9950000047683716 0.9380000233650208,-1.2339999675750732 0.9380000233650208,-1.2339999675750732 C0.9380000233650208,-1.2339999675750732 1.621999979019165,1.2339999675750732 1.621999979019165,1.2339999675750732 C1.621999979019165,1.2339999675750732 -1.621999979019165,0.7490000128746033 -1.621999979019165,0.7490000128746033 C-1.621999979019165,0.7490000128746033 -1.4429999589920044,-0.9950000047683716 -1.4429999589920044,-0.9950000047683716z"></path></g></g></g></g><g transform="matrix(0.9999998807907104,0.0005225921049714088,-0.0005225921049714088,0.9999998807907104,74.71358489990234,38.225982666015625)" opacity="1" style="display: block;"><g opacity="1" transform="matrix(1,0,0,1,5.690999984741211,9.777999877929688)"><path fill="rgb(86,95,112)" fill-opacity="1" d=" M-0.8169999718666077,-8.211000442504883 C-0.8169999718666077,-8.211000442504883 5.440999984741211,3.869999885559082 5.440999984741211,3.869999885559082 C5.440999984741211,3.869999885559082 1.3609999418258667,8.211000442504883 1.3609999418258667,8.211000442504883 C1.3609999418258667,8.211000442504883 -5.440999984741211,3.625 -5.440999984741211,3.625 C-5.440999984741211,3.625 -0.8169999718666077,-8.211000442504883 -0.8169999718666077,-8.211000442504883z"></path></g><g opacity="1" transform="matrix(1,0,0.0003135552688036114,1,-0.005573272705078125,0)"><g opacity="1" transform="matrix(0.9999998807907104,0.0005225920467637479,-0.0008361472864635289,0.9999997019767761,0.008464813232421875,-0.006299018859863281)"><g opacity="1" transform="matrix(1,0,0,1,18.22800064086914,4.703999996185303)"><path fill="rgb(209,160,184)" fill-opacity="1" d=" M-3.5850000381469727,-1.378000020980835 C-3.5850000381469727,-1.378000020980835 3.5850000381469727,-4.067999839782715 3.5850000381469727,-4.067999839782715 C3.5850000381469727,-4.067999839782715 1.8270000219345093,1.2269999980926514 1.8270000219345093,1.2269999980926514 C1.8270000219345093,1.2269999980926514 -1.8669999837875366,4.067999839782715 -1.8669999837875366,4.067999839782715 C-1.8669999837875366,4.067999839782715 -3.440999984741211,1.0959999561309814 -3.440999984741211,1.0959999561309814 C-3.440999984741211,1.0959999561309814 -3.5850000381469727,-1.378000020980835 -3.5850000381469727,-1.378000020980835z"></path></g><g opacity="1" transform="matrix(1,0,0,1,13.333000183105469,6.76800012588501)"><path fill="rgb(179,135,157)" fill-opacity="1" d=" M-3.03067946434021,1.2661535739898682 C-3.03067946434021,1.2661535739898682 -2.315999984741211,-1.399999976158142 -2.315999984741211,-1.399999976158142 C-2.315999984741211,-1.399999976158142 1.309000015258789,-3.441999912261963 1.309000015258789,-3.441999912261963 C1.309000015258789,-3.441999912261963 3.0290000438690186,2.003999948501587 3.0290000438690186,2.003999948501587 C3.0290000438690186,2.003999948501587 1.4515278339385986,3.2603564262390137 1.4515278339385986,3.2603564262390137 C1.4515278339385986,3.2603564262390137 -1.1679999828338623,3.441999912261963 -1.1679999828338623,3.441999912261963 C-1.1679999828338623,3.441999912261963 -3.03067946434021,1.2661535739898682 -3.03067946434021,1.2661535739898682z"></path></g><g opacity="1" transform="matrix(1,0,0,1,13.11299991607666,3.744999885559082)"><path fill="rgb(209,160,184)" fill-opacity="1" d=" M-2.0959999561309814,1.621999979019165 C-2.0959999561309814,1.621999979019165 0.8009999990463257,-3.494999885559082 0.8009999990463257,-3.494999885559082 C0.8009999990463257,-3.494999885559082 2.0959999561309814,-3.3310000896453857 2.0959999561309814,-3.3310000896453857 C2.0959999561309814,-3.3310000896453857 0.7670000195503235,3.494999885559082 0.7670000195503235,3.494999885559082 C0.7670000195503235,3.494999885559082 -2.0959999561309814,1.621999979019165 -2.0959999561309814,1.621999979019165z"></path></g></g><g opacity="1" transform="matrix(1,0,0,1,10.918999671936035,13.010000228881836)"><path fill="rgb(120,126,141)" fill-opacity="1" d=" M-0.6140000224113464,-4.978000164031982 C-0.6140000224113464,-4.978000164031982 -3.867000102996826,4.978000164031982 -3.867000102996826,4.978000164031982 C-3.867000102996826,4.978000164031982 2.742000102996826,3.5230000019073486 2.742000102996826,3.5230000019073486 C2.742000102996826,3.5230000019073486 3.867000102996826,-2.9800000190734863 3.867000102996826,-2.9800000190734863 C3.867000102996826,-2.9800000190734863 -0.6140000224113464,-4.978000164031982 -0.6140000224113464,-4.978000164031982z"></path></g></g></g><g transform="matrix(1,-0.00010451841808389872,0.00010451841808389872,1,53.37812042236328,36.88921356201172)" opacity="1" style="display: block;"><g opacity="1" transform="matrix(1,0,0,1,11.51099967956543,15.321999549865723)"><path fill="rgb(183,159,194)" fill-opacity="1" d=" M-1.7960000038146973,-15.071999549865723 C-1.7960000038146973,-15.071999549865723 7.599999904632568,-14.58899974822998 7.599999904632568,-14.58899974822998 C7.599999904632568,-14.58899974822998 10.401000022888184,-13.729999542236328 10.401000022888184,-13.729999542236328 C10.401000022888184,-13.729999542236328 11.260000228881836,6.497000217437744 11.260000228881836,6.497000217437744 C11.260000228881836,6.497000217437744 8.899999618530273,15.071999549865723 8.899999618530273,15.071999549865723 C8.899999618530273,15.071999549865723 -6.942999839782715,12.37399959564209 -6.942999839782715,12.37399959564209 C-6.942999839782715,12.37399959564209 -11.260000228881836,2.938999891281128 -11.260000228881836,2.938999891281128 C-11.260000228881836,2.938999891281128 -5.46999979019165,-14.282999992370605 -5.46999979019165,-14.282999992370605 C-5.46999979019165,-14.282999992370605 -1.7960000038146973,-15.071999549865723 -1.7960000038146973,-15.071999549865723z"></path></g><g opacity="1" transform="matrix(1,0,0,1,12.102999687194824,17.05900001525879)"><path fill="rgb(159,128,173)" fill-opacity="1" d=" M-1.274999976158142,-11.784000396728516 C-1.274999976158142,-11.784000396728516 11.85200023651123,-5.461999893188477 11.85200023651123,-5.461999893188477 C11.85200023651123,-5.461999893188477 2.7230000495910645,8.880000114440918 2.7230000495910645,8.880000114440918 C2.7230000495910645,8.880000114440918 -11.19398021697998,11.784717559814453 -11.19398021697998,11.784717559814453 C-11.19398021697998,11.784717559814453 -11.85200023651123,1.2020000219345093 -11.85200023651123,1.2020000219345093 C-11.85200023651123,1.2020000219345093 -1.274999976158142,-11.784000396728516 -1.274999976158142,-11.784000396728516z"></path></g><g opacity="1" transform="matrix(1,0,0,1,12.432999610900879,23.385000228881836)"><path fill="rgb(147,112,163)" fill-opacity="1" d=" M-11.523980140686035,5.457723140716553 C-11.523980140686035,5.457723140716553 1.5069999694824219,-1.156999945640564 1.5069999694824219,-1.156999945640564 C1.5069999694824219,-1.156999945640564 11.52299976348877,-11.788999557495117 11.52299976348877,-11.788999557495117 C11.52299976348877,-11.788999557495117 10.279999732971191,-1.0720000267028809 10.279999732971191,-1.0720000267028809 C10.279999732971191,-1.0720000267028809 9.57443618774414,10.711820602416992 9.57443618774414,10.711820602416992 C9.57443618774414,10.711820602416992 -1.9500000476837158,11.788999557495117 -1.9500000476837158,11.788999557495117 C-1.9500000476837158,11.788999557495117 -11.523980140686035,5.457723140716553 -11.523980140686035,5.457723140716553z"></path></g><g opacity="1" transform="matrix(1,0,0,1,5.966000080108643,11.552000045776367)"><path fill="rgb(86,95,112)" fill-opacity="1" d=" M0.07500000298023224,-8.996999740600586 C0.07500000298023224,-8.996999740600586 4.111000061035156,-2.257999897003174 4.111000061035156,-2.257999897003174 C4.111000061035156,-2.257999897003174 1.8569999933242798,9.795000076293945 1.8569999933242798,9.795000076293945 C1.8569999933242798,9.795000076293945 -4.111000061035156,6.802999973297119 -4.111000061035156,6.802999973297119 C-4.111000061035156,6.802999973297119 -3.2690000534057617,-9.795000076293945 -3.2690000534057617,-9.795000076293945 C-3.2690000534057617,-9.795000076293945 0.07500000298023224,-8.996999740600586 0.07500000298023224,-8.996999740600586z"></path></g><g opacity="1" transform="matrix(1,0,0,1,20.073999404907227,12.569000244140625)"><path fill="rgb(86,95,112)" fill-opacity="1" d=" M-5.343999862670898,-0.9729999899864197 C-5.343999862670898,-0.9729999899864197 1.7990000247955322,-9.348999977111816 1.7990000247955322,-9.348999977111816 C1.7990000247955322,-9.348999977111816 6.133999824523926,-9.65999984741211 6.133999824523926,-9.65999984741211 C6.133999824523926,-9.65999984741211 1.5770000219345093,7.285999774932861 1.5770000219345093,7.285999774932861 C1.5770000219345093,7.285999774932861 -6.133999824523926,9.65999984741211 -6.133999824523926,9.65999984741211 C-6.133999824523926,9.65999984741211 -5.343999862670898,-0.9729999899864197 -5.343999862670898,-0.9729999899864197z"></path></g><g opacity="1" transform="matrix(1,0,0,1,20.073999404907227,12.569000244140625)"><path fill="rgb(69,77,93)" fill-opacity="1" d=" M6.133999824523926,-9.65999984741211 C6.133999824523926,-9.65999984741211 -6.133999824523926,9.65999984741211 -6.133999824523926,9.65999984741211 C-6.133999824523926,9.65999984741211 2.696000099182129,9.25100040435791 2.696000099182129,9.25100040435791 C2.696000099182129,9.25100040435791 6.133999824523926,-9.65999984741211 6.133999824523926,-9.65999984741211z"></path></g><g opacity="1" transform="matrix(1,0,0,1,4.0370001792907715,11.552000045776367)"><path fill="rgb(69,77,93)" fill-opacity="1" d=" M-1.3389999866485596,-9.795000076293945 C-1.3389999866485596,-9.795000076293945 3.7860000133514404,9.795000076293945 3.7860000133514404,9.795000076293945 C3.7860000133514404,9.795000076293945 -3.7860000133514404,6.709000110626221 -3.7860000133514404,6.709000110626221 C-3.7860000133514404,6.709000110626221 -1.3389999866485596,-9.795000076293945 -1.3389999866485596,-9.795000076293945z"></path></g><g opacity="1" transform="matrix(1,0,0,1,6.76200008392334,5.165999889373779)"><path fill="rgb(120,126,141)" fill-opacity="1" d=" M-0.722000002861023,-4.126999855041504 C-0.722000002861023,-4.126999855041504 4.065000057220459,0.10899999737739563 4.065000057220459,0.10899999737739563 C4.065000057220459,0.10899999737739563 3.313999891281128,4.126999855041504 3.313999891281128,4.126999855041504 C3.313999891281128,4.126999855041504 -4.065000057220459,-3.4089999198913574 -4.065000057220459,-3.4089999198913574 C-4.065000057220459,-3.4089999198913574 -0.722000002861023,-4.126999855041504 -0.722000002861023,-4.126999855041504z"></path></g><g opacity="1" transform="matrix(1,0,0,1,20.4689998626709,6.593999862670898)"><path fill="rgb(120,126,141)" fill-opacity="1" d=" M-5.419000148773193,0.7139999866485596 C-5.419000148773193,0.7139999866485596 1.4429999589920044,-5.001999855041504 1.4429999589920044,-5.001999855041504 C1.4429999589920044,-5.001999855041504 5.73799991607666,-3.684999942779541 5.73799991607666,-3.684999942779541 C5.73799991607666,-3.684999942779541 -5.73799991607666,5.001999855041504 -5.73799991607666,5.001999855041504 C-5.73799991607666,5.001999855041504 -5.419000148773193,0.7139999866485596 -5.419000148773193,0.7139999866485596z"></path></g></g><g transform="matrix(0.9999998807907104,-0.0004069504211656749,0.0004069504211656749,0.9999998807907104,47.29067611694336,4.335948944091797)" opacity="1" style="display: block;"><g opacity="1" transform="matrix(1,0,-0.00015121602336876094,1,0.0054759979248046875,0)"><g opacity="1" transform="matrix(1,0,0,1,12.11299991607666,18.368000030517578)"><path fill="rgb(209,160,184)" fill-opacity="1" d=" M-9.46500015258789,-8.680000305175781 C-9.46500015258789,-8.680000305175781 -6.993000030517578,8.956000328063965 -6.993000030517578,8.956000328063965 C-6.993000030517578,8.956000328063965 2.8480000495910645,9.479000091552734 2.8480000495910645,9.479000091552734 C2.8480000495910645,9.479000091552734 7.632999897003174,13.496999740600586 7.632999897003174,13.496999740600586 C7.632999897003174,13.496999740600586 9.46500015258789,-0.49900001287460327 9.46500015258789,-0.49900001287460327 C9.46500015258789,-0.49900001287460327 7.395999908447266,-4.11299991607666 7.395999908447266,-4.11299991607666 C7.395999908447266,-4.11299991607666 -4.301000118255615,-13.496999740600586 -4.301000118255615,-13.496999740600586 C-4.301000118255615,-13.496999740600586 -9.46500015258789,-8.680000305175781 -9.46500015258789,-8.680000305175781z"></path></g><g opacity="1" transform="matrix(1,0,0,1,22.059999465942383,25.216999053955078)"><path fill="rgb(179,135,157)" fill-opacity="1" d=" M-2.549999952316284,-10.961999893188477 C-2.549999952316284,-10.961999893188477 -3.6730000972747803,3.1559998989105225 -3.6730000972747803,3.1559998989105225 C-3.6730000972747803,3.1559998989105225 -6.190999984741211,3.3389999866485596 -6.190999984741211,3.3389999866485596 C-6.190999984741211,3.3389999866485596 -6.610000133514404,5.571000099182129 -6.610000133514404,5.571000099182129 C-6.610000133514404,5.571000099182129 -6.2729997634887695,7.5929999351501465 -6.2729997634887695,7.5929999351501465 C-6.2729997634887695,7.5929999351501465 -1.840999960899353,11.553000450134277 -1.840999960899353,11.553000450134277 C-1.840999960899353,11.553000450134277 3.1223599910736084,8.078940391540527 3.1223599910736084,8.078940391540527 C3.1223599910736084,8.078940391540527 4.478000164031982,-0.8149999976158142 4.478000164031982,-0.8149999976158142 C4.478000164031982,-0.8149999976158142 4.186999797821045,-3.1619999408721924 4.186999797821045,-3.1619999408721924 C4.186999797821045,-3.1619999408721924 4.993000030517578,-4.185999870300293 4.993000030517578,-4.185999870300293 C4.993000030517578,-4.185999870300293 6.610000133514404,-9.83899974822998 6.610000133514404,-9.83899974822998 C6.610000133514404,-9.83899974822998 2.4140000343322754,-11.553000450134277 2.4140000343322754,-11.553000450134277 C2.4140000343322754,-11.553000450134277 -0.4129999876022339,-8.894000053405762 -0.4129999876022339,-8.894000053405762 C-0.4129999876022339,-8.894000053405762 -2.549999952316284,-10.961999893188477 -2.549999952316284,-10.961999893188477z"></path></g><g opacity="1" transform="matrix(1,0,0,1,18.91900062561035,29.31800079345703)"><path fill="rgb(149,98,123)" fill-opacity="1" d=" M-3.9590001106262207,-1.4709999561309814 C-3.9590001106262207,-1.4709999561309814 3.9590001106262207,-1.0570000410079956 3.9590001106262207,-1.0570000410079956 C3.9590001106262207,-1.0570000410079956 -3.4690001010894775,1.4709999561309814 -3.4690001010894775,1.4709999561309814 C-3.4690001010894775,1.4709999561309814 -3.9590001106262207,-1.4709999561309814 -3.9590001106262207,-1.4709999561309814z"></path></g><g opacity="1" transform="matrix(1,0,0,1,25.54199981689453,22.53499984741211)"><path fill="rgb(149,98,123)" fill-opacity="1" d=" M1.5110000371932983,-1.503000020980835 C1.5110000371932983,-1.503000020980835 -1.5110000371932983,-1.8680000305175781 -1.5110000371932983,-1.8680000305175781 C-1.5110000371932983,-1.8680000305175781 0.9959999918937683,1.8680000305175781 0.9959999918937683,1.8680000305175781 C0.9959999918937683,1.8680000305175781 1.5110000371932983,-1.503000020980835 1.5110000371932983,-1.503000020980835z"></path></g><g opacity="1" transform="matrix(1,0,0.00015121602336876094,1,10.640000343322754,16.882999420166016)"><path fill="rgb(149,98,123)" fill-opacity="1" d=" M-5.210999965667725,-3.7850000858306885 C-5.210999965667725,-3.7850000858306885 5.210999965667725,-3.1600000858306885 5.210999965667725,-3.1600000858306885 C5.210999965667725,-3.1600000858306885 0.39500001072883606,-2.1540000438690186 0.39500001072883606,-2.1540000438690186 C0.39500001072883606,-2.1540000438690186 -0.6439999938011169,3.7850000858306885 -0.6439999938011169,3.7850000858306885 C-0.6439999938011169,3.7850000858306885 -1.2960000038146973,-2.2170000076293945 -1.2960000038146973,-2.2170000076293945 C-1.2960000038146973,-2.2170000076293945 -5.210999965667725,-3.7850000858306885 -5.210999965667725,-3.7850000858306885z"></path></g><g opacity="1" transform="matrix(1,0,0,1,16.14900016784668,10.640999794006348)"><path fill="rgb(129,92,146)" fill-opacity="1" d=" M-13.50100040435791,-0.9520000219345093 C-13.50100040435791,-0.9520000219345093 -15.899999618530273,-4.059000015258789 -15.899999618530273,-4.059000015258789 C-15.899999618530273,-4.059000015258789 -11.293999671936035,-5.769999980926514 -11.293999671936035,-5.769999980926514 C-11.293999671936035,-5.769999980926514 -9.343999862670898,-8.736000061035156 -9.343999862670898,-8.736000061035156 C-9.343999862670898,-8.736000061035156 1.0989999771118164,-10.390999794006348 1.0989999771118164,-10.390999794006348 C1.0989999771118164,-10.390999794006348 10.904000282287598,-4.894999980926514 10.904000282287598,-4.894999980926514 C10.904000282287598,-4.894999980926514 15.899999618530273,4.739999771118164 15.899999618530273,4.739999771118164 C15.899999618530273,4.739999771118164 10.904000282287598,10.390999794006348 10.904000282287598,10.390999794006348 C10.904000282287598,10.390999794006348 13.229999542236328,5.26800012588501 13.229999542236328,5.26800012588501 C13.229999542236328,5.26800012588501 8.916000366210938,2.4579999446868896 8.916000366210938,2.4579999446868896 C8.916000366210938,2.4579999446868896 5.498000144958496,5.682000160217285 5.498000144958496,5.682000160217285 C5.498000144958496,5.682000160217285 3.3610000610351562,3.615000009536743 3.3610000610351562,3.615000009536743 C3.3610000610351562,3.615000009536743 -0.6990000009536743,-0.6990000009536743 -0.6990000009536743,-0.6990000009536743 C-0.6990000009536743,-0.6990000009536743 -8.336999893188477,-4.497000217437744 -8.336999893188477,-4.497000217437744 C-8.336999893188477,-4.497000217437744 -13.50100040435791,-0.9520000219345093 -13.50100040435791,-0.9520000219345093z"></path></g><g opacity="1" transform="matrix(1,0,0,1,4.031000137329102,4.243000030517578)"><path fill="rgb(147,112,163)" fill-opacity="1" d=" M-3.7809998989105225,2.3380000591278076 C-3.7809998989105225,2.3380000591278076 3.7809998989105225,1.9010000228881836 3.7809998989105225,1.9010000228881836 C3.7809998989105225,1.9010000228881836 2.7739999294281006,-2.3380000591278076 2.7739999294281006,-2.3380000591278076 C2.7739999294281006,-2.3380000591278076 -3.7809998989105225,2.3380000591278076 -3.7809998989105225,2.3380000591278076z"></path></g><g opacity="1" transform="matrix(1,0,0,1,24.64900016784668,7.815999984741211)"><path fill="rgb(115,82,131)" fill-opacity="1" d=" M-7.401000022888184,-7.565999984741211 C-7.401000022888184,-7.565999984741211 -0.6179999709129333,2.125 -0.6179999709129333,2.125 C-0.6179999709129333,2.125 7.401000022888184,7.565999984741211 7.401000022888184,7.565999984741211 C7.401000022888184,7.565999984741211 4.079999923706055,-2.8469998836517334 4.079999923706055,-2.8469998836517334 C4.079999923706055,-2.8469998836517334 -7.401000022888184,-7.565999984741211 -7.401000022888184,-7.565999984741211z"></path></g><g opacity="1" transform="matrix(1,0,0,1,25.780000686645508,15.487000465393066)"><path fill="rgb(94,67,107)" fill-opacity="1" d=" M6.269999980926514,-0.10499999672174454 C6.269999980926514,-0.10499999672174454 -1.75,-5.545000076293945 -1.75,-5.545000076293945 C-1.75,-5.545000076293945 -6.269999980926514,-1.2309999465942383 -6.269999980926514,-1.2309999465942383 C-6.269999980926514,-1.2309999465942383 -4.202000141143799,2.381999969482422 -4.202000141143799,2.381999969482422 C-4.202000141143799,2.381999969482422 -1.3650000095367432,-0.3449999988079071 -1.3650000095367432,-0.3449999988079071 C-1.3650000095367432,-0.3449999988079071 2.062000036239624,0.36399999260902405 2.062000036239624,0.36399999260902405 C2.062000036239624,0.36399999260902405 1.2730000019073486,5.545000076293945 1.2730000019073486,5.545000076293945 C1.2730000019073486,5.545000076293945 6.269999980926514,-0.10499999672174454 6.269999980926514,-0.10499999672174454z"></path></g><g opacity="1" transform="matrix(1,0,0,1,15.92199993133545,10.199000358581543)"><path fill="rgb(115,82,131)" fill-opacity="1" d=" M8.109000205993652,-0.257999986410141 C8.109000205993652,-0.257999986410141 -8.109000205993652,-4.056000232696533 -8.109000205993652,-4.056000232696533 C-8.109000205993652,-4.056000232696533 3.5880000591278076,4.056000232696533 3.5880000591278076,4.056000232696533 C3.5880000591278076,4.056000232696533 8.109000205993652,-0.257999986410141 8.109000205993652,-0.257999986410141z"></path></g></g></g><g transform="matrix(1,0,0,1,48.94399642944336,65.47999572753906)" opacity="1" style="display: block;"><g opacity="1" transform="matrix(1,0,0.00020903683616779745,1,-0.007091522216796875,0)"><g opacity="0.1" transform="matrix(1,0,0,1,16.839000701904297,33.56100082397461)"><path fill="rgb(29,35,49)" fill-opacity="1" d=" M-16.839000701904297,-0.38600000739097595 C-16.839000701904297,-0.38600000739097595 -1.2209999561309814,-4.291999816894531 -1.2209999561309814,-4.291999816894531 C-1.2209999561309814,-4.291999816894531 16.839000701904297,0.26600000262260437 16.839000701904297,0.26600000262260437 C16.839000701904297,0.26600000262260437 3.937000036239624,4.291999816894531 3.937000036239624,4.291999816894531 C3.937000036239624,4.291999816894531 -16.839000701904297,-0.38600000739097595 -16.839000701904297,-0.38600000739097595z"></path></g><g opacity="1" transform="matrix(1,0,0,1,23.763999938964844,30.81399917602539)"><path fill="rgb(129,92,146)" fill-opacity="1" d=" M1.156999945640564,-2.5369999408721924 C1.156999945640564,-2.5369999408721924 4.991000175476074,1.9739999771118164 4.991000175476074,1.9739999771118164 C4.991000175476074,1.9739999771118164 -0.20999999344348907,2.822999954223633 -0.20999999344348907,2.822999954223633 C-0.20999999344348907,2.822999954223633 -4.991000175476074,1.9739999771118164 -4.991000175476074,1.9739999771118164 C-4.991000175476074,1.9739999771118164 -4.590000152587891,-0.9039999842643738 -4.590000152587891,-0.9039999842643738 C-4.590000152587891,-0.9039999842643738 -1.524999976158142,-2.822999954223633 -1.524999976158142,-2.822999954223633 C-1.524999976158142,-2.822999954223633 1.156999945640564,-2.5369999408721924 1.156999945640564,-2.5369999408721924z"></path></g><g opacity="1" transform="matrix(1,0,0,1,9.690999984741211,29.23900032043457)"><path fill="rgb(129,92,146)" fill-opacity="1" d=" M5.926000118255615,0.028999999165534973 C5.926000118255615,0.028999999165534973 5.926000118255615,2.4730000495910645 5.926000118255615,2.4730000495910645 C5.926000118255615,2.4730000495910645 0.47699999809265137,2.9690001010894775 0.47699999809265137,2.9690001010894775 C0.47699999809265137,2.9690001010894775 -5.926000118255615,2.4730000495910645 -5.926000118255615,2.4730000495910645 C-5.926000118255615,2.4730000495910645 0.718999981880188,-2.9690001010894775 0.718999981880188,-2.9690001010894775 C0.718999981880188,-2.9690001010894775 3.684000015258789,-2.9690001010894775 3.684000015258789,-2.9690001010894775 C3.684000015258789,-2.9690001010894775 5.926000118255615,0.028999999165534973 5.926000118255615,0.028999999165534973z"></path></g><g opacity="1" transform="matrix(1,0,0,1,11.383999824523926,11.062000274658203)"><path fill="rgb(81,88,106)" fill-opacity="1" d=" M-6.031000137329102,-10.812000274658203 C-6.031000137329102,-10.812000274658203 -3.2660000324249268,3.4189999103546143 -3.2660000324249268,3.4189999103546143 C-3.2660000324249268,3.4189999103546143 1.2580000162124634,10.812000274658203 1.2580000162124634,10.812000274658203 C1.2580000162124634,10.812000274658203 5.781000137329102,8.753000259399414 5.781000137329102,8.753000259399414 C5.781000137329102,8.753000259399414 6.031000137329102,-4.054999828338623 6.031000137329102,-4.054999828338623 C6.031000137329102,-4.054999828338623 -6.031000137329102,-10.812000274658203 -6.031000137329102,-10.812000274658203z"></path></g><g opacity="1" transform="matrix(1,0,0,1,20.77400016784668,13.420999526977539)"><path fill="rgb(86,95,112)" fill-opacity="1" d=" M5.677255153656006,-7.917793273925781 C5.677255153656006,-7.917793273925781 5.02400016784668,1.5529999732971191 5.02400016784668,1.5529999732971191 C5.02400016784668,1.5529999732971191 0.7070000171661377,7.913000106811523 0.7070000171661377,7.913000106811523 C0.7070000171661377,7.913000106811523 -3.609999895095825,6.394999980926514 -3.609999895095825,6.394999980926514 C-3.609999895095825,6.394999980926514 -5.676000118255615,-3.384000062942505 -5.676000118255615,-3.384000062942505 C-5.676000118255615,-3.384000062942505 -2.390000104904175,-7.682000160217285 -2.390000104904175,-7.682000160217285 C-2.390000104904175,-7.682000160217285 5.677255153656006,-7.917793273925781 5.677255153656006,-7.917793273925781z"></path></g><g opacity="1" transform="matrix(1,0,0,1,15.902000427246094,5.14300012588501)"><path fill="rgb(69,77,93)" fill-opacity="1" d=" M-10.54800033569336,-4.894000053405762 C-10.54800033569336,-4.894000053405762 10.549469947814941,0.360421746969223 10.549469947814941,0.360421746969223 C10.549469947814941,0.360421746969223 -0.8029999732971191,4.894000053405762 -0.8029999732971191,4.894000053405762 C-0.8029999732971191,4.894000053405762 -10.54800033569336,-4.894000053405762 -10.54800033569336,-4.894000053405762z"></path></g><g opacity="1" transform="matrix(1,0,0,1,21.479999542236328,22.441999435424805)"><path fill="rgb(74,83,99)" fill-opacity="1" d=" M4.316999912261963,-7.468999862670898 C4.316999912261963,-7.468999862670898 -4.316999912261963,-2.625999927520752 -4.316999912261963,-2.625999927520752 C-4.316999912261963,-2.625999927520752 -2.306999921798706,7.468999862670898 -2.306999921798706,7.468999862670898 C-2.306999921798706,7.468999862670898 3.440000057220459,5.835000038146973 3.440000057220459,5.835000038146973 C3.440000057220459,5.835000038146973 4.316999912261963,-7.468999862670898 4.316999912261963,-7.468999862670898z"></path></g><g opacity="1" transform="matrix(1,0,0,1,12.640999794006348,21.875)"><path fill="rgb(69,77,93)" fill-opacity="1" d=" M-2.2309999465942383,4.394999980926514 C-2.2309999465942383,4.394999980926514 2.9769999980926514,7.39300012588501 2.9769999980926514,7.39300012588501 C2.9769999980926514,7.39300012588501 4.521999835968018,-2.059000015258789 4.521999835968018,-2.059000015258789 C4.521999835968018,-2.059000015258789 -4.521999835968018,-7.39300012588501 -4.521999835968018,-7.39300012588501 C-4.521999835968018,-7.39300012588501 -2.2309999465942383,4.394999980926514 -2.2309999465942383,4.394999980926514z"></path></g><g opacity="1" transform="matrix(1,0,0,1,9.690999984741211,32.5620002746582)"><path fill="rgb(108,77,122)" fill-opacity="1" d=" M-5.926000118255615,0.8500000238418579 C-5.926000118255615,0.8500000238418579 5.926000118255615,0.8500000238418579 5.926000118255615,0.8500000238418579 C5.926000118255615,0.8500000238418579 5.926000118255615,-0.8500000238418579 5.926000118255615,-0.8500000238418579 C5.926000118255615,-0.8500000238418579 -5.926000118255615,-0.8500000238418579 -5.926000118255615,-0.8500000238418579 C-5.926000118255615,-0.8500000238418579 -5.926000118255615,0.8500000238418579 -5.926000118255615,0.8500000238418579z"></path></g><g opacity="1" transform="matrix(1,0,0,1,23.76300048828125,33.63800048828125)"><path fill="rgb(108,77,122)" fill-opacity="1" d=" M-4.991000175476074,0.8500000238418579 C-4.991000175476074,0.8500000238418579 4.991000175476074,0.8500000238418579 4.991000175476074,0.8500000238418579 C4.991000175476074,0.8500000238418579 4.991000175476074,-0.8500000238418579 4.991000175476074,-0.8500000238418579 C4.991000175476074,-0.8500000238418579 -4.991000175476074,-0.8500000238418579 -4.991000175476074,-0.8500000238418579 C-4.991000175476074,-0.8500000238418579 -4.991000175476074,0.8500000238418579 -4.991000175476074,0.8500000238418579z"></path></g></g></g></g></svg>